<?xml version="1.0" encoding="utf-8"?>
<!-- Generator: Adobe Illustrator 26.0.2, SVG Export Plug-In . SVG Version: 6.00 Build 0)  -->
<svg version="1.1"
	 id="svg8" xmlns:cc="http://creativecommons.org/ns#" xmlns:dc="http://purl.org/dc/elements/1.1/" xmlns:inkscape="http://www.inkscape.org/namespaces/inkscape" xmlns:rdf="http://www.w3.org/1999/02/22-rdf-syntax-ns#" xmlns:sodipodi="http://sodipodi.sourceforge.net/DTD/sodipodi-0.dtd" xmlns:svg="http://www.w3.org/2000/svg"
	 xmlns="http://www.w3.org/2000/svg" xmlns:xlink="http://www.w3.org/1999/xlink" x="0px" y="0px" viewBox="0 0 357.4 269.5"
	 style="enable-background:new 0 0 357.4 269.5;" xml:space="preserve">
<style type="text/css">
	.st0{fill:#FFFFFF;fill-opacity:0.8771;}
	.st1{fill-opacity:0.6907;}
	.st2{enable-background:new    ;}
	.st3{fill:#F2F2F2;}
</style>
<sodipodi:namedview  bordercolor="#666666" borderopacity="1.0" id="base" inkscape:current-layer="layer2" inkscape:cx="426.93201" inkscape:cy="289.58796" inkscape:document-rotation="0" inkscape:document-units="mm" inkscape:pageopacity="0.0" inkscape:pageshadow="2" inkscape:showpageshadow="false" inkscape:snap-bbox="true" inkscape:snap-grids="false" inkscape:snap-page="false" inkscape:snap-to-guides="false" inkscape:window-height="1017" inkscape:window-maximized="1" inkscape:window-width="1920" inkscape:window-x="-8" inkscape:window-y="-8" inkscape:zoom="1.0289025" pagecolor="#ffffff" showgrid="false" units="mm" width="126.082in">
	</sodipodi:namedview>
<g id="layer3" inkscape:groupmode="layer" inkscape:label="Background image">
	<g id="flowRoot1525" transform="scale(0.26458333)">
	</g>
</g>
<g id="layer2" inkscape:groupmode="layer" inkscape:label="Background">
	
		<image style="overflow:visible;" width="832" height="774" xlink:href="../../../public/img/Logo.png"  transform="matrix(0.2047 0 0 0.2047 93.5486 75.9665)">
	</image>
	<path id="rect817" class="st0" d="M12.9,23.3h334c6.5,0,11.7,5.2,11.7,11.7V237c0,6.5-5.2,11.7-11.7,11.7h-334
		c-6.5,0-11.7-5.2-11.7-11.7V35C1.2,28.5,6.4,23.3,12.9,23.3z"/>
	<path id="rect819" inkscape:connector-curvature="0" sodipodi:nodetypes="sssccccs" class="st1" d="M12.9,23.3h334
		c6.5,0,11.7,5.2,11.7,11.7v18.5l0,19.4l-357.3,0L1.2,35C1.2,28.5,6.4,23.3,12.9,23.3L12.9,23.3z"/>
	<g class="st2">
		<path class="st3" d="M82.4,52.3l4.1,1.3c-0.6,2.3-1.7,4-3.2,5.1c-1.5,1.1-3.3,1.7-5.6,1.7c-2.8,0-5.1-1-6.9-2.9
			c-1.8-1.9-2.7-4.5-2.7-7.8c0-3.5,0.9-6.2,2.7-8.2s4.2-2.9,7.1-2.9c2.6,0,4.7,0.8,6.3,2.3c1,0.9,1.7,2.2,2.2,3.9l-4.2,1
			c-0.2-1.1-0.8-2-1.6-2.6s-1.8-0.9-2.9-0.9c-1.6,0-2.8,0.6-3.8,1.7c-1,1.1-1.5,2.9-1.5,5.5c0,2.7,0.5,4.6,1.4,5.7
			c1,1.1,2.2,1.7,3.7,1.7c1.1,0,2.1-0.4,2.9-1.1S82,53.9,82.4,52.3z"/>
		<path class="st3" d="M93.1,49.5l-3.7-0.7c0.4-1.5,1.1-2.6,2.1-3.3c1-0.7,2.5-1.1,4.5-1.1c1.8,0,3.1,0.2,4,0.6
			c0.9,0.4,1.5,1,1.9,1.6c0.4,0.7,0.5,1.9,0.5,3.6l0,4.7c0,1.3,0.1,2.3,0.2,3s0.4,1.3,0.7,2h-4c-0.1-0.3-0.2-0.7-0.4-1.2
			c-0.1-0.2-0.1-0.4-0.1-0.5c-0.7,0.7-1.4,1.2-2.2,1.5s-1.6,0.5-2.5,0.5c-1.6,0-2.8-0.4-3.7-1.3c-0.9-0.9-1.4-1.9-1.4-3.2
			c0-0.9,0.2-1.6,0.6-2.3c0.4-0.7,1-1.2,1.7-1.6c0.7-0.4,1.8-0.7,3.2-0.9c1.9-0.4,3.2-0.7,3.9-1v-0.4c0-0.8-0.2-1.3-0.6-1.7
			c-0.4-0.3-1.1-0.5-2.2-0.5c-0.7,0-1.3,0.1-1.7,0.4S93.4,48.8,93.1,49.5z M98.5,52.7c-0.5,0.2-1.3,0.4-2.5,0.6
			c-1.1,0.2-1.9,0.5-2.2,0.7c-0.5,0.4-0.8,0.8-0.8,1.4c0,0.6,0.2,1.1,0.6,1.5c0.4,0.4,1,0.6,1.6,0.6c0.7,0,1.4-0.2,2.1-0.7
			c0.5-0.4,0.8-0.8,1-1.3c0.1-0.3,0.2-1,0.2-2V52.7z"/>
		<path class="st3" d="M110.4,60.1h-4V44.8h3.8V47c0.6-1,1.2-1.7,1.7-2c0.5-0.3,1.1-0.5,1.7-0.5c0.9,0,1.8,0.3,2.7,0.8l-1.3,3.5
			c-0.7-0.4-1.3-0.7-1.9-0.7c-0.6,0-1,0.2-1.4,0.5c-0.4,0.3-0.7,0.9-0.9,1.7c-0.2,0.8-0.3,2.5-0.3,5.1V60.1z"/>
		<path class="st3" d="M125,44.8V48h-2.8v6.2c0,1.2,0,2,0.1,2.2c0.1,0.2,0.2,0.4,0.4,0.5s0.4,0.2,0.7,0.2c0.4,0,0.9-0.1,1.6-0.4
			l0.3,3.1c-0.9,0.4-2,0.6-3.2,0.6c-0.7,0-1.4-0.1-2-0.4c-0.6-0.2-1-0.6-1.3-0.9c-0.3-0.4-0.5-0.9-0.6-1.6c-0.1-0.5-0.1-1.4-0.1-2.8
			V48h-1.9v-3.2h1.9v-3l4.1-2.4v5.4H125z"/>
		<path class="st3" d="M136.6,55.2l4,0.7c-0.5,1.5-1.3,2.6-2.5,3.4c-1.1,0.8-2.5,1.2-4.2,1.2c-2.7,0-4.6-0.9-5.9-2.6
			c-1-1.4-1.5-3.1-1.5-5.3c0-2.5,0.7-4.5,2-5.9c1.3-1.4,3-2.2,5-2.2c2.3,0,4.1,0.8,5.4,2.3c1.3,1.5,1.9,3.8,1.9,6.9h-10.1
			c0,1.2,0.4,2.1,1,2.8c0.6,0.7,1.4,1,2.3,1c0.6,0,1.2-0.2,1.6-0.5S136.4,56,136.6,55.2z M136.8,51.1c0-1.2-0.3-2.1-0.9-2.7
			c-0.6-0.6-1.3-0.9-2.1-0.9c-0.9,0-1.6,0.3-2.2,1s-0.9,1.5-0.8,2.6H136.8z"/>
		<path class="st3" d="M166.3,60.1h-3.8v-2.2c-0.6,0.9-1.4,1.5-2.2,1.9s-1.7,0.6-2.6,0.6c-1.8,0-3.3-0.7-4.5-2.1s-1.9-3.4-1.9-5.9
			c0-2.6,0.6-4.6,1.8-5.9c1.2-1.3,2.8-2,4.6-2c1.7,0,3.2,0.7,4.4,2.1V39h4V60.1z M155.6,52.1c0,1.6,0.2,2.8,0.7,3.5
			c0.7,1.1,1.6,1.6,2.7,1.6c0.9,0,1.7-0.4,2.4-1.2c0.7-0.8,1-2,1-3.5c0-1.8-0.3-3-0.9-3.8c-0.6-0.8-1.4-1.2-2.4-1.2
			c-1,0-1.8,0.4-2.4,1.1C155.9,49.5,155.6,50.6,155.6,52.1z"/>
		<path class="st3" d="M170.3,46.5l-0.8-3.9V39h4.4v3.6l-0.7,3.9H170.3z"/>
		<path class="st3" d="M177.3,42.7V39h4v3.7H177.3z M177.3,60.1V44.8h4v15.3H177.3z"/>
		<path class="st3" d="M199.5,60.1h-3.8v-2.2c-0.6,0.9-1.4,1.5-2.2,1.9c-0.8,0.4-1.7,0.6-2.6,0.6c-1.8,0-3.3-0.7-4.5-2.1
			s-1.9-3.4-1.9-5.9c0-2.6,0.6-4.6,1.8-5.9c1.2-1.3,2.8-2,4.6-2c1.7,0,3.2,0.7,4.4,2.1V39h4V60.1z M188.7,52.1
			c0,1.6,0.2,2.8,0.7,3.5c0.7,1.1,1.6,1.6,2.7,1.6c0.9,0,1.7-0.4,2.4-1.2s1-2,1-3.5c0-1.8-0.3-3-0.9-3.8c-0.6-0.8-1.4-1.2-2.4-1.2
			c-1,0-1.8,0.4-2.4,1.1S188.7,50.6,188.7,52.1z"/>
		<path class="st3" d="M212.4,55.2l4,0.7c-0.5,1.5-1.3,2.6-2.5,3.4c-1.1,0.8-2.5,1.2-4.2,1.2c-2.7,0-4.6-0.9-5.9-2.6
			c-1-1.4-1.5-3.1-1.5-5.3c0-2.5,0.7-4.5,2-5.9c1.3-1.4,3-2.2,5-2.2c2.3,0,4.1,0.8,5.4,2.3c1.3,1.5,1.9,3.8,1.9,6.9h-10.1
			c0,1.2,0.4,2.1,1,2.8c0.6,0.7,1.4,1,2.3,1c0.6,0,1.2-0.2,1.6-0.5S212.1,56,212.4,55.2z M212.6,51.1c0-1.2-0.3-2.1-0.9-2.7
			c-0.6-0.6-1.3-0.9-2.1-0.9c-0.9,0-1.6,0.3-2.2,1c-0.6,0.6-0.9,1.5-0.8,2.6H212.6z"/>
		<path class="st3" d="M233.8,60.1h-4v-7.8c0-1.6-0.1-2.7-0.3-3.2c-0.2-0.5-0.5-0.9-0.8-1.1c-0.4-0.3-0.9-0.4-1.4-0.4
			c-0.7,0-1.3,0.2-1.9,0.6c-0.6,0.4-0.9,0.9-1.1,1.5c-0.2,0.6-0.3,1.8-0.3,3.5v6.9h-4V44.8h3.8V47c1.3-1.7,3-2.6,5-2.6
			c0.9,0,1.7,0.2,2.4,0.5s1.3,0.7,1.7,1.2s0.6,1.1,0.8,1.7s0.2,1.5,0.2,2.7V60.1z"/>
		<path class="st3" d="M244.9,44.8V48h-2.8v6.2c0,1.2,0,2,0.1,2.2c0.1,0.2,0.2,0.4,0.4,0.5c0.2,0.1,0.4,0.2,0.7,0.2
			c0.4,0,0.9-0.1,1.6-0.4l0.3,3.1c-0.9,0.4-2,0.6-3.2,0.6c-0.7,0-1.4-0.1-2-0.4s-1-0.6-1.3-0.9c-0.3-0.4-0.5-0.9-0.6-1.6
			c-0.1-0.5-0.1-1.4-0.1-2.8V48h-1.9v-3.2h1.9v-3l4.1-2.4v5.4H244.9z"/>
		<path class="st3" d="M247.7,42.7V39h4v3.7H247.7z M247.7,60.1V44.8h4v15.3H247.7z"/>
		<path class="st3" d="M262.9,44.8V48h-2.8v6.2c0,1.2,0,2,0.1,2.2c0.1,0.2,0.2,0.4,0.4,0.5c0.2,0.1,0.4,0.2,0.7,0.2
			c0.4,0,0.9-0.1,1.6-0.4l0.3,3.1c-0.9,0.4-2,0.6-3.2,0.6c-0.7,0-1.4-0.1-2-0.4s-1-0.6-1.3-0.9c-0.3-0.4-0.5-0.9-0.6-1.6
			c-0.1-0.5-0.1-1.4-0.1-2.8V48h-1.9v-3.2h1.9v-3l4.1-2.4v5.4H262.9z"/>
		<path class="st3" d="M274.5,55.2l4,0.7c-0.5,1.5-1.3,2.6-2.5,3.4c-1.1,0.8-2.5,1.2-4.2,1.2c-2.7,0-4.6-0.9-5.9-2.6
			c-1-1.4-1.5-3.1-1.5-5.3c0-2.5,0.7-4.5,2-5.9c1.3-1.4,3-2.2,5-2.2c2.3,0,4.1,0.8,5.4,2.3c1.3,1.5,1.9,3.8,1.9,6.9h-10.1
			c0,1.2,0.4,2.1,1,2.8c0.6,0.7,1.4,1,2.3,1c0.6,0,1.2-0.2,1.6-0.5S274.3,56,274.5,55.2z M274.8,51.1c0-1.2-0.3-2.1-0.9-2.7
			c-0.6-0.6-1.3-0.9-2.1-0.9c-0.9,0-1.6,0.3-2.2,1c-0.6,0.6-0.9,1.5-0.8,2.6H274.8z M269.6,42.9l2-4.3h4.5l-4,4.3H269.6z"/>
	</g>
	<g class="st2">
		<path d="M17.7,110.5V99.9h1.4l5.5,8.3v-8.3H26v10.5h-1.4l-5.5-8.3v8.3H17.7z"/>
		<path d="M27.7,106.6c0-1.4,0.4-2.5,1.2-3.1c0.7-0.6,1.5-0.8,2.4-0.8c1,0,1.9,0.3,2.6,1s1,1.6,1,2.9c0,1-0.1,1.8-0.4,2.3
			s-0.7,1-1.3,1.3c-0.6,0.3-1.2,0.5-1.8,0.5c-1.1,0-1.9-0.3-2.6-1C28,108.9,27.7,107.9,27.7,106.6z M29,106.6c0,1,0.2,1.7,0.6,2.2
			c0.4,0.5,1,0.7,1.6,0.7c0.6,0,1.2-0.2,1.6-0.7c0.4-0.5,0.6-1.2,0.6-2.2c0-0.9-0.2-1.7-0.6-2.1s-1-0.7-1.6-0.7
			c-0.6,0-1.2,0.2-1.6,0.7C29.3,104.9,29,105.7,29,106.6z"/>
		<path d="M36.4,110.5v-7.6h1.2v1.1c0.2-0.4,0.6-0.7,1-0.9c0.4-0.2,0.9-0.3,1.4-0.3c0.6,0,1,0.1,1.4,0.4c0.4,0.2,0.6,0.6,0.8,1
			c0.6-0.9,1.4-1.3,2.4-1.3c0.8,0,1.3,0.2,1.7,0.6c0.4,0.4,0.6,1.1,0.6,1.9v5.2h-1.3v-4.8c0-0.5,0-0.9-0.1-1.1
			c-0.1-0.2-0.2-0.4-0.5-0.6s-0.5-0.2-0.8-0.2c-0.5,0-1,0.2-1.3,0.5c-0.4,0.4-0.5,0.9-0.5,1.7v4.4h-1.3v-5c0-0.6-0.1-1-0.3-1.3
			c-0.2-0.3-0.6-0.4-1-0.4c-0.4,0-0.7,0.1-1,0.3s-0.5,0.5-0.7,0.8c-0.1,0.4-0.2,0.9-0.2,1.6v4H36.4z"/>
		<path d="M49,104.3v-1.5h1.5v1.5H49z M49,110.5V109h1.5v1.5H49z"/>
	</g>
	<g class="st2">
		<path d="M56.3,107.5v-1.7c0.3,0,0.6-0.1,0.8-0.2s0.3-0.2,0.5-0.4s0.2-0.5,0.3-0.8c0-0.2,0.1-0.6,0.1-1.2c0-0.9,0-1.6,0.1-1.9
			c0.1-0.4,0.2-0.7,0.5-0.9c0.2-0.2,0.6-0.4,1-0.5c0.3-0.1,0.8-0.1,1.4-0.1h0.4v1.7c-0.5,0-0.9,0-1,0.1c-0.2,0.1-0.3,0.2-0.3,0.3
			c-0.1,0.1-0.1,0.3-0.1,0.6c0,0.3,0,0.9-0.1,1.7c0,0.5-0.1,0.9-0.2,1.2s-0.2,0.5-0.4,0.7s-0.4,0.4-0.7,0.6c0.3,0.2,0.5,0.4,0.7,0.6
			c0.2,0.2,0.3,0.5,0.4,0.8c0.1,0.3,0.2,0.7,0.2,1.3c0,0.8,0.1,1.3,0.1,1.5c0,0.3,0,0.5,0.1,0.7c0.1,0.1,0.2,0.2,0.3,0.3
			c0.2,0.1,0.5,0.1,1,0.1v1.7h-0.4c-0.6,0-1.1-0.1-1.5-0.2c-0.3-0.1-0.6-0.3-0.9-0.5s-0.4-0.5-0.5-0.9c-0.1-0.4-0.1-0.9-0.1-1.7
			c0-0.9,0-1.5-0.1-1.7c-0.1-0.4-0.3-0.7-0.5-0.8S56.7,107.5,56.3,107.5z"/>
		<path d="M62,107.5v-1.7c0.3,0,0.6-0.1,0.8-0.2s0.3-0.2,0.5-0.4s0.2-0.5,0.3-0.8c0-0.2,0.1-0.6,0.1-1.2c0-0.9,0-1.6,0.1-1.9
			c0.1-0.4,0.2-0.7,0.5-0.9c0.2-0.2,0.6-0.4,1-0.5c0.3-0.1,0.8-0.1,1.4-0.1H67v1.7c-0.5,0-0.9,0-1,0.1c-0.2,0.1-0.3,0.2-0.3,0.3
			c-0.1,0.1-0.1,0.3-0.1,0.6c0,0.3,0,0.9-0.1,1.7c0,0.5-0.1,0.9-0.2,1.2s-0.2,0.5-0.4,0.7s-0.4,0.4-0.7,0.6c0.3,0.2,0.5,0.4,0.7,0.6
			c0.2,0.2,0.3,0.5,0.4,0.8c0.1,0.3,0.2,0.7,0.2,1.3c0,0.8,0.1,1.3,0.1,1.5c0,0.3,0,0.5,0.1,0.7c0.1,0.1,0.2,0.2,0.3,0.3
			c0.2,0.1,0.5,0.1,1,0.1v1.7h-0.4c-0.6,0-1.1-0.1-1.5-0.2c-0.3-0.1-0.6-0.3-0.9-0.5s-0.4-0.5-0.5-0.9c-0.1-0.4-0.1-0.9-0.1-1.7
			c0-0.9,0-1.5-0.1-1.7c-0.1-0.4-0.3-0.7-0.5-0.8S62.5,107.5,62,107.5z"/>
		<path d="M70.8,108.9v-3c-0.9-0.3-1.6-0.7-2.1-1.2c-0.4-0.5-0.7-1.2-0.7-2c0-0.8,0.2-1.4,0.7-2c0.5-0.5,1.2-0.8,2-0.9v-0.7h1v0.7
			c0.8,0.1,1.4,0.4,1.8,0.8c0.5,0.4,0.7,1,0.9,1.7l-1.8,0.2c-0.1-0.6-0.4-0.9-0.9-1.2v2.8c1.2,0.3,1.9,0.7,2.4,1.2
			c0.4,0.5,0.6,1.1,0.6,1.9c0,0.9-0.3,1.6-0.8,2.2c-0.5,0.6-1.3,1-2.2,1.1v1.3h-1v-1.3c-0.8-0.1-1.5-0.4-2-0.9
			c-0.5-0.5-0.8-1.2-1-2.2l1.9-0.2c0.1,0.4,0.2,0.7,0.4,1C70.4,108.6,70.6,108.8,70.8,108.9z M70.8,101.4c-0.3,0.1-0.5,0.3-0.7,0.5
			c-0.2,0.2-0.3,0.5-0.3,0.8c0,0.3,0.1,0.5,0.2,0.7c0.2,0.2,0.4,0.4,0.7,0.5V101.4z M71.9,109c0.4-0.1,0.7-0.2,0.9-0.5
			c0.2-0.3,0.3-0.6,0.3-0.9c0-0.3-0.1-0.6-0.3-0.8s-0.5-0.4-0.9-0.5V109z"/>
		<path d="M83.5,110.5h-2v-3.9c0-0.8,0-1.4-0.1-1.6c-0.1-0.2-0.2-0.4-0.4-0.6c-0.2-0.1-0.4-0.2-0.7-0.2c-0.4,0-0.7,0.1-0.9,0.3
			c-0.3,0.2-0.5,0.4-0.6,0.8s-0.2,0.9-0.2,1.8v3.5h-2v-7.6h1.9v1.1c0.7-0.9,1.5-1.3,2.5-1.3c0.4,0,0.9,0.1,1.2,0.2s0.6,0.4,0.8,0.6
			s0.3,0.5,0.4,0.8s0.1,0.8,0.1,1.4V110.5z"/>
		<path d="M87.1,105.2l-1.8-0.3c0.2-0.7,0.6-1.3,1.1-1.6c0.5-0.4,1.3-0.5,2.2-0.5c0.9,0,1.6,0.1,2,0.3c0.4,0.2,0.8,0.5,0.9,0.8
			c0.2,0.3,0.3,0.9,0.3,1.8l0,2.4c0,0.7,0,1.2,0.1,1.5c0.1,0.3,0.2,0.7,0.4,1h-2c-0.1-0.1-0.1-0.3-0.2-0.6c0-0.1-0.1-0.2-0.1-0.2
			c-0.3,0.3-0.7,0.6-1.1,0.8s-0.8,0.3-1.3,0.3c-0.8,0-1.4-0.2-1.9-0.6s-0.7-1-0.7-1.6c0-0.4,0.1-0.8,0.3-1.2
			c0.2-0.3,0.5-0.6,0.9-0.8s0.9-0.3,1.6-0.5c0.9-0.2,1.6-0.3,2-0.5v-0.2c0-0.4-0.1-0.7-0.3-0.8s-0.6-0.2-1.1-0.2
			c-0.4,0-0.6,0.1-0.8,0.2C87.4,104.6,87.2,104.8,87.1,105.2z M89.8,106.8c-0.3,0.1-0.7,0.2-1.2,0.3c-0.6,0.1-0.9,0.2-1.1,0.4
			c-0.3,0.2-0.4,0.4-0.4,0.7c0,0.3,0.1,0.5,0.3,0.7s0.5,0.3,0.8,0.3c0.4,0,0.7-0.1,1-0.4c0.2-0.2,0.4-0.4,0.5-0.7
			c0.1-0.2,0.1-0.5,0.1-1V106.8z"/>
		<path d="M93.6,102.8h1.9v1c0.7-0.8,1.5-1.2,2.4-1.2c0.5,0,0.9,0.1,1.3,0.3c0.4,0.2,0.7,0.5,0.9,0.9c0.3-0.4,0.7-0.7,1.1-0.9
			c0.4-0.2,0.8-0.3,1.2-0.3c0.6,0,1,0.1,1.4,0.3c0.4,0.2,0.7,0.6,0.9,1c0.1,0.3,0.2,0.9,0.2,1.6v4.9h-2v-4.4c0-0.8-0.1-1.2-0.2-1.5
			c-0.2-0.3-0.5-0.4-0.9-0.4c-0.3,0-0.5,0.1-0.8,0.3c-0.2,0.2-0.4,0.4-0.5,0.8c-0.1,0.3-0.2,0.9-0.2,1.6v3.7h-2v-4.2
			c0-0.7,0-1.2-0.1-1.4s-0.2-0.4-0.3-0.5s-0.4-0.2-0.6-0.2c-0.3,0-0.6,0.1-0.8,0.3c-0.2,0.2-0.4,0.4-0.5,0.7s-0.2,0.8-0.2,1.6v3.7
			h-2V102.8z"/>
		<path d="M111.3,108l2,0.3c-0.3,0.7-0.7,1.3-1.2,1.7c-0.6,0.4-1.3,0.6-2.1,0.6c-1.3,0-2.3-0.4-2.9-1.3c-0.5-0.7-0.8-1.6-0.8-2.6
			c0-1.3,0.3-2.3,1-3s1.5-1.1,2.5-1.1c1.1,0,2,0.4,2.7,1.1c0.7,0.8,1,1.9,0.9,3.4h-5.1c0,0.6,0.2,1.1,0.5,1.4
			c0.3,0.3,0.7,0.5,1.2,0.5c0.3,0,0.6-0.1,0.8-0.3C111,108.7,111.2,108.4,111.3,108z M111.4,106c0-0.6-0.2-1-0.5-1.3
			c-0.3-0.3-0.6-0.5-1-0.5c-0.4,0-0.8,0.2-1.1,0.5s-0.4,0.8-0.4,1.3H111.4z"/>
		<path d="M119.2,107.5c-0.4,0-0.6,0.1-0.8,0.2c-0.2,0.1-0.3,0.2-0.5,0.4c-0.1,0.2-0.2,0.5-0.3,0.8c0,0.2-0.1,0.6-0.1,1.2
			c0,0.9,0,1.6-0.1,1.9c-0.1,0.4-0.2,0.7-0.5,0.9c-0.2,0.2-0.6,0.4-1,0.5c-0.3,0.1-0.8,0.1-1.4,0.1h-0.4v-1.7c0.5,0,0.8,0,1-0.1
			c0.2-0.1,0.3-0.2,0.3-0.3s0.1-0.3,0.1-0.6s0-0.9,0.1-1.7c0-0.5,0.1-0.9,0.2-1.2c0.1-0.3,0.2-0.6,0.4-0.8c0.2-0.2,0.4-0.4,0.7-0.5
			c-0.4-0.2-0.6-0.5-0.8-0.7c-0.2-0.3-0.4-0.7-0.5-1.2c-0.1-0.3-0.1-1.1-0.1-2.2c0-0.4,0-0.6-0.1-0.7c-0.1-0.1-0.2-0.2-0.3-0.3
			c-0.2-0.1-0.5-0.1-1-0.1v-1.7h0.4c0.6,0,1.1,0.1,1.5,0.2s0.6,0.3,0.9,0.5c0.2,0.2,0.4,0.5,0.5,0.9c0.1,0.4,0.1,0.9,0.1,1.7
			c0,0.9,0,1.5,0.1,1.7c0.1,0.4,0.3,0.7,0.5,0.8s0.5,0.3,1,0.3V107.5z"/>
		<path d="M125,107.5c-0.4,0-0.6,0.1-0.8,0.2c-0.2,0.1-0.3,0.2-0.5,0.4c-0.1,0.2-0.2,0.5-0.3,0.8c0,0.2-0.1,0.6-0.1,1.2
			c0,0.9,0,1.6-0.1,1.9c-0.1,0.4-0.2,0.7-0.5,0.9c-0.2,0.2-0.6,0.4-1,0.5c-0.3,0.1-0.8,0.1-1.4,0.1h-0.4v-1.7c0.5,0,0.8,0,1-0.1
			c0.2-0.1,0.3-0.2,0.3-0.3s0.1-0.3,0.1-0.6s0-0.9,0.1-1.7c0-0.5,0.1-0.9,0.2-1.2c0.1-0.3,0.2-0.6,0.4-0.8c0.2-0.2,0.4-0.4,0.7-0.5
			c-0.4-0.2-0.6-0.5-0.8-0.7c-0.2-0.3-0.4-0.7-0.5-1.2c-0.1-0.3-0.1-1.1-0.1-2.2c0-0.4,0-0.6-0.1-0.7c-0.1-0.1-0.2-0.2-0.3-0.3
			c-0.2-0.1-0.5-0.1-1-0.1v-1.7h0.4c0.6,0,1.1,0.1,1.5,0.2s0.6,0.3,0.9,0.5c0.2,0.2,0.4,0.5,0.5,0.9c0.1,0.4,0.1,0.9,0.1,1.7
			c0,0.9,0,1.5,0.1,1.7c0.1,0.4,0.3,0.7,0.5,0.8s0.5,0.3,1,0.3V107.5z"/>
	</g>
	<g class="st2">
		<path d="M20.4,190.6v-9.3h-3.5V180h8.4v1.2h-3.5v9.3H20.4z"/>
		<path d="M31.5,189.6c-0.5,0.4-0.9,0.7-1.4,0.9c-0.4,0.2-0.9,0.3-1.4,0.3c-0.8,0-1.5-0.2-1.9-0.6c-0.5-0.4-0.7-0.9-0.7-1.6
			c0-0.4,0.1-0.7,0.3-1c0.2-0.3,0.4-0.6,0.7-0.7c0.3-0.2,0.6-0.3,0.9-0.4c0.3-0.1,0.6-0.1,1.2-0.2c1-0.1,1.8-0.3,2.3-0.4
			c0-0.2,0-0.3,0-0.3c0-0.5-0.1-0.9-0.4-1.1c-0.3-0.3-0.8-0.4-1.5-0.4c-0.6,0-1.1,0.1-1.3,0.3s-0.5,0.6-0.6,1.1l-1.3-0.2
			c0.1-0.5,0.3-1,0.6-1.3c0.3-0.3,0.6-0.6,1.1-0.8s1.1-0.3,1.7-0.3c0.7,0,1.2,0.1,1.6,0.2c0.4,0.2,0.7,0.3,0.9,0.6
			c0.2,0.2,0.3,0.5,0.4,0.9c0,0.2,0.1,0.6,0.1,1.2v1.7c0,1.2,0,2,0.1,2.3s0.2,0.6,0.3,0.9h-1.4C31.7,190.3,31.6,190,31.5,189.6z
			 M31.4,186.7c-0.5,0.2-1.2,0.4-2.1,0.5c-0.5,0.1-0.9,0.2-1.1,0.3c-0.2,0.1-0.4,0.2-0.5,0.4c-0.1,0.2-0.2,0.4-0.2,0.6
			c0,0.3,0.1,0.6,0.4,0.9c0.3,0.2,0.6,0.3,1.1,0.3c0.5,0,0.9-0.1,1.3-0.3c0.4-0.2,0.7-0.5,0.9-0.9c0.1-0.3,0.2-0.7,0.2-1.3V186.7z"
			/>
		<path d="M34.8,181.5V180H36v1.5H34.8z M34.8,190.6v-7.6H36v7.6H34.8z"/>
		<path d="M38,190.6V180h1.3v10.5H38z"/>
		<path d="M41.3,190.6V180h1.3v10.5H41.3z"/>
		<path d="M49.8,188.1l1.3,0.2c-0.2,0.8-0.6,1.4-1.2,1.8c-0.6,0.4-1.3,0.6-2.2,0.6c-1.1,0-2-0.3-2.7-1c-0.7-0.7-1-1.7-1-2.9
			c0-1.3,0.3-2.3,1-3s1.5-1.1,2.6-1.1c1,0,1.9,0.3,2.5,1s1,1.7,1,2.9c0,0.1,0,0.2,0,0.3h-5.7c0,0.8,0.3,1.5,0.7,1.9
			c0.4,0.4,1,0.7,1.6,0.7c0.5,0,0.9-0.1,1.2-0.4C49.3,189,49.6,188.6,49.8,188.1z M45.5,186h4.3c-0.1-0.6-0.2-1.1-0.5-1.4
			c-0.4-0.5-0.9-0.7-1.6-0.7c-0.6,0-1.1,0.2-1.5,0.6C45.8,184.8,45.6,185.3,45.5,186z"/>
		<path d="M53.1,184.4v-1.5h1.5v1.5H53.1z M53.1,190.6v-1.5h1.5v1.5H53.1z"/>
	</g>
	<g class="st2">
		<path d="M58.8,187.6v-1.7c0.3,0,0.6-0.1,0.8-0.2s0.3-0.2,0.5-0.4c0.1-0.2,0.2-0.5,0.3-0.8c0-0.2,0.1-0.6,0.1-1.2
			c0-0.9,0-1.6,0.1-1.9c0.1-0.4,0.2-0.7,0.5-0.9c0.2-0.2,0.6-0.4,1-0.5c0.3-0.1,0.8-0.1,1.4-0.1h0.4v1.7c-0.5,0-0.9,0-1,0.1
			c-0.2,0.1-0.3,0.2-0.3,0.3c-0.1,0.1-0.1,0.3-0.1,0.6c0,0.3,0,0.9-0.1,1.7c0,0.5-0.1,0.9-0.2,1.2s-0.2,0.5-0.4,0.7
			c-0.2,0.2-0.4,0.4-0.7,0.6c0.3,0.2,0.5,0.4,0.7,0.6c0.2,0.2,0.3,0.5,0.4,0.8c0.1,0.3,0.2,0.7,0.2,1.3c0,0.8,0.1,1.3,0.1,1.5
			c0,0.3,0,0.5,0.1,0.7s0.2,0.2,0.3,0.3c0.2,0.1,0.5,0.1,1,0.1v1.7h-0.4c-0.6,0-1.1-0.1-1.5-0.2s-0.6-0.3-0.9-0.5s-0.4-0.5-0.5-0.9
			c-0.1-0.4-0.1-0.9-0.1-1.7c0-0.9,0-1.5-0.1-1.7c-0.1-0.4-0.3-0.7-0.5-0.8C59.5,187.7,59.2,187.6,58.8,187.6z"/>
		<path d="M64.5,187.6v-1.7c0.3,0,0.6-0.1,0.8-0.2s0.3-0.2,0.5-0.4c0.1-0.2,0.2-0.5,0.3-0.8c0-0.2,0.1-0.6,0.1-1.2
			c0-0.9,0-1.6,0.1-1.9c0.1-0.4,0.2-0.7,0.5-0.9c0.2-0.2,0.6-0.4,1-0.5c0.3-0.1,0.8-0.1,1.4-0.1h0.4v1.7c-0.5,0-0.9,0-1,0.1
			c-0.2,0.1-0.3,0.2-0.3,0.3c-0.1,0.1-0.1,0.3-0.1,0.6c0,0.3,0,0.9-0.1,1.7c0,0.5-0.1,0.9-0.2,1.2s-0.2,0.5-0.4,0.7
			c-0.2,0.2-0.4,0.4-0.7,0.6c0.3,0.2,0.5,0.4,0.7,0.6c0.2,0.2,0.3,0.5,0.4,0.8c0.1,0.3,0.2,0.7,0.2,1.3c0,0.8,0.1,1.3,0.1,1.5
			c0,0.3,0,0.5,0.1,0.7s0.2,0.2,0.3,0.3c0.2,0.1,0.5,0.1,1,0.1v1.7H69c-0.6,0-1.1-0.1-1.5-0.2s-0.6-0.3-0.9-0.5s-0.4-0.5-0.5-0.9
			c-0.1-0.4-0.1-0.9-0.1-1.7c0-0.9,0-1.5-0.1-1.7c-0.1-0.4-0.3-0.7-0.5-0.8C65.3,187.7,64.9,187.6,64.5,187.6z"/>
		<path d="M73.3,189v-3c-0.9-0.3-1.6-0.7-2.1-1.2c-0.4-0.5-0.7-1.2-0.7-2c0-0.8,0.2-1.4,0.7-2c0.5-0.5,1.2-0.8,2-0.9v-0.7h1v0.7
			c0.8,0.1,1.4,0.4,1.8,0.8c0.5,0.4,0.7,1,0.9,1.7l-1.8,0.2c-0.1-0.6-0.4-0.9-0.9-1.2v2.8c1.2,0.3,1.9,0.7,2.4,1.2
			c0.4,0.5,0.6,1.1,0.6,1.9c0,0.9-0.3,1.6-0.8,2.2c-0.5,0.6-1.3,1-2.2,1.1v1.3h-1v-1.3c-0.8-0.1-1.5-0.4-2-0.9
			c-0.5-0.5-0.8-1.2-1-2.2l1.9-0.2c0.1,0.4,0.2,0.7,0.4,1C72.8,188.7,73.1,188.9,73.3,189z M73.3,181.4c-0.3,0.1-0.5,0.3-0.7,0.5
			s-0.3,0.5-0.3,0.8c0,0.3,0.1,0.5,0.2,0.7c0.2,0.2,0.4,0.4,0.7,0.5V181.4z M74.4,189.1c0.4-0.1,0.7-0.2,0.9-0.5
			c0.2-0.3,0.3-0.6,0.3-0.9c0-0.3-0.1-0.6-0.3-0.8s-0.5-0.4-0.9-0.5V189.1z"/>
		<path d="M81.1,180v3.9c0.7-0.8,1.4-1.1,2.3-1.1c0.5,0,0.9,0.1,1.3,0.3s0.7,0.4,0.8,0.7c0.2,0.3,0.3,0.6,0.4,0.9s0.1,0.8,0.1,1.5
			v4.5h-2v-4c0-0.8,0-1.3-0.1-1.5s-0.2-0.4-0.4-0.5s-0.4-0.2-0.7-0.2c-0.3,0-0.6,0.1-0.9,0.2s-0.5,0.4-0.6,0.7
			c-0.1,0.3-0.2,0.8-0.2,1.5v3.8h-2V180H81.1z"/>
		<path d="M92.5,188.1l2,0.3c-0.3,0.7-0.7,1.3-1.2,1.7c-0.6,0.4-1.3,0.6-2.1,0.6c-1.3,0-2.3-0.4-2.9-1.3c-0.5-0.7-0.8-1.6-0.8-2.6
			c0-1.3,0.3-2.3,1-3s1.5-1.1,2.5-1.1c1.1,0,2,0.4,2.7,1.1c0.7,0.8,1,1.9,0.9,3.4h-5.1c0,0.6,0.2,1.1,0.5,1.4
			c0.3,0.3,0.7,0.5,1.2,0.5c0.3,0,0.6-0.1,0.8-0.3S92.4,188.5,92.5,188.1z M92.6,186.1c0-0.6-0.2-1-0.5-1.3c-0.3-0.3-0.6-0.5-1-0.5
			c-0.4,0-0.8,0.2-1.1,0.5s-0.4,0.8-0.4,1.3H92.6z"/>
		<path d="M96.2,181.9V180h2v1.9H96.2z M96.2,190.6v-7.6h2v7.6H96.2z"/>
		<path d="M100.1,191.1l2.3,0.3c0,0.3,0.1,0.5,0.3,0.6c0.2,0.1,0.5,0.2,0.9,0.2c0.5,0,0.9-0.1,1.2-0.2c0.2-0.1,0.3-0.3,0.4-0.5
			c0.1-0.2,0.1-0.5,0.1-0.9v-1.1c-0.6,0.8-1.4,1.2-2.3,1.2c-1,0-1.8-0.4-2.4-1.3c-0.5-0.7-0.7-1.5-0.7-2.6c0-1.3,0.3-2.3,0.9-2.9
			s1.4-1,2.3-1c0.9,0,1.7,0.4,2.3,1.2v-1.1h1.9v6.9c0,0.9-0.1,1.6-0.2,2c-0.1,0.4-0.4,0.8-0.6,1.1c-0.3,0.3-0.6,0.5-1.1,0.6
			c-0.4,0.1-1,0.2-1.7,0.2c-1.3,0-2.2-0.2-2.8-0.7c-0.5-0.4-0.8-1-0.8-1.7C100.1,191.2,100.1,191.2,100.1,191.1z M101.9,186.6
			c0,0.8,0.2,1.4,0.5,1.8s0.7,0.6,1.2,0.6c0.5,0,0.9-0.2,1.3-0.6c0.3-0.4,0.5-1,0.5-1.7c0-0.8-0.2-1.4-0.5-1.8
			c-0.3-0.4-0.7-0.6-1.2-0.6c-0.5,0-0.9,0.2-1.2,0.6C102.1,185.2,101.9,185.8,101.9,186.6z"/>
		<path d="M111.3,180v3.9c0.7-0.8,1.4-1.1,2.3-1.1c0.5,0,0.9,0.1,1.3,0.3s0.7,0.4,0.8,0.7c0.2,0.3,0.3,0.6,0.4,0.9s0.1,0.8,0.1,1.5
			v4.5h-2v-4c0-0.8,0-1.3-0.1-1.5s-0.2-0.4-0.4-0.5s-0.4-0.2-0.7-0.2c-0.3,0-0.6,0.1-0.9,0.2s-0.5,0.4-0.6,0.7
			c-0.1,0.3-0.2,0.8-0.2,1.5v3.8h-2V180H111.3z"/>
		<path d="M121.8,182.9v1.6h-1.4v3.1c0,0.6,0,1,0,1.1s0.1,0.2,0.2,0.3c0.1,0.1,0.2,0.1,0.3,0.1c0.2,0,0.5-0.1,0.8-0.2l0.2,1.6
			c-0.5,0.2-1,0.3-1.6,0.3c-0.4,0-0.7-0.1-1-0.2s-0.5-0.3-0.6-0.5s-0.2-0.5-0.3-0.8c0-0.2-0.1-0.7-0.1-1.4v-3.3h-0.9v-1.6h0.9v-1.5
			l2-1.2v2.7H121.8z"/>
		<path d="M127.4,187.6c-0.4,0-0.6,0.1-0.8,0.2c-0.2,0.1-0.3,0.2-0.5,0.4c-0.1,0.2-0.2,0.5-0.3,0.8c0,0.2-0.1,0.6-0.1,1.2
			c0,0.9,0,1.6-0.1,1.9c-0.1,0.4-0.2,0.7-0.5,0.9s-0.6,0.4-1,0.5c-0.3,0.1-0.8,0.1-1.4,0.1h-0.4v-1.7c0.5,0,0.8,0,1-0.1
			c0.2-0.1,0.3-0.2,0.3-0.3s0.1-0.3,0.1-0.6s0-0.9,0.1-1.7c0-0.5,0.1-0.9,0.2-1.2s0.2-0.6,0.4-0.8c0.2-0.2,0.4-0.4,0.7-0.5
			c-0.4-0.2-0.6-0.5-0.8-0.7c-0.2-0.3-0.4-0.7-0.5-1.2c-0.1-0.3-0.1-1.1-0.1-2.2c0-0.4,0-0.6-0.1-0.7c-0.1-0.1-0.2-0.2-0.3-0.3
			c-0.2-0.1-0.5-0.1-1-0.1v-1.7h0.4c0.6,0,1.1,0,1.5,0.2s0.6,0.3,0.9,0.5c0.2,0.2,0.4,0.5,0.5,0.9c0.1,0.4,0.1,0.9,0.1,1.7
			c0,0.9,0,1.5,0.1,1.7c0.1,0.4,0.3,0.7,0.5,0.8s0.5,0.3,1,0.3V187.6z"/>
		<path d="M133.1,187.6c-0.4,0-0.6,0.1-0.8,0.2c-0.2,0.1-0.3,0.2-0.5,0.4c-0.1,0.2-0.2,0.5-0.3,0.8c0,0.2-0.1,0.6-0.1,1.2
			c0,0.9,0,1.6-0.1,1.9c-0.1,0.4-0.2,0.7-0.5,0.9s-0.6,0.4-1,0.5c-0.3,0.1-0.8,0.1-1.4,0.1h-0.4v-1.7c0.5,0,0.8,0,1-0.1
			c0.2-0.1,0.3-0.2,0.3-0.3s0.1-0.3,0.1-0.6s0-0.9,0.1-1.7c0-0.5,0.1-0.9,0.2-1.2s0.2-0.6,0.4-0.8c0.2-0.2,0.4-0.4,0.7-0.5
			c-0.4-0.2-0.6-0.5-0.8-0.7c-0.2-0.3-0.4-0.7-0.5-1.2c-0.1-0.3-0.1-1.1-0.1-2.2c0-0.4,0-0.6-0.1-0.7c-0.1-0.1-0.2-0.2-0.3-0.3
			c-0.2-0.1-0.5-0.1-1-0.1v-1.7h0.4c0.6,0,1.1,0,1.5,0.2s0.6,0.3,0.9,0.5c0.2,0.2,0.4,0.5,0.5,0.9c0.1,0.4,0.1,0.9,0.1,1.7
			c0,0.9,0,1.5,0.1,1.7c0.1,0.4,0.3,0.7,0.5,0.8s0.5,0.3,1,0.3V187.6z"/>
	</g>
	<g class="st2">
		<path d="M17.7,164.4v-10.5h3.6c0.8,0,1.4,0,1.9,0.2c0.6,0.1,1.1,0.4,1.5,0.8c0.6,0.5,1,1.1,1.2,1.8c0.3,0.7,0.4,1.6,0.4,2.5
			c0,0.8-0.1,1.5-0.3,2.1s-0.4,1.1-0.7,1.5c-0.3,0.4-0.6,0.7-1,1c-0.3,0.2-0.8,0.4-1.3,0.5c-0.5,0.1-1.1,0.2-1.7,0.2H17.7z
			 M19.1,163.2h2.3c0.7,0,1.2-0.1,1.6-0.2s0.7-0.3,0.9-0.5c0.3-0.3,0.6-0.8,0.8-1.3c0.2-0.6,0.3-1.2,0.3-2c0-1.1-0.2-1.9-0.5-2.5
			c-0.4-0.6-0.8-1-1.3-1.2c-0.4-0.1-1-0.2-1.8-0.2h-2.2V163.2z"/>
		<path d="M28.4,164.4v-10.5H32c0.8,0,1.4,0,1.9,0.2c0.6,0.1,1.1,0.4,1.5,0.8c0.6,0.5,1,1.1,1.2,1.8c0.3,0.7,0.4,1.6,0.4,2.5
			c0,0.8-0.1,1.5-0.3,2.1s-0.4,1.1-0.7,1.5c-0.3,0.4-0.6,0.7-1,1c-0.3,0.2-0.8,0.4-1.3,0.5c-0.5,0.1-1.1,0.2-1.7,0.2H28.4z
			 M29.8,163.2H32c0.7,0,1.2-0.1,1.6-0.2s0.7-0.3,0.9-0.5c0.3-0.3,0.6-0.8,0.8-1.3c0.2-0.6,0.3-1.2,0.3-2c0-1.1-0.2-1.9-0.5-2.5
			c-0.4-0.6-0.8-1-1.3-1.2c-0.4-0.1-1-0.2-1.8-0.2h-2.2V163.2z"/>
		<path d="M39,164.4v-10.5h1.4l5.5,8.3v-8.3h1.3v10.5h-1.4l-5.5-8.3v8.3H39z"/>
		<path d="M49.8,158.3v-1.5h1.5v1.5H49.8z M49.8,164.4V163h1.5v1.5H49.8z"/>
	</g>
	<g class="st2">
		<path d="M57.1,161.5v-1.7c0.3,0,0.6-0.1,0.8-0.2s0.3-0.2,0.5-0.4c0.1-0.2,0.2-0.5,0.3-0.8c0-0.2,0.1-0.6,0.1-1.2
			c0-0.9,0-1.6,0.1-1.9c0.1-0.4,0.2-0.7,0.5-0.9c0.2-0.2,0.6-0.4,1-0.5c0.3-0.1,0.8-0.1,1.4-0.1H62v1.7c-0.5,0-0.9,0-1,0.1
			c-0.2,0.1-0.3,0.2-0.3,0.3c-0.1,0.1-0.1,0.3-0.1,0.6c0,0.3,0,0.9-0.1,1.7c0,0.5-0.1,0.9-0.2,1.2s-0.2,0.5-0.4,0.7
			c-0.2,0.2-0.4,0.4-0.7,0.6c0.3,0.2,0.5,0.4,0.7,0.6c0.2,0.2,0.3,0.5,0.4,0.8c0.1,0.3,0.2,0.7,0.2,1.3c0,0.8,0.1,1.3,0.1,1.5
			c0,0.3,0,0.5,0.1,0.7s0.2,0.2,0.3,0.3c0.2,0.1,0.5,0.1,1,0.1v1.7h-0.4c-0.6,0-1.1-0.1-1.5-0.2s-0.6-0.3-0.9-0.5s-0.4-0.5-0.5-0.9
			c-0.1-0.4-0.1-0.9-0.1-1.7c0-0.9,0-1.5-0.1-1.7c-0.1-0.4-0.3-0.7-0.5-0.8C57.9,161.6,57.6,161.5,57.1,161.5z"/>
		<path d="M62.8,161.5v-1.7c0.3,0,0.6-0.1,0.8-0.2s0.3-0.2,0.5-0.4c0.1-0.2,0.2-0.5,0.3-0.8c0-0.2,0.1-0.6,0.1-1.2
			c0-0.9,0-1.6,0.1-1.9c0.1-0.4,0.2-0.7,0.5-0.9c0.2-0.2,0.6-0.4,1-0.5c0.3-0.1,0.8-0.1,1.4-0.1h0.4v1.7c-0.5,0-0.9,0-1,0.1
			c-0.2,0.1-0.3,0.2-0.3,0.3c-0.1,0.1-0.1,0.3-0.1,0.6c0,0.3,0,0.9-0.1,1.7c0,0.5-0.1,0.9-0.2,1.2s-0.2,0.5-0.4,0.7
			c-0.2,0.2-0.4,0.4-0.7,0.6c0.3,0.2,0.5,0.4,0.7,0.6c0.2,0.2,0.3,0.5,0.4,0.8c0.1,0.3,0.2,0.7,0.2,1.3c0,0.8,0.1,1.3,0.1,1.5
			c0,0.3,0,0.5,0.1,0.7s0.2,0.2,0.3,0.3c0.2,0.1,0.5,0.1,1,0.1v1.7h-0.4c-0.6,0-1.1-0.1-1.5-0.2s-0.6-0.3-0.9-0.5s-0.4-0.5-0.5-0.9
			c-0.1-0.4-0.1-0.9-0.1-1.7c0-0.9,0-1.5-0.1-1.7c-0.1-0.4-0.3-0.7-0.5-0.8C63.6,161.6,63.3,161.5,62.8,161.5z"/>
		<path d="M75.8,162.9v-3c-0.9-0.3-1.6-0.7-2.1-1.2c-0.4-0.5-0.7-1.2-0.7-2c0-0.8,0.2-1.4,0.7-2c0.5-0.5,1.2-0.8,2-0.9V153h1v0.7
			c0.8,0.1,1.4,0.4,1.8,0.8c0.5,0.4,0.7,1,0.9,1.7l-1.8,0.2c-0.1-0.6-0.4-0.9-0.9-1.2v2.8c1.2,0.3,1.9,0.7,2.4,1.2
			c0.4,0.5,0.6,1.1,0.6,1.9c0,0.9-0.3,1.6-0.8,2.2c-0.5,0.6-1.3,1-2.2,1.1v1.3h-1v-1.3c-0.8-0.1-1.5-0.4-2-0.9
			c-0.5-0.5-0.8-1.2-1-2.2l1.9-0.2c0.1,0.4,0.2,0.7,0.4,1C75.3,162.6,75.5,162.8,75.8,162.9z M75.8,155.3c-0.3,0.1-0.5,0.3-0.7,0.5
			s-0.3,0.5-0.3,0.8c0,0.3,0.1,0.5,0.2,0.7c0.2,0.2,0.4,0.4,0.7,0.5V155.3z M76.8,163c0.4-0.1,0.7-0.2,0.9-0.5
			c0.2-0.3,0.3-0.6,0.3-0.9c0-0.3-0.1-0.6-0.3-0.8s-0.5-0.4-0.9-0.5V163z"/>
		<path d="M81.4,164.4v-10.5h2v3.8c0.6-0.7,1.4-1.1,2.2-1.1c0.9,0,1.7,0.3,2.3,1c0.6,0.7,0.9,1.6,0.9,2.9c0,1.3-0.3,2.3-0.9,3
			s-1.4,1.1-2.3,1.1c-0.4,0-0.9-0.1-1.3-0.3c-0.4-0.2-0.8-0.5-1.1-1v1.1H81.4z M83.4,160.5c0,0.8,0.1,1.4,0.4,1.8
			c0.3,0.5,0.8,0.8,1.4,0.8c0.4,0,0.8-0.2,1.1-0.6s0.5-1,0.5-1.8c0-0.9-0.2-1.5-0.5-1.9c-0.3-0.4-0.7-0.6-1.2-0.6
			c-0.5,0-0.9,0.2-1.2,0.6C83.6,159.1,83.4,159.7,83.4,160.5z"/>
		<path d="M90.5,155.8v-1.9h2v1.9H90.5z M90.5,164.4v-7.6h2v7.6H90.5z"/>
		<path d="M96.5,164.4h-2v-7.6h1.9v1.1c0.3-0.5,0.6-0.9,0.9-1c0.3-0.2,0.5-0.2,0.9-0.2c0.5,0,0.9,0.1,1.3,0.4l-0.6,1.8
			c-0.3-0.2-0.7-0.3-0.9-0.3c-0.3,0-0.5,0.1-0.7,0.2c-0.2,0.2-0.4,0.4-0.5,0.8c-0.1,0.4-0.2,1.3-0.2,2.6V164.4z"/>
		<path d="M103.8,156.8v1.6h-1.4v3.1c0,0.6,0,1,0,1.1s0.1,0.2,0.2,0.3c0.1,0.1,0.2,0.1,0.3,0.1c0.2,0,0.5-0.1,0.8-0.2l0.2,1.6
			c-0.5,0.2-1,0.3-1.6,0.3c-0.4,0-0.7-0.1-1-0.2s-0.5-0.3-0.6-0.5s-0.2-0.5-0.3-0.8c0-0.2-0.1-0.7-0.1-1.4v-3.3h-0.9v-1.6h0.9v-1.5
			l2-1.2v2.7H103.8z"/>
		<path d="M107.2,153.9v3.9c0.7-0.8,1.4-1.1,2.3-1.1c0.5,0,0.9,0.1,1.3,0.3s0.7,0.4,0.8,0.7c0.2,0.3,0.3,0.6,0.4,0.9
			s0.1,0.8,0.1,1.5v4.5h-2v-4c0-0.8,0-1.3-0.1-1.5s-0.2-0.4-0.4-0.5s-0.4-0.2-0.7-0.2c-0.3,0-0.6,0.1-0.9,0.2s-0.5,0.4-0.6,0.7
			c-0.1,0.3-0.2,0.8-0.2,1.5v3.8h-2v-10.5H107.2z"/>
		<path d="M121.2,164.4h-1.9v-1.1c-0.3,0.4-0.7,0.8-1.1,1s-0.9,0.3-1.3,0.3c-0.9,0-1.6-0.4-2.3-1.1c-0.6-0.7-0.9-1.7-0.9-3
			c0-1.3,0.3-2.3,0.9-3c0.6-0.7,1.4-1,2.3-1c0.9,0,1.6,0.4,2.2,1.1v-3.8h2V164.4z M115.8,160.5c0,0.8,0.1,1.4,0.3,1.8
			c0.3,0.5,0.8,0.8,1.4,0.8c0.5,0,0.9-0.2,1.2-0.6c0.3-0.4,0.5-1,0.5-1.8c0-0.9-0.2-1.5-0.5-1.9c-0.3-0.4-0.7-0.6-1.2-0.6
			c-0.5,0-0.9,0.2-1.2,0.6C116,159.1,115.8,159.7,115.8,160.5z"/>
		<path d="M124.7,159.1l-1.8-0.3c0.2-0.7,0.6-1.3,1.1-1.6s1.3-0.5,2.2-0.5c0.9,0,1.6,0.1,2,0.3c0.4,0.2,0.8,0.5,0.9,0.8
			c0.2,0.3,0.3,0.9,0.3,1.8l0,2.4c0,0.7,0,1.2,0.1,1.5c0.1,0.3,0.2,0.7,0.4,1h-2c-0.1-0.1-0.1-0.3-0.2-0.6c0-0.1-0.1-0.2-0.1-0.2
			c-0.3,0.3-0.7,0.6-1.1,0.8s-0.8,0.3-1.3,0.3c-0.8,0-1.4-0.2-1.9-0.6c-0.5-0.4-0.7-1-0.7-1.6c0-0.4,0.1-0.8,0.3-1.2
			c0.2-0.3,0.5-0.6,0.9-0.8s0.9-0.3,1.6-0.5c0.9-0.2,1.6-0.3,2-0.5v-0.2c0-0.4-0.1-0.7-0.3-0.8c-0.2-0.2-0.6-0.2-1.1-0.2
			c-0.4,0-0.6,0.1-0.8,0.2C125,158.5,124.8,158.8,124.7,159.1z M127.4,160.8c-0.3,0.1-0.7,0.2-1.2,0.3c-0.6,0.1-0.9,0.2-1.1,0.4
			c-0.3,0.2-0.4,0.4-0.4,0.7c0,0.3,0.1,0.5,0.3,0.7s0.5,0.3,0.8,0.3c0.4,0,0.7-0.1,1-0.4c0.2-0.2,0.4-0.4,0.5-0.7
			c0.1-0.2,0.1-0.5,0.1-1V160.8z"/>
		<path d="M134.9,156.8v1.6h-1.4v3.1c0,0.6,0,1,0,1.1s0.1,0.2,0.2,0.3c0.1,0.1,0.2,0.1,0.3,0.1c0.2,0,0.5-0.1,0.8-0.2l0.2,1.6
			c-0.5,0.2-1,0.3-1.6,0.3c-0.4,0-0.7-0.1-1-0.2s-0.5-0.3-0.6-0.5s-0.2-0.5-0.3-0.8c0-0.2-0.1-0.7-0.1-1.4v-3.3h-0.9v-1.6h0.9v-1.5
			l2-1.2v2.7H134.9z"/>
		<path d="M140.7,162l2,0.3c-0.3,0.7-0.7,1.3-1.2,1.7c-0.6,0.4-1.3,0.6-2.1,0.6c-1.3,0-2.3-0.4-2.9-1.3c-0.5-0.7-0.8-1.6-0.8-2.6
			c0-1.3,0.3-2.3,1-3s1.5-1.1,2.5-1.1c1.1,0,2,0.4,2.7,1.1c0.7,0.8,1,1.9,0.9,3.4h-5.1c0,0.6,0.2,1.1,0.5,1.4
			c0.3,0.3,0.7,0.5,1.2,0.5c0.3,0,0.6-0.1,0.8-0.3S140.6,162.4,140.7,162z M140.8,160c0-0.6-0.2-1-0.5-1.3c-0.3-0.3-0.6-0.5-1-0.5
			c-0.4,0-0.8,0.2-1.1,0.5s-0.4,0.8-0.4,1.3H140.8z"/>
		<path d="M148.7,161.5c-0.4,0-0.6,0.1-0.8,0.2c-0.2,0.1-0.3,0.2-0.5,0.4c-0.1,0.2-0.2,0.5-0.3,0.8c0,0.2-0.1,0.6-0.1,1.2
			c0,0.9,0,1.6-0.1,1.9c-0.1,0.4-0.2,0.7-0.5,0.9s-0.6,0.4-1,0.5c-0.3,0.1-0.8,0.1-1.4,0.1h-0.4v-1.7c0.5,0,0.8,0,1-0.1
			c0.2-0.1,0.3-0.2,0.3-0.3s0.1-0.3,0.1-0.6s0-0.9,0.1-1.7c0-0.5,0.1-0.9,0.2-1.2s0.2-0.6,0.4-0.8c0.2-0.2,0.4-0.4,0.7-0.5
			c-0.4-0.2-0.6-0.5-0.8-0.7c-0.2-0.3-0.4-0.7-0.5-1.2c-0.1-0.3-0.1-1.1-0.1-2.2c0-0.4,0-0.6-0.1-0.7c-0.1-0.1-0.2-0.2-0.3-0.3
			c-0.2-0.1-0.5-0.1-1-0.1v-1.7h0.4c0.6,0,1.1,0,1.5,0.2s0.6,0.3,0.9,0.5c0.2,0.2,0.4,0.5,0.5,0.9c0.1,0.4,0.1,0.9,0.1,1.7
			c0,0.9,0,1.5,0.1,1.7c0.1,0.4,0.3,0.7,0.5,0.8s0.5,0.3,1,0.3V161.5z"/>
		<path d="M154.4,161.5c-0.4,0-0.6,0.1-0.8,0.2c-0.2,0.1-0.3,0.2-0.5,0.4c-0.1,0.2-0.2,0.5-0.3,0.8c0,0.2-0.1,0.6-0.1,1.2
			c0,0.9,0,1.6-0.1,1.9c-0.1,0.4-0.2,0.7-0.5,0.9s-0.6,0.4-1,0.5c-0.3,0.1-0.8,0.1-1.4,0.1h-0.4v-1.7c0.5,0,0.8,0,1-0.1
			c0.2-0.1,0.3-0.2,0.3-0.3s0.1-0.3,0.1-0.6s0-0.9,0.1-1.7c0-0.5,0.1-0.9,0.2-1.2s0.2-0.6,0.4-0.8c0.2-0.2,0.4-0.4,0.7-0.5
			c-0.4-0.2-0.6-0.5-0.8-0.7c-0.2-0.3-0.4-0.7-0.5-1.2c-0.1-0.3-0.1-1.1-0.1-2.2c0-0.4,0-0.6-0.1-0.7c-0.1-0.1-0.2-0.2-0.3-0.3
			c-0.2-0.1-0.5-0.1-1-0.1v-1.7h0.4c0.6,0,1.1,0,1.5,0.2s0.6,0.3,0.9,0.5c0.2,0.2,0.4,0.5,0.5,0.9c0.1,0.4,0.1,0.9,0.1,1.7
			c0,0.9,0,1.5,0.1,1.7c0.1,0.4,0.3,0.7,0.5,0.8s0.5,0.3,1,0.3V161.5z"/>
	</g>
	<g class="st2">
		<path d="M17.7,136.6V126h4c0.7,0,1.2,0,1.6,0.1c0.5,0.1,1,0.3,1.3,0.5s0.6,0.6,0.8,1c0.2,0.4,0.3,0.9,0.3,1.4
			c0,0.9-0.3,1.7-0.9,2.3c-0.6,0.6-1.6,0.9-3.1,0.9h-2.7v4.3H17.7z M19.1,131.1h2.7c0.9,0,1.5-0.2,1.9-0.5c0.4-0.3,0.6-0.8,0.6-1.4
			c0-0.4-0.1-0.8-0.3-1.1c-0.2-0.3-0.5-0.5-0.9-0.6c-0.2-0.1-0.7-0.1-1.3-0.1h-2.7V131.1z"/>
		<path d="M27.4,136.6v-7.6h1.2v1.2c0.3-0.5,0.6-0.9,0.8-1.1c0.3-0.2,0.5-0.3,0.8-0.3c0.4,0,0.9,0.1,1.3,0.4l-0.4,1.2
			c-0.3-0.2-0.6-0.3-0.9-0.3c-0.3,0-0.5,0.1-0.8,0.3c-0.2,0.2-0.4,0.4-0.5,0.7c-0.1,0.5-0.2,1-0.2,1.5v4H27.4z"/>
		<path d="M37.5,134.1l1.3,0.2c-0.2,0.8-0.6,1.4-1.2,1.8c-0.6,0.4-1.3,0.6-2.2,0.6c-1.1,0-2-0.3-2.7-1c-0.7-0.7-1-1.7-1-2.9
			c0-1.3,0.3-2.3,1-3s1.5-1.1,2.6-1.1c1,0,1.9,0.3,2.5,1s1,1.7,1,2.9c0,0.1,0,0.2,0,0.3h-5.7c0,0.8,0.3,1.5,0.7,1.9
			c0.4,0.4,1,0.7,1.6,0.7c0.5,0,0.9-0.1,1.2-0.4C37,135.1,37.3,134.7,37.5,134.1z M33.3,132h4.3c-0.1-0.6-0.2-1.1-0.5-1.4
			c-0.4-0.5-0.9-0.7-1.6-0.7c-0.6,0-1.1,0.2-1.5,0.6C33.5,130.8,33.3,131.4,33.3,132z M34.7,128l1-2h1.7l-1.6,2H34.7z"/>
		<path d="M40.5,136.6v-7.6h1.2v1.1c0.6-0.8,1.4-1.3,2.4-1.3c0.5,0,0.9,0.1,1.3,0.2c0.4,0.2,0.7,0.4,0.9,0.7c0.2,0.3,0.3,0.6,0.4,1
			c0,0.2,0.1,0.7,0.1,1.3v4.7h-1.3v-4.6c0-0.5-0.1-0.9-0.2-1.2s-0.3-0.5-0.5-0.6c-0.3-0.2-0.6-0.2-0.9-0.2c-0.6,0-1,0.2-1.4,0.5
			c-0.4,0.4-0.6,1-0.6,2v4.2H40.5z"/>
		<path d="M48.2,132.8c0-1.4,0.4-2.5,1.2-3.1c0.7-0.6,1.5-0.8,2.4-0.8c1,0,1.9,0.3,2.6,1s1,1.6,1,2.9c0,1-0.1,1.8-0.4,2.3
			s-0.7,1-1.3,1.3c-0.6,0.3-1.2,0.5-1.8,0.5c-1.1,0-1.9-0.3-2.6-1C48.5,135,48.2,134.1,48.2,132.8z M49.5,132.8c0,1,0.2,1.7,0.6,2.2
			c0.4,0.5,1,0.7,1.6,0.7c0.6,0,1.2-0.2,1.6-0.7c0.4-0.5,0.6-1.2,0.6-2.2c0-0.9-0.2-1.7-0.6-2.1s-1-0.7-1.6-0.7
			c-0.6,0-1.2,0.2-1.6,0.7C49.7,131.1,49.5,131.8,49.5,132.8z"/>
		<path d="M56.9,136.6v-7.6H58v1.1c0.2-0.4,0.6-0.7,1-0.9c0.4-0.2,0.9-0.3,1.4-0.3c0.6,0,1,0.1,1.4,0.4c0.4,0.2,0.6,0.6,0.8,1
			c0.6-0.9,1.4-1.3,2.4-1.3c0.8,0,1.3,0.2,1.7,0.6c0.4,0.4,0.6,1.1,0.6,1.9v5.2h-1.3v-4.8c0-0.5,0-0.9-0.1-1.1
			c-0.1-0.2-0.2-0.4-0.5-0.6s-0.5-0.2-0.8-0.2c-0.5,0-1,0.2-1.3,0.5c-0.4,0.4-0.5,0.9-0.5,1.7v4.4h-1.3v-5c0-0.6-0.1-1-0.3-1.3
			c-0.2-0.3-0.6-0.4-1-0.4c-0.4,0-0.7,0.1-1,0.3s-0.5,0.5-0.7,0.8c-0.1,0.4-0.2,0.9-0.2,1.6v4H56.9z"/>
		<path d="M69.5,130.4v-1.5H71v1.5H69.5z M69.5,136.6v-1.5H71v1.5H69.5z"/>
	</g>
	<g class="st2">
		<path d="M76.8,133.6v-1.7c0.3,0,0.6-0.1,0.8-0.2s0.3-0.2,0.5-0.4s0.2-0.5,0.3-0.8c0-0.2,0.1-0.6,0.1-1.2c0-0.9,0-1.6,0.1-1.9
			c0.1-0.4,0.2-0.7,0.5-0.9c0.2-0.2,0.6-0.4,1-0.5c0.3-0.1,0.8-0.1,1.4-0.1h0.4v1.7c-0.5,0-0.9,0-1,0.1c-0.2,0.1-0.3,0.2-0.3,0.3
			c-0.1,0.1-0.1,0.3-0.1,0.6c0,0.3,0,0.9-0.1,1.7c0,0.5-0.1,0.9-0.2,1.2s-0.2,0.5-0.4,0.7s-0.4,0.4-0.7,0.6c0.3,0.2,0.5,0.4,0.7,0.6
			c0.2,0.2,0.3,0.5,0.4,0.8c0.1,0.3,0.2,0.7,0.2,1.3c0,0.8,0.1,1.3,0.1,1.5c0,0.3,0,0.5,0.1,0.7s0.2,0.2,0.3,0.3
			c0.2,0.1,0.5,0.1,1,0.1v1.7h-0.4c-0.6,0-1.1-0.1-1.5-0.2s-0.6-0.3-0.9-0.5s-0.4-0.5-0.5-0.9c-0.1-0.4-0.1-0.9-0.1-1.7
			c0-0.9,0-1.5-0.1-1.7c-0.1-0.4-0.3-0.7-0.5-0.8S77.2,133.7,76.8,133.6z"/>
		<path d="M82.5,133.6v-1.7c0.3,0,0.6-0.1,0.8-0.2s0.3-0.2,0.5-0.4s0.2-0.5,0.3-0.8c0-0.2,0.1-0.6,0.1-1.2c0-0.9,0-1.6,0.1-1.9
			c0.1-0.4,0.2-0.7,0.5-0.9c0.2-0.2,0.6-0.4,1-0.5c0.3-0.1,0.8-0.1,1.4-0.1h0.4v1.7c-0.5,0-0.9,0-1,0.1c-0.2,0.1-0.3,0.2-0.3,0.3
			c-0.1,0.1-0.1,0.3-0.1,0.6c0,0.3,0,0.9-0.1,1.7c0,0.5-0.1,0.9-0.2,1.2s-0.2,0.5-0.4,0.7s-0.4,0.4-0.7,0.6c0.3,0.2,0.5,0.4,0.7,0.6
			c0.2,0.2,0.3,0.5,0.4,0.8c0.1,0.3,0.2,0.7,0.2,1.3c0,0.8,0.1,1.3,0.1,1.5c0,0.3,0,0.5,0.1,0.7s0.2,0.2,0.3,0.3
			c0.2,0.1,0.5,0.1,1,0.1v1.7H87c-0.6,0-1.1-0.1-1.5-0.2s-0.6-0.3-0.9-0.5s-0.4-0.5-0.5-0.9c-0.1-0.4-0.1-0.9-0.1-1.7
			c0-0.9,0-1.5-0.1-1.7c-0.1-0.4-0.3-0.7-0.5-0.8S82.9,133.7,82.5,133.6z"/>
		<path d="M91.3,135v-3c-0.9-0.3-1.6-0.7-2.1-1.2c-0.4-0.5-0.7-1.2-0.7-2c0-0.8,0.2-1.4,0.7-2c0.5-0.5,1.2-0.8,2-0.9v-0.7h1v0.7
			c0.8,0.1,1.4,0.4,1.8,0.8c0.5,0.4,0.7,1,0.9,1.7l-1.8,0.2c-0.1-0.6-0.4-0.9-0.9-1.2v2.8c1.2,0.3,1.9,0.7,2.4,1.2
			c0.4,0.5,0.6,1.1,0.6,1.9c0,0.9-0.3,1.6-0.8,2.2c-0.5,0.6-1.3,1-2.2,1.1v1.3h-1v-1.3c-0.8-0.1-1.5-0.4-2-0.9
			c-0.5-0.5-0.8-1.2-1-2.2l1.9-0.2c0.1,0.4,0.2,0.7,0.4,1C90.8,134.7,91.1,134.9,91.3,135z M91.3,127.5c-0.3,0.1-0.5,0.3-0.7,0.5
			c-0.2,0.2-0.3,0.5-0.3,0.8c0,0.3,0.1,0.5,0.2,0.7c0.2,0.2,0.4,0.4,0.7,0.5V127.5z M92.4,135.1c0.4-0.1,0.7-0.2,0.9-0.5
			c0.2-0.3,0.3-0.6,0.3-0.9c0-0.3-0.1-0.6-0.3-0.8s-0.5-0.4-0.9-0.5V135.1z"/>
		<path d="M96.3,134.4l2-0.3c0.1,0.4,0.3,0.7,0.5,0.9c0.3,0.2,0.6,0.3,1.1,0.3c0.5,0,0.9-0.1,1.2-0.3c0.2-0.1,0.3-0.3,0.3-0.5
			c0-0.2,0-0.3-0.1-0.4c-0.1-0.1-0.3-0.2-0.7-0.3c-1.6-0.4-2.7-0.7-3.1-1c-0.6-0.4-0.9-1-0.9-1.7c0-0.7,0.3-1.2,0.8-1.7
			s1.3-0.7,2.4-0.7c1,0,1.8,0.2,2.3,0.5c0.5,0.3,0.9,0.8,1,1.5l-1.9,0.4c-0.1-0.3-0.2-0.5-0.5-0.7c-0.2-0.2-0.6-0.2-1-0.2
			c-0.5,0-0.9,0.1-1.1,0.2c-0.2,0.1-0.2,0.2-0.2,0.4c0,0.1,0.1,0.3,0.2,0.4c0.2,0.1,0.8,0.3,1.9,0.6c1.1,0.2,1.8,0.5,2.3,0.9
			c0.4,0.4,0.6,0.9,0.6,1.5c0,0.7-0.3,1.3-0.9,1.8c-0.6,0.5-1.5,0.8-2.6,0.8c-1,0-1.9-0.2-2.5-0.6C96.9,135.7,96.5,135.1,96.3,134.4
			z"/>
		<path d="M110.3,136.6v-1.1c-0.3,0.4-0.6,0.7-1.1,1s-0.9,0.4-1.4,0.4c-0.5,0-1-0.1-1.4-0.3c-0.4-0.2-0.7-0.5-0.9-0.9
			c-0.2-0.4-0.3-1-0.3-1.7v-4.8h2v3.5c0,1.1,0,1.7,0.1,2s0.2,0.4,0.4,0.6s0.4,0.2,0.7,0.2c0.3,0,0.7-0.1,0.9-0.3s0.5-0.4,0.6-0.7
			c0.1-0.3,0.2-1,0.2-2.1v-3.2h2v7.6H110.3z"/>
		<path d="M116.2,136.6h-2v-7.6h1.9v1.1c0.3-0.5,0.6-0.9,0.9-1c0.3-0.2,0.5-0.2,0.9-0.2c0.5,0,0.9,0.1,1.3,0.4l-0.6,1.8
			c-0.3-0.2-0.7-0.3-0.9-0.3c-0.3,0-0.5,0.1-0.7,0.2c-0.2,0.2-0.4,0.4-0.5,0.8c-0.1,0.4-0.2,1.3-0.2,2.6V136.6z"/>
		<path d="M126.9,136.6h-2v-3.9c0-0.8,0-1.4-0.1-1.6c-0.1-0.2-0.2-0.4-0.4-0.6c-0.2-0.1-0.4-0.2-0.7-0.2c-0.4,0-0.7,0.1-0.9,0.3
			c-0.3,0.2-0.5,0.4-0.6,0.8s-0.2,0.9-0.2,1.8v3.5h-2v-7.6h1.9v1.1c0.7-0.9,1.5-1.3,2.5-1.3c0.4,0,0.9,0.1,1.2,0.2s0.6,0.4,0.8,0.6
			s0.3,0.5,0.4,0.8s0.1,0.8,0.1,1.4V136.6z"/>
		<path d="M130.5,131.3l-1.8-0.3c0.2-0.7,0.6-1.3,1.1-1.6c0.5-0.4,1.3-0.5,2.2-0.5c0.9,0,1.6,0.1,2,0.3c0.4,0.2,0.8,0.5,0.9,0.8
			c0.2,0.3,0.3,0.9,0.3,1.8l0,2.4c0,0.7,0,1.2,0.1,1.5c0.1,0.3,0.2,0.7,0.4,1h-2c-0.1-0.1-0.1-0.3-0.2-0.6c0-0.1-0.1-0.2-0.1-0.2
			c-0.3,0.3-0.7,0.6-1.1,0.8s-0.8,0.3-1.3,0.3c-0.8,0-1.4-0.2-1.9-0.6c-0.5-0.4-0.7-1-0.7-1.6c0-0.4,0.1-0.8,0.3-1.2
			c0.2-0.3,0.5-0.6,0.9-0.8s0.9-0.3,1.6-0.5c0.9-0.2,1.6-0.3,2-0.5v-0.2c0-0.4-0.1-0.7-0.3-0.8s-0.6-0.2-1.1-0.2
			c-0.4,0-0.6,0.1-0.8,0.2C130.8,130.7,130.6,130.9,130.5,131.3z M133.2,132.9c-0.3,0.1-0.7,0.2-1.2,0.3c-0.6,0.1-0.9,0.2-1.1,0.4
			c-0.3,0.2-0.4,0.4-0.4,0.7c0,0.3,0.1,0.5,0.3,0.7s0.5,0.3,0.8,0.3c0.4,0,0.7-0.1,1-0.4c0.2-0.2,0.4-0.4,0.5-0.7
			c0.1-0.2,0.1-0.5,0.1-1V132.9z"/>
		<path d="M137,128.9h1.9v1c0.7-0.8,1.5-1.2,2.4-1.2c0.5,0,0.9,0.1,1.3,0.3c0.4,0.2,0.7,0.5,0.9,0.9c0.3-0.4,0.7-0.7,1.1-0.9
			c0.4-0.2,0.8-0.3,1.2-0.3c0.6,0,1,0.1,1.4,0.3c0.4,0.2,0.7,0.6,0.9,1c0.1,0.3,0.2,0.9,0.2,1.6v4.9h-2v-4.4c0-0.8-0.1-1.2-0.2-1.5
			c-0.2-0.3-0.5-0.4-0.9-0.4c-0.3,0-0.5,0.1-0.8,0.3c-0.2,0.2-0.4,0.4-0.5,0.8c-0.1,0.3-0.2,0.9-0.2,1.6v3.7h-2v-4.2
			c0-0.7,0-1.2-0.1-1.4s-0.2-0.4-0.3-0.5s-0.4-0.2-0.6-0.2c-0.3,0-0.6,0.1-0.8,0.3c-0.2,0.2-0.4,0.4-0.5,0.7s-0.2,0.8-0.2,1.6v3.7
			h-2V128.9z"/>
		<path d="M154.7,134.2l2,0.3c-0.3,0.7-0.7,1.3-1.2,1.7c-0.6,0.4-1.3,0.6-2.1,0.6c-1.3,0-2.3-0.4-2.9-1.3c-0.5-0.7-0.8-1.6-0.8-2.6
			c0-1.3,0.3-2.3,1-3s1.5-1.1,2.5-1.1c1.1,0,2,0.4,2.7,1.1c0.7,0.8,1,1.9,0.9,3.4h-5.1c0,0.6,0.2,1.1,0.5,1.4
			c0.3,0.3,0.7,0.5,1.2,0.5c0.3,0,0.6-0.1,0.8-0.3C154.4,134.8,154.6,134.5,154.7,134.2z M154.8,132.1c0-0.6-0.2-1-0.5-1.3
			c-0.3-0.3-0.6-0.5-1-0.5c-0.4,0-0.8,0.2-1.1,0.5s-0.4,0.8-0.4,1.3H154.8z"/>
		<path d="M162.6,133.6c-0.4,0-0.6,0.1-0.8,0.2c-0.2,0.1-0.3,0.2-0.5,0.4c-0.1,0.2-0.2,0.5-0.3,0.8c0,0.2-0.1,0.6-0.1,1.2
			c0,0.9,0,1.6-0.1,1.9c-0.1,0.4-0.2,0.7-0.5,0.9s-0.6,0.4-1,0.5c-0.3,0.1-0.8,0.1-1.4,0.1h-0.4V138c0.5,0,0.8,0,1-0.1
			c0.2-0.1,0.3-0.2,0.3-0.3s0.1-0.3,0.1-0.6s0-0.9,0.1-1.7c0-0.5,0.1-0.9,0.2-1.2c0.1-0.3,0.2-0.6,0.4-0.8c0.2-0.2,0.4-0.4,0.7-0.5
			c-0.4-0.2-0.6-0.5-0.8-0.7c-0.2-0.3-0.4-0.7-0.5-1.2c-0.1-0.3-0.1-1.1-0.1-2.2c0-0.4,0-0.6-0.1-0.7c-0.1-0.1-0.2-0.2-0.3-0.3
			c-0.2-0.1-0.5-0.1-1-0.1v-1.7h0.4c0.6,0,1.1,0.1,1.5,0.2s0.6,0.3,0.9,0.5c0.2,0.2,0.4,0.5,0.5,0.9c0.1,0.4,0.1,0.9,0.1,1.7
			c0,0.9,0,1.5,0.1,1.7c0.1,0.4,0.3,0.7,0.5,0.8s0.5,0.3,1,0.3V133.6z"/>
		<path d="M168.4,133.6c-0.4,0-0.6,0.1-0.8,0.2c-0.2,0.1-0.3,0.2-0.5,0.4c-0.1,0.2-0.2,0.5-0.3,0.8c0,0.2-0.1,0.6-0.1,1.2
			c0,0.9,0,1.6-0.1,1.9c-0.1,0.4-0.2,0.7-0.5,0.9s-0.6,0.4-1,0.5c-0.3,0.1-0.8,0.1-1.4,0.1h-0.4V138c0.5,0,0.8,0,1-0.1
			c0.2-0.1,0.3-0.2,0.3-0.3s0.1-0.3,0.1-0.6s0-0.9,0.1-1.7c0-0.5,0.1-0.9,0.2-1.2c0.1-0.3,0.2-0.6,0.4-0.8c0.2-0.2,0.4-0.4,0.7-0.5
			c-0.4-0.2-0.6-0.5-0.8-0.7c-0.2-0.3-0.4-0.7-0.5-1.2c-0.1-0.3-0.1-1.1-0.1-2.2c0-0.4,0-0.6-0.1-0.7c-0.1-0.1-0.2-0.2-0.3-0.3
			c-0.2-0.1-0.5-0.1-1-0.1v-1.7h0.4c0.6,0,1.1,0.1,1.5,0.2s0.6,0.3,0.9,0.5c0.2,0.2,0.4,0.5,0.5,0.9c0.1,0.4,0.1,0.9,0.1,1.7
			c0,0.9,0,1.5,0.1,1.7c0.1,0.4,0.3,0.7,0.5,0.8s0.5,0.3,1,0.3V133.6z"/>
	</g>
	
		<image style="overflow:visible;enable-background:new    ;" width="202" height="46" id="image658" xlink:href="5ED781A7.png"  transform="matrix(5.385945e-04 -0.7016 0.6057 6.238592e-04 317.4234 226.0311)">
	</image>
	
		<image style="overflow:visible;enable-background:new    ;" width="539" height="696" id="image672" xlink:href="5ED781A0.png"  transform="matrix(9.175874e-02 0 0 9.175875e-02 250.5799 168.3761)">
	</image>
	<g class="st2">
		<path d="M17.7,213.2l1.3-0.1c0.1,0.5,0.2,1,0.4,1.3c0.2,0.3,0.6,0.6,1.1,0.8s1,0.3,1.6,0.3c0.5,0,1-0.1,1.4-0.2s0.7-0.4,0.9-0.7
			c0.2-0.3,0.3-0.6,0.3-0.9c0-0.3-0.1-0.6-0.3-0.9c-0.2-0.2-0.5-0.5-0.9-0.6c-0.3-0.1-0.9-0.3-1.9-0.5c-1-0.2-1.6-0.5-2-0.7
			c-0.5-0.3-0.9-0.6-1.1-1c-0.2-0.4-0.4-0.8-0.4-1.3c0-0.5,0.2-1,0.5-1.5c0.3-0.5,0.7-0.8,1.3-1.1c0.6-0.2,1.2-0.4,1.9-0.4
			c0.8,0,1.5,0.1,2.1,0.4c0.6,0.3,1.1,0.6,1.4,1.1c0.3,0.5,0.5,1,0.5,1.7l-1.3,0.1c-0.1-0.7-0.3-1.2-0.7-1.5c-0.4-0.3-1-0.5-1.8-0.5
			c-0.8,0-1.5,0.2-1.8,0.5c-0.4,0.3-0.6,0.7-0.6,1.1c0,0.4,0.1,0.7,0.4,0.9c0.3,0.2,1,0.5,2.1,0.8s1.9,0.5,2.3,0.7
			c0.6,0.3,1.1,0.6,1.4,1.1c0.3,0.4,0.4,0.9,0.4,1.5c0,0.6-0.2,1.1-0.5,1.6s-0.8,0.9-1.4,1.2c-0.6,0.3-1.3,0.4-2,0.4
			c-1,0-1.8-0.1-2.4-0.4c-0.6-0.3-1.2-0.7-1.5-1.3S17.7,214,17.7,213.2z"/>
		<path d="M33.1,214.2l1.3,0.2c-0.2,0.8-0.6,1.4-1.2,1.8c-0.6,0.4-1.3,0.6-2.2,0.6c-1.1,0-2-0.3-2.7-1c-0.7-0.7-1-1.7-1-2.9
			c0-1.3,0.3-2.3,1-3s1.5-1.1,2.6-1.1c1,0,1.9,0.3,2.5,1s1,1.7,1,2.9c0,0.1,0,0.2,0,0.3h-5.7c0,0.8,0.3,1.5,0.7,1.9
			c0.4,0.4,1,0.7,1.6,0.7c0.5,0,0.9-0.1,1.2-0.4C32.6,215.1,32.9,214.7,33.1,214.2z M28.8,212.1h4.3c-0.1-0.6-0.2-1.1-0.5-1.4
			c-0.4-0.5-0.9-0.7-1.6-0.7c-0.6,0-1.1,0.2-1.5,0.6C29.1,210.9,28.9,211.4,28.8,212.1z"/>
		<path d="M35.2,216.6l2.8-4l-2.6-3.7H37l1.2,1.8c0.2,0.3,0.4,0.6,0.5,0.9c0.2-0.3,0.4-0.6,0.6-0.8l1.3-1.8h1.5l-2.6,3.6l2.8,4h-1.6
			l-1.6-2.4l-0.4-0.6l-2,3H35.2z"/>
		<path d="M48.6,214.2l1.3,0.2c-0.2,0.8-0.6,1.4-1.2,1.8c-0.6,0.4-1.3,0.6-2.2,0.6c-1.1,0-2-0.3-2.7-1c-0.7-0.7-1-1.7-1-2.9
			c0-1.3,0.3-2.3,1-3s1.5-1.1,2.6-1.1c1,0,1.9,0.3,2.5,1s1,1.7,1,2.9c0,0.1,0,0.2,0,0.3h-5.7c0,0.8,0.3,1.5,0.7,1.9
			c0.4,0.4,1,0.7,1.6,0.7c0.5,0,0.9-0.1,1.2-0.4C48.2,215.1,48.4,214.7,48.6,214.2z M44.4,212.1h4.3c-0.1-0.6-0.2-1.1-0.5-1.4
			c-0.4-0.5-0.9-0.7-1.6-0.7c-0.6,0-1.1,0.2-1.5,0.6C44.7,210.9,44.4,211.4,44.4,212.1z"/>
		<path d="M52,210.5V209h1.5v1.5H52z M52,216.6v-1.5h1.5v1.5H52z"/>
	</g>
	<g class="st2">
		<path d="M59.2,213.7V212c0.3,0,0.6-0.1,0.8-0.2s0.3-0.2,0.5-0.4c0.1-0.2,0.2-0.5,0.3-0.8c0-0.2,0.1-0.6,0.1-1.2
			c0-0.9,0-1.6,0.1-1.9c0.1-0.4,0.2-0.7,0.5-0.9c0.2-0.2,0.6-0.4,1-0.5c0.3-0.1,0.8-0.1,1.4-0.1h0.4v1.7c-0.5,0-0.9,0-1,0.1
			c-0.2,0.1-0.3,0.2-0.3,0.3c-0.1,0.1-0.1,0.3-0.1,0.6c0,0.3,0,0.9-0.1,1.7c0,0.5-0.1,0.9-0.2,1.2s-0.2,0.5-0.4,0.7
			c-0.2,0.2-0.4,0.4-0.7,0.6c0.3,0.2,0.5,0.4,0.7,0.6c0.2,0.2,0.3,0.5,0.4,0.8c0.1,0.3,0.2,0.7,0.2,1.3c0,0.8,0.1,1.3,0.1,1.5
			c0,0.3,0,0.5,0.1,0.7s0.2,0.2,0.3,0.3c0.2,0.1,0.5,0.1,1,0.1v1.7h-0.4c-0.6,0-1.1-0.1-1.5-0.2s-0.6-0.3-0.9-0.5s-0.4-0.5-0.5-0.9
			c-0.1-0.4-0.1-0.9-0.1-1.7c0-0.9,0-1.5-0.1-1.7c-0.1-0.4-0.3-0.7-0.5-0.8C60,213.8,59.7,213.7,59.2,213.7z"/>
		<path d="M65,213.7V212c0.3,0,0.6-0.1,0.8-0.2s0.3-0.2,0.5-0.4c0.1-0.2,0.2-0.5,0.3-0.8c0-0.2,0.1-0.6,0.1-1.2c0-0.9,0-1.6,0.1-1.9
			c0.1-0.4,0.2-0.7,0.5-0.9c0.2-0.2,0.6-0.4,1-0.5c0.3-0.1,0.8-0.1,1.4-0.1h0.4v1.7c-0.5,0-0.9,0-1,0.1c-0.2,0.1-0.3,0.2-0.3,0.3
			c-0.1,0.1-0.1,0.3-0.1,0.6c0,0.3,0,0.9-0.1,1.7c0,0.5-0.1,0.9-0.2,1.2s-0.2,0.5-0.4,0.7c-0.2,0.2-0.4,0.4-0.7,0.6
			c0.3,0.2,0.5,0.4,0.7,0.6c0.2,0.2,0.3,0.5,0.4,0.8c0.1,0.3,0.2,0.7,0.2,1.3c0,0.8,0.1,1.3,0.1,1.5c0,0.3,0,0.5,0.1,0.7
			s0.2,0.2,0.3,0.3c0.2,0.1,0.5,0.1,1,0.1v1.7h-0.4c-0.6,0-1.1-0.1-1.5-0.2s-0.6-0.3-0.9-0.5s-0.4-0.5-0.5-0.9
			c-0.1-0.4-0.1-0.9-0.1-1.7c0-0.9,0-1.5-0.1-1.7c-0.1-0.4-0.3-0.7-0.5-0.8C65.7,213.8,65.4,213.7,65,213.7z"/>
		<path d="M73.8,215.1v-3c-0.9-0.3-1.6-0.7-2.1-1.2c-0.4-0.5-0.7-1.2-0.7-2c0-0.8,0.2-1.4,0.7-2c0.5-0.5,1.2-0.8,2-0.9v-0.7h1v0.7
			c0.8,0.1,1.4,0.4,1.8,0.8c0.5,0.4,0.7,1,0.9,1.7l-1.8,0.2c-0.1-0.6-0.4-0.9-0.9-1.2v2.8c1.2,0.3,1.9,0.7,2.4,1.2
			c0.4,0.5,0.6,1.1,0.6,1.9c0,0.9-0.3,1.6-0.8,2.2c-0.5,0.6-1.3,1-2.2,1.1v1.3h-1v-1.3c-0.8-0.1-1.5-0.4-2-0.9
			c-0.5-0.5-0.8-1.2-1-2.2l1.9-0.2c0.1,0.4,0.2,0.7,0.4,1C73.3,214.7,73.5,214.9,73.8,215.1z M73.8,207.5c-0.3,0.1-0.5,0.3-0.7,0.5
			s-0.3,0.5-0.3,0.8c0,0.3,0.1,0.5,0.2,0.7c0.2,0.2,0.4,0.4,0.7,0.5V207.5z M74.8,215.2c0.4-0.1,0.7-0.2,0.9-0.5
			c0.2-0.3,0.3-0.6,0.3-0.9c0-0.3-0.1-0.6-0.3-0.8s-0.5-0.4-0.9-0.5V215.2z"/>
		<path d="M78.8,214.5l2-0.3c0.1,0.4,0.3,0.7,0.5,0.9c0.3,0.2,0.6,0.3,1.1,0.3c0.5,0,0.9-0.1,1.2-0.3c0.2-0.1,0.3-0.3,0.3-0.5
			c0-0.2,0-0.3-0.1-0.4c-0.1-0.1-0.3-0.2-0.7-0.3c-1.6-0.4-2.7-0.7-3.1-1c-0.6-0.4-0.9-1-0.9-1.7c0-0.7,0.3-1.2,0.8-1.7
			c0.5-0.5,1.3-0.7,2.4-0.7c1,0,1.8,0.2,2.3,0.5c0.5,0.3,0.9,0.8,1,1.5l-1.9,0.4c-0.1-0.3-0.2-0.5-0.5-0.7c-0.2-0.2-0.6-0.2-1-0.2
			c-0.5,0-0.9,0.1-1.1,0.2c-0.2,0.1-0.2,0.2-0.2,0.4c0,0.1,0.1,0.3,0.2,0.4c0.2,0.1,0.8,0.3,1.9,0.6c1.1,0.2,1.8,0.5,2.3,0.9
			c0.4,0.4,0.6,0.9,0.6,1.5c0,0.7-0.3,1.3-0.9,1.8c-0.6,0.5-1.5,0.8-2.6,0.8c-1,0-1.9-0.2-2.5-0.6C79.4,215.8,79,215.2,78.8,214.5z"
			/>
		<path d="M92.1,214.2l2,0.3c-0.3,0.7-0.7,1.3-1.2,1.7c-0.6,0.4-1.3,0.6-2.1,0.6c-1.3,0-2.3-0.4-2.9-1.3c-0.5-0.7-0.8-1.6-0.8-2.6
			c0-1.3,0.3-2.3,1-3s1.5-1.1,2.5-1.1c1.1,0,2,0.4,2.7,1.1c0.7,0.8,1,1.9,0.9,3.4h-5.1c0,0.6,0.2,1.1,0.5,1.4
			c0.3,0.3,0.7,0.5,1.2,0.5c0.3,0,0.6-0.1,0.8-0.3S92,214.6,92.1,214.2z M92.3,212.2c0-0.6-0.2-1-0.5-1.3c-0.3-0.3-0.6-0.5-1-0.5
			c-0.4,0-0.8,0.2-1.1,0.5s-0.4,0.8-0.4,1.3H92.3z"/>
		<path d="M94.9,216.6l2.8-3.9l-2.6-3.7h2.5l1.4,2.1l1.4-2.1h2.4l-2.6,3.6l2.8,4h-2.5l-1.6-2.4l-1.6,2.4H94.9z"/>
		<path d="M108.3,213.7c-0.4,0-0.6,0.1-0.8,0.2c-0.2,0.1-0.3,0.2-0.5,0.4c-0.1,0.2-0.2,0.5-0.3,0.8c0,0.2-0.1,0.6-0.1,1.2
			c0,0.9,0,1.6-0.1,1.9c-0.1,0.4-0.2,0.7-0.5,0.9s-0.6,0.4-1,0.5c-0.3,0.1-0.8,0.1-1.4,0.1h-0.4V218c0.5,0,0.8,0,1-0.1
			c0.2-0.1,0.3-0.2,0.3-0.3s0.1-0.3,0.1-0.6s0-0.9,0.1-1.7c0-0.5,0.1-0.9,0.2-1.2s0.2-0.6,0.4-0.8c0.2-0.2,0.4-0.4,0.7-0.5
			c-0.4-0.2-0.6-0.5-0.8-0.7c-0.2-0.3-0.4-0.7-0.5-1.2c-0.1-0.3-0.1-1.1-0.1-2.2c0-0.4,0-0.6-0.1-0.7c-0.1-0.1-0.2-0.2-0.3-0.3
			c-0.2-0.1-0.5-0.1-1-0.1v-1.7h0.4c0.6,0,1.1,0,1.5,0.2s0.6,0.3,0.9,0.5c0.2,0.2,0.4,0.5,0.5,0.9c0.1,0.4,0.1,0.9,0.1,1.7
			c0,0.9,0,1.5,0.1,1.7c0.1,0.4,0.3,0.7,0.5,0.8s0.5,0.3,1,0.3V213.7z"/>
		<path d="M114,213.7c-0.4,0-0.6,0.1-0.8,0.2c-0.2,0.1-0.3,0.2-0.5,0.4c-0.1,0.2-0.2,0.5-0.3,0.8c0,0.2-0.1,0.6-0.1,1.2
			c0,0.9,0,1.6-0.1,1.9c-0.1,0.4-0.2,0.7-0.5,0.9s-0.6,0.4-1,0.5c-0.3,0.1-0.8,0.1-1.4,0.1h-0.4V218c0.5,0,0.8,0,1-0.1
			c0.2-0.1,0.3-0.2,0.3-0.3s0.1-0.3,0.1-0.6s0-0.9,0.1-1.7c0-0.5,0.1-0.9,0.2-1.2s0.2-0.6,0.4-0.8c0.2-0.2,0.4-0.4,0.7-0.5
			c-0.4-0.2-0.6-0.5-0.8-0.7c-0.2-0.3-0.4-0.7-0.5-1.2c-0.1-0.3-0.1-1.1-0.1-2.2c0-0.4,0-0.6-0.1-0.7c-0.1-0.1-0.2-0.2-0.3-0.3
			c-0.2-0.1-0.5-0.1-1-0.1v-1.7h0.4c0.6,0,1.1,0,1.5,0.2s0.6,0.3,0.9,0.5c0.2,0.2,0.4,0.5,0.5,0.9c0.1,0.4,0.1,0.9,0.1,1.7
			c0,0.9,0,1.5,0.1,1.7c0.1,0.4,0.3,0.7,0.5,0.8s0.5,0.3,1,0.3V213.7z"/>
	</g>
</g>
</svg>
