<?xml version="1.0" standalone="no"?>
<!DOCTYPE svg PUBLIC "-//W3C//DTD SVG 20010904//EN"
 "http://www.w3.org/TR/2001/REC-SVG-20010904/DTD/svg10.dtd">
<svg version="1.0" xmlns="http://www.w3.org/2000/svg"
 width="512.000000pt" height="512.000000pt" viewBox="0 0 512.000000 512.000000"
 preserveAspectRatio="xMidYMid meet">
<symbol id='full'>
<g transform="translate(0.000000,512.000000) scale(0.100000,-0.100000)"
fill="#000000" stroke="none">
<path d="M2432 4380 c-185 -24 -425 -93 -592 -172 -74 -35 -82 -41 -63 -48 12
-5 27 -18 33 -29 6 -12 17 -21 26 -21 8 0 17 -6 20 -14 4 -11 24 -6 95 23 49
20 89 41 89 46 0 18 56 60 98 74 45 15 72 10 72 -15 0 -12 6 -15 25 -10 217
55 544 66 770 27 612 -106 1119 -481 1394 -1028 l51 -102 -68 30 -67 31 -70
-21 c-38 -11 -91 -27 -117 -35 l-48 -15 0 146 c0 125 2 144 15 139 12 -4 15 6
15 59 0 55 -3 65 -20 70 -11 3 -20 14 -20 24 0 13 -33 33 -122 75 l-122 57
-153 -52 c-114 -39 -153 -56 -153 -68 0 -9 -13 -22 -30 -28 -28 -11 -30 -14
-30 -67 0 -43 3 -56 15 -56 12 0 15 -20 15 -120 l0 -120 -22 9 c-13 5 -44 18
-70 30 l-47 20 -62 -21 -62 -21 6 -112 c5 -94 4 -114 -8 -119 -12 -4 -15 -29
-15 -122 0 -89 -3 -115 -12 -111 -7 3 -41 17 -75 32 l-62 27 -108 -34 -108
-34 -3 -142 -3 -143 -32 6 c-18 4 -50 0 -74 -9 l-43 -15 0 180 c0 142 3 186
15 210 12 23 13 30 3 34 -7 2 -48 15 -91 29 l-77 24 -66 -20 c-60 -18 -65 -21
-58 -41 13 -37 17 -197 5 -197 -8 0 -11 -82 -11 -259 l0 -259 -45 -14 -45 -15
-20 33 c-10 19 -24 34 -30 34 -6 0 -9 4 -5 9 6 11 44 9 65 -4 10 -6 12 -4 7 8
-6 16 -5 16 19 1 13 -9 28 -13 32 -9 8 8 -35 45 -54 45 -7 0 -16 5 -20 11 -4
8 4 9 27 4 l34 -6 -25 20 c-32 27 -61 26 -96 -1 -18 -14 -24 -16 -15 -5 11 14
11 17 0 17 -10 0 -10 3 -1 12 14 14 16 28 2 28 -5 0 -17 -12 -25 -27 -16 -28
-16 -28 -11 -3 5 24 4 24 -10 5 -8 -11 -12 -26 -9 -34 5 -11 2 -11 -13 2 -20
18 -42 22 -42 8 0 -5 12 -18 26 -28 l27 -20 -32 0 c-32 0 -71 -27 -71 -50 0
-18 -3 -17 -47 13 l-38 26 50 -7 50 -6 -31 28 c-30 26 -30 29 -14 46 9 9 22
17 29 17 7 0 9 5 6 10 -12 20 -55 9 -101 -26 l-47 -36 22 31 c13 18 17 31 11
31 -8 0 -10 9 -6 25 9 35 -9 31 -24 -5 -18 -44 -26 -44 -22 -2 3 20 1 34 -3
30 -5 -4 -13 0 -20 9 -11 14 -13 12 -22 -14 -7 -18 -7 -36 -2 -44 17 -27 9
-28 -27 -4 -53 36 -75 33 -39 -5 16 -17 34 -30 41 -30 6 0 17 -7 24 -15 8 -9
9 -15 2 -15 -6 0 -14 5 -17 10 -13 21 -52 9 -86 -27 -18 -20 -28 -33 -21 -29
7 4 12 2 12 -6 1 -10 4 -9 13 2 7 8 21 15 32 16 11 0 30 4 42 8 20 6 19 3 -8
-24 -32 -31 -34 -54 -14 -127 3 -10 -2 -3 -10 15 -21 45 -40 40 -61 -17 -12
-35 -21 -48 -32 -44 -26 11 -4 796 29 998 20 124 53 257 65 262 7 2 10 11 8
18 -3 7 -1 28 5 47 5 18 19 67 31 108 12 41 26 79 31 85 5 5 2 -12 -7 -37 -8
-26 -14 -59 -12 -75 l4 -28 18 39 c35 78 27 14 -12 -91 -2 -7 0 -13 6 -13 5 0
19 21 30 48 27 60 28 33 2 -44 -11 -32 -16 -60 -11 -62 5 -2 7 -13 4 -25 -4
-22 -4 -22 12 -2 17 20 17 20 10 -2 -11 -38 11 -25 30 17 10 22 20 38 23 35 3
-2 -5 -27 -17 -55 -27 -63 -22 -88 7 -40 27 43 28 30 3 -24 -24 -50 -36 -106
-23 -106 5 0 17 18 27 40 23 50 32 46 11 -5 -18 -43 -20 -55 -7 -55 4 0 23 27
40 60 18 33 36 60 41 60 12 0 -15 -64 -57 -132 -41 -67 -40 -103 2 -40 32 49
39 53 24 15 -6 -17 -6 -30 0 -36 7 -7 7 -17 0 -29 -6 -11 -8 -22 -5 -26 8 -7
9 -5 35 43 22 40 22 40 15 8 -3 -18 -2 -33 3 -33 5 0 7 -16 5 -35 -2 -19 -1
-35 2 -35 15 0 44 86 39 115 -3 23 -2 27 6 15 6 -8 11 -26 11 -40 1 -23 2 -23
11 -7 8 13 8 32 0 64 -7 25 -9 48 -7 51 3 3 9 -9 12 -26 4 -18 11 -32 16 -32
6 0 7 7 4 16 -6 15 -4 15 10 3 15 -12 16 -11 9 11 -4 14 -26 51 -47 83 -50 73
-43 88 8 18 20 -29 39 -50 41 -47 6 5 -25 65 -45 89 -24 27 -1 20 30 -10 25
-24 28 -25 28 -8 0 11 -19 39 -42 62 -48 49 -40 57 11 13 19 -16 37 -27 40
-24 3 3 -10 20 -29 36 l-35 31 38 -22 c20 -13 37 -18 37 -13 0 11 -76 77 -123
107 -15 10 -25 20 -23 23 3 2 33 -16 67 -42 60 -44 86 -53 59 -21 -15 17 -7
19 21 5 10 -6 19 -20 19 -30 0 -25 17 -26 23 -2 3 11 5 9 6 -8 1 -14 6 -32 11
-40 7 -11 10 -7 10 18 0 17 5 32 10 32 6 0 10 -11 10 -25 0 -28 17 -34 22 -7
2 9 7 -7 11 -35 4 -29 12 -53 17 -53 6 0 10 5 10 11 0 8 5 8 15 -1 13 -11 15
-8 15 16 0 16 5 36 10 44 7 10 10 -7 10 -57 0 -42 4 -73 10 -73 6 0 10 13 10
29 0 17 4 32 9 35 9 6 31 -58 31 -90 0 -11 5 -26 11 -34 8 -11 9 1 5 45 -3 33
-8 71 -12 85 -4 18 -3 21 4 10 5 -8 15 -41 22 -72 7 -32 17 -58 21 -58 8 0 4
44 -7 78 -2 7 0 11 5 8 4 -3 18 -37 30 -76 12 -38 25 -70 28 -70 9 0 -8 94
-19 108 -6 7 -7 12 -1 12 6 0 15 -10 21 -22 6 -13 11 -17 11 -10 1 7 -8 32
-19 54 -11 23 -20 50 -20 61 0 10 -13 38 -30 62 -16 24 -30 51 -30 60 0 9 -9
35 -20 57 -26 54 -25 60 5 23 39 -48 39 -22 -1 36 -21 31 -27 46 -15 35 12
-11 24 -17 27 -14 3 3 -15 23 -40 44 -25 21 -46 43 -46 49 0 14 -53 49 -125
81 -52 24 -73 28 -155 28 -52 1 -85 2 -72 4 17 3 22 8 17 20 -5 14 -4 15 6 5
18 -18 34 -16 19 2 -11 14 -10 14 14 5 36 -13 41 -13 26 5 -15 18 1 20 18 3
10 -10 15 -10 21 1 6 9 11 10 15 2 9 -14 26 -14 26 -1 0 6 -20 23 -45 38 -52
32 -61 51 -10 22 39 -22 60 -26 50 -10 -3 6 11 0 31 -12 32 -19 37 -20 31 -5
-6 16 -5 16 20 0 26 -17 27 -17 20 1 -6 16 -5 17 8 6 9 -7 18 -10 21 -7 3 3
-13 19 -37 36 -62 45 -38 38 32 -9 32 -23 59 -37 59 -32 0 9 -74 82 -110 106
l-25 18 25 -7 c14 -4 53 -22 88 -41 64 -35 86 -32 30 5 -18 11 -28 21 -22 21
5 0 25 -11 44 -25 19 -14 40 -23 48 -20 7 2 29 -2 48 -10 57 -24 38 2 -31 42
-35 20 -63 39 -60 41 2 2 24 -4 50 -13 25 -10 48 -15 52 -12 3 4 -6 11 -21 16
-44 17 -29 19 35 4 56 -13 81 -12 67 3 -5 5 -64 21 -141 38 -17 4 -25 11 -21
18 5 8 -17 9 -77 6 -64 -3 -77 -2 -56 6 15 5 27 14 27 19 0 9 -32 1 -72 -19
-38 -20 -47 -17 -20 6 35 29 9 33 -34 4 -22 -15 -40 -30 -42 -35 -2 -5 -9 -9
-15 -9 -6 0 2 14 18 30 42 44 19 37 -31 -10 -24 -22 -50 -40 -57 -40 -8 0 -41
-36 -73 -80 -32 -44 -66 -79 -74 -79 -11 0 -10 3 4 14 26 19 14 30 -16 15 -14
-8 -7 2 17 24 27 25 33 36 20 32 -14 -4 -9 3 14 24 40 34 36 50 -6 24 l-28
-18 19 22 c10 11 34 26 52 32 19 7 34 16 34 22 0 6 -6 8 -13 5 -8 -3 -14 1
-14 9 0 7 13 18 29 23 15 6 28 15 28 22 0 6 -7 9 -14 6 -11 -4 -13 -1 -9 10 5
12 3 14 -7 8 -8 -5 -4 6 9 23 15 22 18 32 9 32 -7 0 2 12 20 26 17 14 32 30
32 35 0 5 -15 2 -32 -6 l-33 -16 27 25 c16 14 36 29 45 35 10 5 15 12 11 16
-3 4 -19 -2 -35 -12 l-28 -18 33 38 c39 45 43 70 5 36 -29 -26 -24 -12 14 39
32 42 19 57 -13 17 -13 -17 -24 -24 -24 -16 0 21 -13 5 -27 -32 -10 -27 -12
-29 -12 -9 -1 36 -18 17 -26 -29 -5 -28 -10 -37 -16 -28 -12 20 -23 4 -35 -54
-10 -44 -12 -47 -13 -19 -1 42 -21 32 -22 -11 -1 -18 -3 -24 -6 -14 -7 26 -23
10 -23 -24 0 -16 -5 -29 -11 -29 -7 0 -10 -14 -7 -35 2 -19 0 -35 -5 -35 -5 0
-7 -12 -4 -27 2 -16 1 -37 -3 -48 -7 -15 -9 -10 -9 23 -1 23 -5 42 -11 42 -6
0 -7 18 -3 45 4 31 2 45 -6 45 -7 0 -11 19 -11 50 0 40 -3 48 -15 44 -10 -4
-15 0 -15 15 0 12 -4 21 -10 21 -5 0 -10 -19 -11 -42 0 -33 -2 -38 -9 -23 -5
11 -9 30 -9 42 -1 12 -6 34 -12 50 -10 25 -12 26 -18 8 -7 -17 -8 -17 -15 8
-3 15 -11 27 -17 27 -7 0 -9 -9 -5 -22 4 -19 1 -17 -20 10 -14 17 -35 37 -45
43 -20 10 -20 10 -3 -17 10 -15 14 -25 9 -23 -61 29 -88 39 -93 35 -6 -7 -8
-5 43 -41 36 -24 37 -26 13 -21 -29 7 -39 -8 -13 -18 8 -3 15 -10 15 -16 0 -6
-5 -8 -11 -4 -7 4 -10 1 -7 -7 2 -7 15 -16 29 -20 13 -4 19 -7 12 -8 -7 -1
-10 -8 -6 -18 5 -14 1 -13 -19 5 -26 23 -44 30 -32 11 4 -7 -1 -7 -16 1 -31
17 -37 4 -9 -20 16 -13 18 -18 7 -14 -10 3 -18 1 -18 -5 0 -6 6 -11 13 -12 6
0 3 -4 -8 -9 -22 -9 -19 -11 45 -29 32 -9 31 -10 -15 -5 -47 5 -49 4 -31 -10
11 -9 31 -17 45 -17 17 -1 20 -3 9 -6 -10 -2 -18 -8 -18 -13 0 -8 13 -12 90
-23 17 -3 13 -5 -12 -6 -21 0 -38 -4 -38 -7 0 -10 28 -34 39 -34 6 0 10 -3 10
-7 -4 -23 4 -32 33 -38 26 -6 29 -9 14 -17 -13 -7 -32 2 -84 41 -99 75 -223
134 -291 138 -63 5 -55 -11 13 -23 24 -4 34 -9 26 -14 -9 -6 -8 -11 6 -19 17
-11 17 -11 -3 -6 -24 7 -32 -8 -12 -21 6 -4 32 -13 58 -20 43 -13 44 -14 9
-10 -53 6 -47 -8 10 -27 44 -15 45 -16 15 -16 -17 -1 -34 -5 -37 -10 -7 -10
48 -20 119 -22 l50 -1 -50 -9 c-90 -17 -147 -40 -141 -56 3 -8 6 -16 6 -19 0
-2 12 1 26 7 15 5 29 8 31 5 3 -2 -5 -7 -16 -11 -21 -6 -47 -42 -38 -51 2 -3
29 9 60 26 62 34 101 41 48 9 -42 -25 -34 -36 11 -14 l33 16 -25 -20 c-30 -24
-11 -27 31 -5 17 8 33 13 36 11 2 -3 -5 -10 -16 -17 -12 -6 -21 -15 -21 -21 0
-6 8 -5 21 2 15 8 19 8 15 0 -5 -7 3 -11 19 -11 15 0 24 -4 20 -10 -4 -6 11
-10 37 -10 31 -1 39 -3 27 -10 -10 -6 -41 -2 -90 12 -89 24 -411 39 -423 19
-5 -7 1 -11 16 -12 13 0 -1 -7 -30 -15 -56 -15 -117 -43 -109 -50 2 -3 16 0
31 5 39 15 32 8 -29 -33 -30 -20 -55 -41 -55 -46 0 -14 13 -13 30 3 7 6 2 -3
-13 -21 -15 -19 -27 -38 -27 -43 0 -16 61 30 107 80 49 53 57 51 13 -4 -41
-52 -38 -66 7 -24 l36 34 -26 -49 c-15 -27 -27 -51 -27 -53 0 -12 32 22 45 47
15 28 85 116 85 106 0 -3 -20 -35 -45 -72 -25 -36 -45 -69 -45 -75 0 -20 16
-7 34 26 11 19 23 35 29 35 5 0 2 -11 -7 -25 -18 -28 -20 -35 -7 -35 5 0 26
27 47 60 51 79 63 77 19 -3 -19 -35 -35 -67 -35 -70 0 -16 18 -5 30 18 7 14
15 23 17 21 3 -2 0 -14 -7 -25 -6 -12 -7 -21 -1 -21 5 0 24 25 41 55 37 64 50
74 19 14 -16 -32 -17 -41 -6 -36 27 10 27 -5 2 -39 -14 -18 -25 -39 -25 -48 0
-8 -4 -17 -10 -21 -5 -3 -13 -20 -19 -38 -5 -18 -16 -49 -25 -70 -11 -25 -13
-36 -5 -31 9 5 10 2 6 -10 -4 -10 -7 -26 -7 -36 0 -17 -4 -18 -29 -9 -21 7
-53 6 -117 -7 -103 -19 -130 -31 -179 -79 -35 -36 -72 -51 -42 -17 10 10 15
21 12 24 -3 3 4 13 15 23 11 10 20 24 20 32 0 7 5 13 10 13 6 0 10 5 10 11 0
6 -7 8 -15 5 -45 -18 -46 -15 -5 22 48 44 48 52 0 27 -17 -9 -30 -11 -30 -6 0
6 16 18 35 27 35 16 50 41 17 30 -10 -4 -7 2 8 14 14 11 28 20 33 20 4 0 7 4
7 8 0 5 -14 6 -31 4 l-31 -5 17 27 c27 41 7 45 -27 6 -30 -35 -30 -35 -24 -7
9 37 -2 34 -19 -5 -13 -31 -14 -31 -15 -8 -1 39 -19 3 -21 -40 0 -19 -3 -29
-6 -22 -11 27 -25 10 -21 -27 3 -30 0 -37 -11 -33 -11 4 -13 1 -6 -14 4 -10 7
-29 6 -41 0 -12 4 -34 9 -48 6 -17 6 -24 0 -20 -5 3 -15 25 -21 48 -11 43 -58
126 -72 127 -4 0 -21 15 -37 33 -16 17 -30 27 -30 20 0 -8 -14 -3 -36 12 -64
43 -72 32 -17 -21 24 -22 30 -31 16 -25 -12 6 -26 11 -32 11 -19 0 -12 -18 9
-25 11 -4 18 -10 15 -15 -3 -4 9 -13 25 -19 34 -12 41 -26 8 -15 -20 6 -21 5
-9 -10 7 -9 19 -16 25 -16 7 0 21 -7 32 -15 17 -13 16 -14 -16 -3 -19 6 -50
24 -67 39 -32 27 -50 34 -163 58 -30 6 -66 14 -80 17 -22 5 -21 3 8 -15 39
-25 40 -30 5 -24 -22 4 -25 2 -13 -6 8 -6 24 -11 35 -12 11 0 14 -3 8 -6 -24
-9 -13 -23 19 -23 30 0 31 -1 12 -15 -18 -14 -18 -14 9 -15 16 0 26 -4 22 -10
-4 -6 16 -11 52 -12 42 -1 48 -2 21 -5 -40 -4 -54 -26 -15 -23 57 5 55 -4 -3
-10 -49 -5 -59 -9 -43 -14 13 -5 20 -12 17 -17 -3 -5 13 -9 36 -9 25 0 39 -4
35 -10 -4 -6 13 -11 42 -11 26 -1 37 -4 24 -6 -19 -4 -21 -7 -10 -15 10 -7 7
-8 -11 -3 -87 22 -115 26 -203 28 -63 1 -100 -2 -105 -9 -4 -6 -17 -15 -30
-19 -14 -4 -21 -12 -18 -20 3 -8 -7 -18 -24 -25 -34 -14 -60 -40 -40 -40 6 0
-2 -12 -19 -26 -32 -26 -41 -47 -18 -38 8 3 0 -23 -20 -63 -18 -37 -33 -74
-33 -80 0 -21 16 -15 29 10 l11 22 -6 -22 c-3 -13 -1 -23 5 -23 5 0 12 13 16
30 4 16 11 33 17 36 7 4 8 -2 3 -17 -7 -22 -6 -23 9 -10 10 8 26 32 37 53 22
43 33 51 19 12 -6 -14 -10 -30 -10 -36 0 -19 15 2 27 40 7 20 11 27 9 15 -8
-47 14 -21 34 40 l20 62 -6 -63 c-6 -59 -9 -66 -50 -104 -24 -22 -41 -44 -38
-49 3 -5 -8 -26 -24 -47 -44 -56 -66 -102 -41 -86 6 4 6 -3 -2 -17 -14 -25
-29 -159 -18 -159 4 0 14 18 23 40 9 22 17 40 19 40 2 0 1 -16 -1 -35 -3 -21
0 -35 7 -35 11 0 18 23 24 80 4 32 4 32 5 -7 2 -53 22 -57 23 -5 1 20 3 29 6
20 10 -38 21 -14 34 67 13 91 29 97 29 11 0 -71 14 -47 21 37 l6 72 1 -74 c2
-62 4 -72 18 -67 9 3 16 6 17 6 1 0 1 33 0 72 -2 67 -1 69 8 33 5 -22 7 -50 4
-62 -3 -13 -1 -23 5 -23 6 0 11 29 11 68 l1 67 10 -47 c14 -67 28 -60 29 15 1
53 2 58 10 32 5 -16 11 -52 13 -80 2 -27 5 -52 6 -55 4 -10 18 46 20 80 2 33
3 33 10 10 9 -30 12 -21 12 40 0 25 2 36 5 25 11 -43 23 -38 25 11 1 42 2 44
6 14 l5 -35 13 40 14 40 -3 -37 c-3 -42 9 -50 23 -15 5 12 9 16 9 10 2 -25 21
-12 22 15 2 25 2 25 6 3 6 -29 -11 -64 -54 -114 -38 -43 -43 -65 -11 -43 33
23 45 19 21 -6 -20 -22 -43 -61 -43 -72 0 -3 7 -3 15 0 11 5 8 -6 -10 -37 -36
-64 -33 -93 5 -38 16 24 30 50 30 57 0 6 4 12 9 12 6 0 1 -25 -10 -57 -10 -31
-19 -68 -19 -82 l1 -26 15 25 c15 25 15 24 9 -15 -3 -22 -8 -52 -11 -67 -8
-38 12 -35 25 4 18 50 20 29 6 -47 -8 -38 -11 -72 -8 -75 3 -3 8 0 10 6 2 6
11 20 19 30 14 18 15 18 9 -4 -8 -29 34 -150 46 -131 4 7 6 36 3 63 l-4 51 14
-35 c11 -28 15 -32 21 -18 8 19 -9 131 -26 175 -14 38 -3 40 16 3 22 -42 29
-33 10 13 -8 20 -15 42 -15 48 0 18 39 -21 58 -56 26 -50 25 -10 -1 54 -14 34
-21 61 -17 61 5 0 10 -6 13 -12 2 -7 8 -10 12 -6 4 4 -3 21 -15 37 -12 17 -17
31 -11 31 6 0 16 -10 22 -22 7 -13 14 -18 16 -12 2 7 -6 29 -17 49 -33 58 -17
51 24 -11 21 -31 39 -54 42 -52 2 3 -10 32 -26 66 -37 77 -37 86 0 42 30 -35
42 -30 15 6 -21 28 -18 40 5 19 29 -26 25 -12 -16 61 -20 35 -33 64 -29 64 9
0 44 -42 45 -53 0 -5 7 -15 15 -23 8 -9 15 -32 15 -52 0 -24 3 -32 9 -24 5 9
10 0 15 -27 3 -23 10 -41 15 -41 6 0 11 -12 13 -27 4 -34 25 -41 31 -11 2 13
5 2 6 -24 1 -62 21 -63 21 -1 0 70 10 46 16 -38 2 -41 7 -84 9 -96 9 -38 21
-25 17 17 -2 22 0 40 6 40 5 0 7 -11 5 -24 -3 -13 0 -27 6 -30 7 -5 12 3 13
21 1 15 4 -2 7 -40 6 -72 22 -89 32 -35 4 22 7 26 9 13 2 -11 4 -24 5 -30 2
-5 3 -25 4 -42 2 -60 21 -34 22 30 1 56 2 59 10 30 5 -18 12 -33 16 -33 7 0
-2 87 -12 115 -4 11 3 5 15 -13 13 -18 24 -31 26 -29 5 5 -33 106 -47 123 -6
8 -7 14 -3 14 5 0 15 -9 22 -21 7 -12 16 -19 18 -16 8 8 -25 69 -54 100 -14
15 -20 27 -14 27 7 0 17 -9 24 -20 16 -26 32 -26 18 -1 -5 11 -7 27 -4 36 4
11 -12 34 -50 72 -31 31 -54 58 -52 60 16 16 228 -251 312 -393 41 -68 124
-234 124 -246 0 -3 -23 -5 -50 -6 -64 -1 -70 -6 -70 -48 0 -20 -3 -34 -7 -32
-5 3 -23 11 -40 18 l-33 14 0 158 0 158 -31 0 c-17 0 -28 -4 -24 -10 3 -5 -3
-18 -15 -30 -11 -11 -20 -29 -20 -39 0 -11 -5 -23 -11 -27 -6 -3 -18 -22 -25
-41 -19 -44 -57 -44 -62 0 -2 15 -7 27 -12 27 -5 0 -11 -55 -12 -122 l-3 -123
-48 3 c-32 3 -56 -2 -72 -12 -31 -20 -61 -21 -69 -1 -3 8 -12 15 -21 15 -12 0
-15 13 -16 58 -1 65 -17 46 -19 -23 -1 -57 -13 -28 -35 82 -18 88 -20 92 -37
76 -10 -9 -18 -24 -18 -33 0 -21 -19 -40 -42 -40 -11 0 -21 12 -27 33 -8 28
-9 29 -10 7 0 -14 12 -76 27 -138 l28 -112 -39 -26 c-139 -92 -227 -233 -227
-364 0 -162 109 -265 261 -247 l48 6 10 -37 c5 -20 21 -88 36 -149 42 -173 79
-197 244 -162 102 23 145 40 159 64 7 14 15 14 53 4 39 -11 59 -9 150 11 104
24 134 41 164 93 9 17 12 17 42 2 78 -39 208 -26 281 28 29 22 38 24 75 15 49
-11 138 3 207 34 25 10 65 21 90 22 89 5 200 37 235 67 28 25 36 27 66 19 70
-20 176 -4 234 36 31 21 44 23 88 18 69 -8 166 17 240 62 56 35 58 35 112 24
65 -13 139 -2 194 31 26 16 55 21 116 23 61 2 91 7 116 22 30 17 39 18 74 9
24 -7 54 -9 75 -4 46 11 65 5 190 -51 147 -67 210 -84 286 -77 34 3 78 13 97
21 43 18 110 77 138 122 24 40 48 132 49 188 0 32 3 37 18 31 42 -17 123 -17
189 -1 137 34 220 132 231 274 3 51 0 78 -12 104 -15 32 -15 39 0 98 27 105 5
209 -56 270 -47 47 -130 75 -196 66 -42 -5 -43 -5 -48 27 -3 17 -7 69 -10 114
-22 347 -195 772 -436 1072 -302 375 -713 625 -1193 727 -106 22 -152 26 -352
29 -126 2 -263 0 -303 -5z m-555 -562 c-3 -7 -5 -2 -5 12 0 14 2 19 5 13 2 -7
2 -19 0 -25z m1927 -208 c-13 -13 -234 -88 -234 -79 0 6 30 18 185 73 49 18
62 19 49 6z m131 -36 c53 -25 94 -48 91 -51 -7 -8 -195 79 -196 90 0 11 -1 11
105 -39z m-127 1 c-8 -8 -293 -103 -297 -99 -7 6 -3 8 134 56 115 41 178 57
163 43z m150 -47 c61 -29 112 -56 112 -60 0 -7 -147 58 -215 95 -65 35 -4 14
103 -35z m-150 17 c-9 -10 -288 -101 -288 -95 0 4 64 30 143 57 127 45 161 54
145 38z m147 -46 c59 -28 105 -53 102 -55 -3 -3 -56 19 -119 49 -62 31 -108
56 -102 56 6 1 59 -22 119 -50z m-153 -21 c-15 -15 -26 -4 -18 18 5 13 9 15
18 6 9 -9 9 -15 0 -24z m-42 -2 c0 -8 -4 -17 -9 -21 -12 -7 -24 12 -16 25 9
15 25 12 25 -4z m138 -9 c2 -12 -1 -15 -12 -11 -19 7 -22 38 -3 32 6 -3 13
-12 15 -21z m52 -23 c0 -8 -4 -12 -10 -9 -5 3 -10 10 -10 16 0 5 5 9 10 9 6 0
10 -7 10 -16z m30 -9 c0 -8 -4 -15 -10 -15 -5 0 -10 7 -10 15 0 8 5 15 10 15
6 0 10 -7 10 -15z m30 -6 c0 -5 5 -7 10 -4 11 7 26 -22 17 -31 -9 -9 -47 16
-47 31 0 8 5 15 10 15 6 0 10 -5 10 -11z m-450 -19 c0 -11 -7 -20 -15 -20 -18
0 -19 12 -3 28 16 16 18 15 18 -8z m321 10 c21 -12 27 -45 7 -37 -7 2 -12 9
-11 15 1 5 -5 9 -14 8 -9 0 -18 5 -20 12 -6 15 11 16 38 2z m-121 -14 c0 -8
-4 -17 -9 -21 -12 -7 -24 12 -16 25 9 15 25 12 25 -4z m-80 -26 c0 -11 -7 -20
-15 -20 -27 0 -18 30 13 39 1 1 2 -8 2 -19z m270 -6 c0 -8 -4 -12 -10 -9 -5 3
-10 10 -10 16 0 5 5 9 10 9 6 0 10 -7 10 -16z m30 -9 c0 -8 -4 -15 -10 -15 -5
0 -10 7 -10 15 0 8 5 15 10 15 6 0 10 -7 10 -15z m-380 -9 c0 -8 -4 -17 -9
-21 -12 -7 -24 12 -16 25 9 15 25 12 25 -4z m-2021 -13 c-3 -32 1 -44 11 -38
18 11 10 -11 -10 -30 -29 -26 -72 -104 -65 -116 4 -6 -1 -19 -10 -29 -9 -10
-20 -33 -25 -52 -8 -31 -31 -97 -37 -107 -2 -3 -18 9 -36 26 -26 24 -56 46
-105 78 -1 1 5 17 13 36 l16 34 -6 -32 c-11 -57 13 -36 26 22 15 66 29 83 22
25 -5 -33 -3 -40 11 -40 9 0 16 6 16 13 0 22 37 60 43 45 4 -8 8 -5 12 10 4
12 11 22 16 22 5 0 10 30 11 68 l2 67 3 -68 c2 -39 8 -65 13 -62 6 4 10 17 10
30 0 18 4 23 15 19 9 -4 15 0 15 10 0 9 5 16 10 16 6 0 10 9 10 19 0 22 10 51
17 51 2 0 3 -8 2 -17z m1981 3 c0 -8 -4 -17 -9 -21 -12 -7 -24 12 -16 25 9 15
25 12 25 -4z m308 -4 c2 -7 -3 -12 -12 -12 -9 0 -16 7 -16 16 0 17 22 14 28
-4z m172 -8 c0 -8 -4 -14 -10 -14 -5 0 -10 9 -10 21 0 11 5 17 10 14 6 -3 10
-13 10 -21z m-280 2 c0 -16 -18 -31 -27 -22 -8 8 5 36 17 36 5 0 10 -6 10 -14z
m150 -2 c39 -12 50 -19 50 -30 0 -15 -12 -18 -24 -6 -4 4 -12 8 -17 8 -5 1
-11 3 -14 4 -3 1 -9 3 -15 4 -5 0 -10 4 -10 9 0 4 0 12 0 18 0 6 5 7 13 2 6
-4 14 -8 17 -9z m-230 -24 c0 -11 -7 -20 -15 -20 -27 0 -18 30 13 39 1 1 2 -8
2 -19z m-40 -15 c0 -8 -7 -15 -15 -15 -8 0 -15 7 -15 15 0 8 7 15 15 15 8 0
15 -7 15 -15z m-40 -10 c0 -8 -7 -15 -15 -15 -8 0 -15 7 -15 15 0 8 7 15 15
15 8 0 15 -7 15 -15z m410 0 c0 -8 -4 -15 -10 -15 -5 0 -10 7 -10 15 0 8 5 15
10 15 6 0 10 -7 10 -15z m-200 -9 c0 -8 -7 -16 -15 -20 -10 -4 -15 1 -15 14 0
11 7 20 15 20 8 0 15 -6 15 -14z m58 -4 c2 -7 -3 -12 -12 -12 -9 0 -16 7 -16
16 0 17 22 14 28 -4z m-108 -6 c0 -8 -4 -17 -9 -21 -12 -7 -24 12 -16 25 9 15
25 12 25 -4z m140 -12 c0 -14 -12 -19 -23 -8 -9 9 4 35 14 28 5 -3 9 -12 9
-20z m-180 -4 c0 -11 -7 -20 -15 -20 -15 0 -21 21 -8 33 12 13 23 7 23 -13z
m230 -11 c0 -11 -4 -17 -10 -14 -5 3 -10 13 -10 21 0 8 5 14 10 14 6 0 10 -9
10 -21z m-310 -9 c0 -11 -7 -20 -15 -20 -27 0 -18 30 13 39 1 1 2 -8 2 -19z
m340 -6 c0 -8 -4 -12 -10 -9 -5 3 -10 10 -10 16 0 5 5 9 10 9 6 0 10 -7 10
-16z m-2251 -119 c-6 -22 -15 -51 -20 -65 -37 -114 -59 -360 -66 -742 -6 -317
-7 -338 -24 -338 -24 0 -30 8 -91 115 -106 188 -259 384 -441 564 -64 63 -103
109 -100 118 4 9 15 2 38 -24 38 -43 60 -38 27 7 -33 44 -27 48 13 10 37 -36
61 -35 29 2 l-19 22 32 -22 c35 -25 48 -28 37 -9 -4 6 2 4 13 -5 27 -24 36
-22 22 5 -12 21 -11 21 7 7 10 -8 29 -23 42 -34 32 -28 30 3 -3 34 -38 35 -22
36 29 1 51 -36 67 -40 41 -11 -10 11 -13 20 -8 20 6 0 16 -7 23 -15 7 -8 17
-15 23 -15 6 0 -13 25 -43 55 -30 30 -51 55 -48 55 3 0 39 -27 80 -60 40 -33
76 -60 81 -60 17 0 4 18 -39 54 -66 55 -48 55 31 0 58 -41 68 -45 63 -26 -7
27 -7 27 36 1 42 -24 48 -16 10 13 -34 27 -26 31 26 13 50 -18 50 -18 50 -7 0
5 -10 14 -22 21 -18 9 -18 10 -3 5 39 -12 95 -16 95 -7 0 5 -27 18 -61 29 -33
10 -60 22 -60 27 1 4 1 22 1 40 0 25 3 29 11 17 8 -12 10 -9 6 13 -2 15 0 27
4 27 5 0 9 -6 9 -14 0 -8 5 -18 11 -22 12 -7 11 -4 -7 71 -2 11 5 3 16 -17 26
-49 33 -48 25 3 -5 31 -4 40 5 34 8 -5 10 5 6 41 -5 48 -5 48 6 14 15 -45 17
-47 28 -30 7 10 10 11 10 3 0 -7 5 -13 11 -13 7 0 9 9 6 23 -3 12 -8 40 -11
62 -5 31 -4 35 3 18 19 -42 28 -23 15 29 -16 62 -11 77 7 19 18 -59 31 -50 25
17 l-6 57 16 -45 c12 -36 13 -53 3 -85z m1871 110 c0 -8 -7 -15 -15 -15 -8 0
-15 7 -15 15 0 8 7 15 15 15 8 0 15 -7 15 -15z m410 0 c0 -8 -4 -15 -10 -15
-5 0 -10 7 -10 15 0 8 5 15 10 15 6 0 10 -7 10 -15z m-202 -12 c-5 -25 -28
-28 -28 -4 0 12 6 21 16 21 9 0 14 -7 12 -17z m57 -1 c0 -18 -20 -15 -23 4 -3
10 1 15 10 12 7 -3 13 -10 13 -16z m-105 -12 c0 -11 -7 -20 -15 -20 -15 0 -21
21 -8 33 12 13 23 7 23 -13z m153 4 c4 -1 9 -3 12 -4 3 -1 10 -3 15 -4 6 0 10
-4 10 -8 0 -5 0 -13 0 -19 0 -6 -5 -7 -12 -2 -7 4 -16 8 -20 9 -5 1 -10 3 -13
4 -3 1 -9 3 -15 4 -5 0 -10 4 -10 9 0 4 0 12 0 18 0 6 5 7 13 2 6 -4 15 -8 20
-9z m-233 -18 c0 -16 -18 -31 -27 -22 -8 8 5 36 17 36 5 0 10 -6 10 -14z m-40
-16 c0 -11 -7 -20 -15 -20 -15 0 -21 21 -8 33 12 13 23 7 23 -13z m340 -2 c0
-16 -3 -19 -11 -11 -6 6 -8 16 -5 22 11 17 16 13 16 -11z m-633 -140 c-2 -29
-3 -6 -3 52 0 58 1 81 3 53 2 -29 2 -77 0 -105z m250 127 c-4 -8 -11 -15 -17
-15 -14 0 -13 27 3 33 16 6 21 1 14 -18z m413 -1 c0 -8 -4 -14 -10 -14 -5 0
-10 9 -10 21 0 11 5 17 10 14 6 -3 10 -13 10 -21z m-693 -136 c-2 -29 -3 -6
-3 52 0 58 1 81 3 53 2 -29 2 -77 0 -105z m83 130 c0 -13 -23 -5 -28 10 -2 7
2 10 12 6 9 -3 16 -11 16 -16z m156 -16 c-4 -3 -12 0 -19 7 -9 9 -9 14 3 21
11 7 16 5 18 -6 2 -9 1 -18 -2 -22z m-266 -72 c0 -60 -4 -100 -10 -100 -6 0
-10 40 -10 100 0 60 4 100 10 100 6 0 10 -40 10 -100z m518 83 c-5 -25 -28
-28 -28 -4 0 12 6 21 16 21 9 0 14 -7 12 -17z m-378 -3 c0 -5 -4 -10 -10 -10
-5 0 -10 5 -10 10 0 6 5 10 10 10 6 0 10 -4 10 -10z m470 -16 c0 -16 -16 -19
-25 -4 -8 13 4 32 16 25 5 -4 9 -13 9 -21z m-180 -4 c0 -11 -4 -20 -9 -20 -14
0 -23 18 -16 30 10 17 25 11 25 -10z m-320 -12 c0 -13 -23 -5 -28 10 -2 7 2
10 12 6 9 -3 16 -11 16 -16z m280 8 c0 -16 -18 -31 -27 -22 -8 8 5 36 17 36 5
0 10 -6 10 -14z m291 4 c5 0 9 -10 9 -22 -1 -22 -1 -23 -15 -4 -8 11 -15 14
-15 7 0 -7 -4 -9 -10 -6 -17 10 -12 38 6 31 9 -3 20 -6 25 -6z m-2323 -55 c0
-16 -2 -15 -8 5 -11 34 -11 60 0 35 5 -11 8 -29 8 -40z m2612 45 c0 -5 -7 -10
-16 -10 -8 0 -12 5 -9 10 3 6 10 10 16 10 5 0 9 -4 9 -10z m90 0 c0 -5 -4 -10
-10 -10 -5 0 -10 5 -10 10 0 6 5 10 10 10 6 0 10 -4 10 -10z m-920 -10 c0 -5
-4 -10 -10 -10 -5 0 -10 5 -10 10 0 6 5 10 10 10 6 0 10 -4 10 -10z m170 -4
c0 -8 -4 -17 -9 -21 -12 -7 -24 12 -16 25 9 15 25 12 25 -4z m421 4 c10 -6 19
-18 19 -28 -1 -15 -2 -15 -15 2 -8 11 -15 14 -15 7 0 -7 -4 -9 -10 -6 -11 7
-14 35 -4 35 3 0 14 -5 25 -10z m-561 -10 c0 -5 -4 -10 -10 -10 -5 0 -10 5
-10 10 0 6 5 10 10 10 6 0 10 -4 10 -10z m100 -4 c0 -8 -4 -17 -9 -21 -12 -7
-24 12 -16 25 9 15 25 12 25 -4z m830 4 c0 -5 -2 -10 -4 -10 -3 0 -8 5 -11 10
-3 6 -1 10 4 10 6 0 11 -4 11 -10z m-990 -20 c0 -5 -4 -10 -10 -10 -5 0 -10 5
-10 10 0 6 5 10 10 10 6 0 10 -4 10 -10z m360 -10 c0 -11 -4 -20 -9 -20 -14 0
-23 18 -16 30 10 17 25 11 25 -10z m150 5 c49 -7 70 -19 70 -38 -1 -22 -1 -22
-15 -3 -9 12 -15 15 -15 7 0 -11 -3 -11 -15 -1 -8 7 -15 9 -15 5 0 -4 -7 -2
-15 5 -8 7 -15 9 -15 4 0 -4 -5 -3 -11 3 -14 14 -2 36 14 26 7 -4 14 -8 17 -8z
m430 5 c8 -5 12 -12 9 -15 -8 -8 -39 5 -39 16 0 11 11 11 30 -1z m100 0 c8 -5
12 -11 9 -14 -3 -3 -14 1 -25 9 -21 16 -8 20 16 5z m-981 -16 c2 -2 2 -6 0 -9
-8 -7 -49 7 -49 17 0 8 38 2 49 -8z m261 2 c0 -8 -4 -17 -9 -21 -12 -7 -24 12
-16 25 9 15 25 12 25 -4z m400 10 c0 -3 -4 -8 -10 -11 -5 -3 -10 -1 -10 4 0 6
5 11 10 11 6 0 10 -2 10 -4z m140 -6 c0 -5 -4 -10 -9 -10 -5 0 -16 -3 -25 -6
-9 -3 -16 -1 -16 4 0 9 16 17 43 21 4 0 7 -3 7 -9z m-580 -14 c0 -16 -18 -31
-27 -22 -8 8 5 36 17 36 5 0 10 -6 10 -14z m748 -11 c12 -3 22 -13 22 -21 0
-12 -8 -10 -40 6 -22 11 -40 23 -40 26 0 5 6 4 58 -11z m-1033 -5 c3 -5 1 -10
-4 -10 -6 0 -11 5 -11 10 0 6 2 10 4 10 3 0 8 -4 11 -10z m636 0 c5 0 9 -7 9
-16 0 -11 -5 -14 -16 -10 -9 3 -20 6 -25 6 -5 0 -9 7 -9 16 0 11 5 14 16 10 9
-3 20 -6 25 -6z m114 -9 c-10 -17 -45 -20 -45 -4 0 8 4 12 9 8 5 -3 12 -1 16
5 4 6 11 8 16 4 5 -3 7 -9 4 -13z m-705 -11 c0 -5 -7 -7 -15 -4 -8 4 -12 10
-9 15 6 11 24 2 24 -11z m120 5 c0 -8 -7 -15 -15 -15 -16 0 -20 12 -8 23 11
12 23 8 23 -8z m785 3 c35 -16 31 -29 -5 -17 -16 6 -30 15 -30 20 0 12 4 11
35 -3z m-543 -30 c-15 -15 -26 -4 -18 18 5 13 9 15 18 6 9 -9 9 -15 0 -24z
m61 6 c-4 -10 -9 -12 -15 -6 -12 12 -1 35 12 27 5 -3 6 -13 3 -21z m37 -10 c0
-16 -16 -19 -25 -4 -8 13 4 32 16 25 5 -4 9 -13 9 -21z m296 -1 c-10 -10 -19
5 -10 18 6 11 8 11 12 0 2 -7 1 -15 -2 -18z m-796 1 c0 -2 -7 -4 -15 -4 -8 0
-15 4 -15 10 0 5 7 7 15 4 8 -4 15 -8 15 -10z m320 2 c0 -16 -18 -31 -27 -22
-8 8 5 36 17 36 5 0 10 -6 10 -14z m446 -13 c-10 -10 -19 5 -10 18 6 11 8 11
12 0 2 -7 1 -15 -2 -18z m264 6 c0 -11 -27 -12 -34 0 -3 4 -3 11 0 14 8 8 34
-3 34 -14z m108 -124 c-2 -1 -13 -6 -25 -9 -23 -7 -23 -6 -22 76 l1 83 24 -74
c14 -41 23 -75 22 -76z m-588 114 c0 -11 -4 -17 -10 -14 -5 3 -10 13 -10 21 0
8 5 14 10 14 6 0 10 -9 10 -21z m190 11 c0 -5 -5 -10 -11 -10 -5 0 -7 5 -4 10
3 6 8 10 11 10 2 0 4 -4 4 -10z m-685 -10 c3 -5 -1 -10 -9 -10 -9 0 -16 5 -16
10 0 6 4 10 9 10 6 0 13 -4 16 -10z m525 -5 c0 -8 -4 -15 -10 -15 -5 0 -10 7
-10 15 0 8 5 15 10 15 6 0 10 -7 10 -15z m310 5 c0 -5 -7 -10 -16 -10 -8 0
-12 5 -9 10 3 6 10 10 16 10 5 0 9 -4 9 -10z m40 0 c0 -5 -4 -10 -10 -10 -5 0
-10 5 -10 10 0 6 5 10 10 10 6 0 10 -4 10 -10z m-3947 -7 c-7 -2 -19 -2 -25 0
-7 3 -2 5 12 5 14 0 19 -2 13 -5z m3177 -13 c0 -11 -7 -20 -15 -20 -27 0 -18
30 13 39 1 1 2 -8 2 -19z m40 5 c0 -8 -7 -15 -15 -15 -8 0 -15 7 -15 15 0 8 7
15 15 15 8 0 15 -7 15 -15z m431 5 c5 0 9 -7 9 -16 0 -11 -5 -14 -16 -10 -9 3
-20 6 -25 6 -5 0 -9 7 -9 16 0 11 5 14 16 10 9 -3 20 -6 25 -6z m195 -17 c-10
-10 -19 5 -10 18 6 11 8 11 12 0 2 -7 1 -15 -2 -18z m168 11 c9 -3 16 -10 16
-15 0 -14 -24 -11 -46 6 -16 12 -17 14 -2 15 9 0 23 -3 32 -6z m-1067 -562
c-1 -103 -2 -18 -2 188 0 206 1 291 2 188 2 -104 2 -272 0 -376z m20 41 c-1
-98 -2 -20 -2 172 -1 193 1 273 2 178 2 -94 2 -252 0 -350z m53 507 c0 -5 -4
-10 -10 -10 -5 0 -10 5 -10 10 0 6 5 10 10 10 6 0 10 -4 10 -10z m770 0 c0 -5
-4 -10 -10 -10 -5 0 -10 5 -10 10 0 6 5 10 10 10 6 0 10 -4 10 -10z m-873
-568 c-1 -103 -2 -16 -2 193 0 209 1 293 2 187 2 -106 2 -277 0 -380z m182
552 c2 -2 2 -6 -1 -9 -8 -9 -58 6 -58 16 0 8 48 2 59 -7z m281 -4 c0 -11 -7
-20 -15 -20 -27 0 -18 30 13 39 1 1 2 -8 2 -19z m110 4 c0 -17 -22 -14 -28 4
-2 7 3 12 12 12 9 0 16 -7 16 -16z m270 6 c0 -5 -4 -10 -10 -10 -5 0 -10 5
-10 10 0 6 5 10 10 10 6 0 10 -4 10 -10z m-863 -493 c-1 -89 -3 -13 -3 168 0
182 2 254 3 162 2 -93 2 -241 0 -330z m673 467 c0 -8 -8 -13 -20 -11 -24 4
-34 13 -26 25 9 14 46 2 46 -14z m340 17 c0 -5 -11 -12 -24 -15 -13 -3 -31 -9
-40 -12 -11 -4 -16 -1 -16 11 0 9 4 14 9 11 5 -4 20 -2 33 3 30 13 38 13 38 2z
m68 -4 c6 0 12 -6 12 -13 0 -10 -7 -11 -30 -3 -16 6 -30 15 -30 21 0 6 8 7 18
3 9 -4 23 -8 30 -8z m-1098 -417 c0 -273 -3 -420 -10 -420 -7 0 -10 147 -10
420 0 273 3 420 10 420 7 0 10 -147 10 -420z m420 405 c0 -8 -7 -15 -15 -15
-16 0 -20 12 -8 23 11 12 23 8 23 -8z m-280 -5 c0 -5 -7 -10 -15 -10 -8 0 -15
5 -15 10 0 6 7 10 15 10 8 0 15 -4 15 -10z m240 -5 c0 -8 -7 -15 -15 -15 -8 0
-15 7 -15 15 0 8 7 15 15 15 8 0 15 -7 15 -15z m340 0 c0 -8 -4 -15 -10 -15
-5 0 -10 7 -10 15 0 8 5 15 10 15 6 0 10 -7 10 -15z m220 6 c0 -6 -4 -13 -10
-16 -5 -3 -10 1 -10 9 0 9 5 16 10 16 6 0 10 -4 10 -9z m-724 -22 c6 -10 -2
-11 -33 -3 -13 4 -23 10 -23 14 0 10 49 0 56 -11z m84 7 c0 -8 -4 -17 -9 -21
-12 -7 -24 12 -16 25 9 15 25 12 25 -4z m40 -1 c0 -8 -7 -15 -15 -15 -8 0 -15
7 -15 15 0 8 7 15 15 15 8 0 15 -7 15 -15z m410 0 c0 -8 -4 -15 -10 -15 -5 0
-10 7 -10 15 0 8 5 15 10 15 6 0 10 -7 10 -15z m410 5 c8 -5 11 -12 7 -16 -4
-4 -15 0 -24 9 -18 18 -8 23 17 7z m-274 -9 c-9 -14 -46 -20 -46 -7 0 6 11 13
26 14 14 1 23 -2 20 -7z m194 -11 c8 -5 12 -12 9 -15 -8 -8 -39 5 -39 16 0 11
11 11 30 -1z m-945 -10 c3 -5 -1 -10 -9 -10 -9 0 -16 5 -16 10 0 6 4 10 9 10
6 0 13 -4 16 -10z m415 -5 c0 -8 -7 -15 -15 -15 -8 0 -15 7 -15 15 0 8 7 15
15 15 8 0 15 -7 15 -15z m54 3 c-6 -10 -5 -10 8 -1 8 7 18 9 22 5 8 -7 13 -8
41 -11 8 0 15 -8 15 -16 0 -10 -7 -14 -22 -11 -13 3 -24 5 -25 7 -5 3 -23 6
-43 8 -23 1 -28 31 -4 31 9 0 12 -5 8 -12z m396 2 c0 -4 -11 -10 -25 -12 -16
-3 -25 -1 -25 7 0 7 11 13 25 13 14 0 25 -4 25 -8z m-790 -21 c0 -10 -12 -11
-34 -3 -25 10 -19 22 9 16 14 -2 25 -8 25 -13z m250 7 c0 -8 -4 -17 -9 -21
-12 -7 -24 12 -16 25 9 15 25 12 25 -4z m480 4 c0 -5 -4 -10 -9 -10 -5 0 -16
-3 -25 -6 -9 -3 -16 -1 -16 4 0 9 16 17 43 21 4 0 7 -3 7 -9z m210 -12 c0 -6
-7 -7 -16 -4 -9 3 -18 6 -20 6 -3 0 -3 4 1 10 7 11 35 2 35 -12z m-730 -3 c0
-8 -7 -15 -15 -15 -8 0 -15 7 -15 15 0 8 7 15 15 15 8 0 15 -7 15 -15z m-1172
-7 c-16 -5 -28 -14 -28 -19 0 -6 8 -6 19 1 11 5 22 10 26 10 3 0 4 -41 3 -92
-3 -90 -3 -92 -30 -99 l-27 -7 -3 99 c-3 90 -1 99 17 108 11 5 27 10 35 10 8
-1 3 -5 -12 -11z m100 -5 c32 -9 52 -18 47 -20 -6 -2 -35 5 -65 16 -68 24 -57
27 18 4z m992 3 c0 -8 -4 -17 -9 -21 -12 -7 -24 12 -16 25 9 15 25 12 25 -4z
m40 -1 c0 -8 -7 -15 -15 -15 -8 0 -15 7 -15 15 0 8 7 15 15 15 8 0 15 -7 15
-15z m340 0 c0 -8 -4 -15 -10 -15 -5 0 -10 7 -10 15 0 8 5 15 10 15 6 0 10 -7
10 -15z m30 -6 c0 -11 -4 -17 -10 -14 -5 3 -10 13 -10 21 0 8 5 14 10 14 6 0
10 -9 10 -21z m440 11 c0 -5 -4 -10 -10 -10 -5 0 -10 5 -10 10 0 6 5 10 10 10
6 0 10 -4 10 -10z m-410 -15 c0 -8 -4 -15 -10 -15 -5 0 -10 7 -10 15 0 8 5 15
10 15 6 0 10 -7 10 -15z m-605 -5 c3 -5 1 -10 -4 -10 -6 0 -11 5 -11 10 0 6 2
10 4 10 3 0 8 -4 11 -10z m825 -1 c0 -6 -6 -9 -14 -6 -7 3 -19 0 -25 -6 -8 -8
-11 -7 -11 6 0 11 8 17 25 17 14 0 25 -5 25 -11z m110 -4 c0 -13 -4 -14 -20
-5 -11 6 -20 13 -20 15 0 3 9 5 20 5 11 0 20 -7 20 -15z m-1795 -5 c3 -5 1
-10 -4 -10 -6 0 -11 5 -11 10 0 6 2 10 4 10 3 0 8 -4 11 -10z m895 0 c0 -5 -4
-10 -10 -10 -5 0 -10 5 -10 10 0 6 5 10 10 10 6 0 10 -4 10 -10z m940 -6 c0
-8 -5 -12 -10 -9 -6 4 -8 11 -5 16 9 14 15 11 15 -7z m130 6 c-8 -5 -22 -9
-30 -9 -10 0 -8 3 5 9 27 12 43 12 25 0z m-1914 -10 c15 -6 24 -13 22 -16 -8
-8 -58 7 -58 17 0 11 3 11 36 -1z m1184 -5 c0 -8 -7 -15 -15 -15 -8 0 -15 7
-15 15 0 8 7 15 15 15 8 0 15 -7 15 -15z m50 7 c0 -5 14 -7 30 -6 31 2 46 -9
35 -26 -5 -8 -12 -7 -22 2 -9 7 -18 12 -20 11 -12 -9 -43 0 -43 12 0 8 5 15
10 15 6 0 10 -4 10 -8z m-395 -34 c6 -7 -6 -8 -35 -3 -50 8 -60 12 -60 25 0
10 81 -9 95 -22z m295 17 c0 -8 -7 -15 -15 -15 -8 0 -15 7 -15 15 0 8 7 15 15
15 8 0 15 -7 15 -15z m360 5 c0 -5 -4 -10 -10 -10 -5 0 -10 5 -10 10 0 6 5 10
10 10 6 0 10 -4 10 -10z m330 0 c0 -5 -4 -10 -10 -10 -5 0 -10 5 -10 10 0 6 5
10 10 10 6 0 10 -4 10 -10z m130 -134 c0 -45 -1 -48 -22 -42 -13 3 -29 6 -35
6 -9 0 -13 23 -13 80 0 74 2 81 22 89 21 7 24 4 35 -38 7 -25 12 -68 13 -95z
m-900 119 c0 -8 -7 -15 -15 -15 -8 0 -15 7 -15 15 0 8 7 15 15 15 8 0 15 -7
15 -15z m689 -1 c2 -2 2 -6 -1 -9 -8 -9 -58 6 -58 16 0 8 48 2 59 -7z m-1789
-4 c0 -13 -11 -13 -30 0 -12 8 -11 10 8 10 12 0 22 -4 22 -10z m1020 -5 c0 -8
-7 -15 -15 -15 -16 0 -20 12 -8 23 11 12 23 8 23 -8z m380 -1 c0 -8 -4 -12
-10 -9 -5 3 -10 10 -10 16 0 5 5 9 10 9 6 0 10 -7 10 -16z m51 6 c5 0 9 -7 9
-16 0 -11 -5 -14 -16 -10 -9 3 -20 6 -25 6 -5 0 -9 7 -9 16 0 11 5 14 16 10 9
-3 20 -6 25 -6z m-1403 -6 c12 -4 22 -11 22 -16 0 -10 -39 -1 -54 13 -12 11
-1 11 32 3z m1572 -5 c0 -5 -7 -9 -15 -9 -8 0 -18 0 -22 -1 -4 0 -9 4 -11 9
-1 5 9 10 23 10 14 0 25 -4 25 -9z m250 -15 c0 -7 -7 -11 -15 -9 -8 3 -22 7
-31 10 -25 8 -7 23 21 17 14 -2 25 -10 25 -18z m-310 7 c0 -5 -9 -11 -20 -14
-12 -3 -20 0 -20 7 0 6 9 12 20 13 11 1 20 -2 20 -6z m-1566 -22 c-6 -11 -24
-2 -24 11 0 5 7 7 15 4 8 -4 12 -10 9 -15z m891 -2 c7 -6 -1 -8 -24 -3 -18 3
-40 6 -47 6 -8 0 -14 4 -14 9 0 12 71 2 85 -12z m-445 4 c0 -6 -4 -13 -10 -16
-5 -3 -10 1 -10 9 0 9 5 16 10 16 6 0 10 -4 10 -9z m80 -7 c0 -8 -4 -12 -10
-9 -5 3 -10 10 -10 16 0 5 5 9 10 9 6 0 10 -7 10 -16z m660 -4 c0 -11 -7 -20
-15 -20 -27 0 -18 30 13 39 1 1 2 -8 2 -19z m50 6 c0 -8 -7 -16 -15 -20 -10
-4 -15 1 -15 14 0 11 7 20 15 20 8 0 15 -6 15 -14z m96 -1 c10 -2 25 -4 32 -4
6 -1 12 -8 12 -16 0 -12 -8 -14 -32 -10 -18 4 -34 10 -36 14 -2 5 -12 7 -22 4
-14 -4 -20 0 -20 11 0 12 6 15 23 11 13 -4 32 -8 43 -10z m347 -1 c1 -4 -8 -9
-20 -10 -27 -4 -31 13 -5 18 19 5 23 3 25 -8z m37 6 c0 -5 -4 -10 -10 -10 -5
0 -10 5 -10 10 0 6 5 10 10 10 6 0 10 -4 10 -10z m91 -6 c27 -9 49 -21 49 -26
0 -6 -7 -7 -16 -4 -9 4 -36 11 -60 17 -24 6 -44 15 -44 20 0 13 14 11 71 -7z
m-1746 -4 c3 -5 -3 -10 -14 -10 -11 0 -23 5 -26 10 -3 6 3 10 14 10 11 0 23
-4 26 -10z m1045 -15 c0 -8 -7 -15 -15 -15 -8 0 -15 7 -15 15 0 8 7 15 15 15
8 0 15 -7 15 -15z m300 -7 c0 -16 -3 -19 -11 -11 -6 6 -8 16 -5 22 11 17 16
13 16 -11z m220 12 c0 -5 -4 -10 -10 -10 -5 0 -10 5 -10 10 0 6 5 10 10 10 6
0 10 -4 10 -10z m-644 -38 c-4 -3 -12 0 -19 7 -9 9 -9 14 3 21 11 7 16 5 18
-6 2 -9 1 -18 -2 -22z m44 23 c0 -8 -7 -15 -15 -15 -8 0 -15 7 -15 15 0 8 7
15 15 15 8 0 15 -7 15 -15z m410 0 c0 -8 -4 -15 -10 -15 -5 0 -10 7 -10 15 0
8 5 15 10 15 6 0 10 -7 10 -15z m135 5 c-3 -5 -15 -10 -26 -10 -10 0 -19 5
-19 10 0 6 12 10 26 10 14 0 23 -4 19 -10z m-1245 -10 c0 -5 -4 -10 -10 -10
-5 0 -10 5 -10 10 0 6 5 10 10 10 6 0 10 -4 10 -10z m190 0 c8 -5 12 -11 9
-14 -3 -3 -14 1 -25 9 -21 16 -8 20 16 5z m95 0 c3 -5 -1 -10 -9 -10 -8 0 -18
5 -21 10 -3 6 1 10 9 10 8 0 18 -4 21 -10z m-545 -10 c0 -5 -4 -10 -10 -10 -5
0 -10 5 -10 10 0 6 5 10 10 10 6 0 10 -4 10 -10z m375 -1 c-4 -5 -15 -9 -26
-9 -26 0 -17 15 10 17 12 1 19 -2 16 -8z m465 1 c0 -5 -7 -7 -15 -4 -8 4 -15
8 -15 10 0 2 7 4 15 4 8 0 15 -4 15 -10z m810 0 c0 -5 -4 -10 -10 -10 -5 0
-10 5 -10 10 0 6 5 10 10 10 6 0 10 -4 10 -10z m80 -11 c0 -11 -27 -12 -34 0
-3 4 -3 11 0 14 8 8 34 -3 34 -14z m-1185 -21 c14 -12 -10 -10 -40 4 -14 6
-25 15 -25 19 0 9 47 -8 65 -23z m1015 18 c0 -8 -10 -13 -25 -13 -41 0 -28 19
18 26 4 0 7 -5 7 -13z m30 4 c0 -5 -4 -10 -10 -10 -5 0 -10 5 -10 10 0 6 5 10
10 10 6 0 10 -4 10 -10z m-1591 -26 c2 -2 2 -6 0 -8 -7 -7 -89 15 -89 24 0 8
80 -6 89 -16z m761 16 c0 -5 -7 -10 -15 -10 -8 0 -15 5 -15 10 0 6 7 10 15 10
8 0 15 -4 15 -10z m408 -7 c-5 -25 -28 -28 -28 -4 0 12 6 21 16 21 9 0 14 -7
12 -17z m78 7 c8 0 14 -7 14 -15 0 -8 -4 -15 -10 -15 -5 0 -10 5 -10 11 0 8
-4 9 -13 0 -15 -12 -27 -5 -27 17 0 9 6 12 16 8 9 -3 22 -6 30 -6z m254 -3 c0
-7 -9 -13 -20 -14 -25 -2 -27 14 -2 20 9 3 18 5 20 6 1 0 2 -5 2 -12z m294 7
c25 -10 19 -26 -6 -19 -31 10 -47 25 -26 25 9 0 23 -3 32 -6z m-1514 -15 c0
-5 -9 -9 -20 -9 -11 0 -20 4 -20 8 0 4 9 8 20 9 11 1 20 -2 20 -8z m174 0 c14
-7 23 -16 20 -20 -6 -10 -54 10 -54 23 0 11 4 10 34 -3z m364 5 c33 -9 27 -21
-8 -16 -16 2 -30 8 -30 13 0 10 7 11 38 3z m262 -8 c0 -8 -4 -17 -9 -21 -12
-7 -24 12 -16 25 9 15 25 12 25 -4z m40 -1 c0 -8 -7 -15 -15 -15 -8 0 -15 7
-15 15 0 8 7 15 15 15 8 0 15 -7 15 -15z m-120 -9 c0 -8 -4 -17 -9 -21 -12 -7
-24 12 -16 25 9 15 25 12 25 -4z m40 -1 c0 -8 -7 -15 -15 -15 -8 0 -15 7 -15
15 0 8 7 15 15 15 8 0 15 -7 15 -15z m270 0 c0 -8 -4 -15 -10 -15 -5 0 -10 7
-10 15 0 8 5 15 10 15 6 0 10 -7 10 -15z m30 -6 c0 -11 -4 -17 -10 -14 -5 3
-10 13 -10 21 0 8 5 14 10 14 6 0 10 -9 10 -21z m-1010 2 c0 -5 -8 -11 -17
-14 -10 -2 -26 -8 -35 -12 -10 -4 -18 -3 -18 2 0 5 12 14 28 20 35 14 42 15
42 4z m630 -6 c0 -8 -7 -15 -15 -15 -8 0 -15 7 -15 15 0 8 7 15 15 15 8 0 15
-7 15 -15z m410 0 c0 -8 -4 -15 -10 -15 -5 0 -10 7 -10 15 0 8 5 15 10 15 6 0
10 -7 10 -15z m30 0 c0 -8 -4 -15 -10 -15 -5 0 -10 7 -10 15 0 8 5 15 10 15 6
0 10 -7 10 -15z m214 -6 c-3 -5 -10 -7 -15 -3 -5 3 -7 10 -3 15 3 5 10 7 15 3
5 -3 7 -10 3 -15z m36 11 c0 -5 -4 -10 -10 -10 -5 0 -10 5 -10 10 0 6 5 10 10
10 6 0 10 -4 10 -10z m70 0 c8 -5 12 -11 10 -14 -8 -7 -60 6 -60 15 0 12 31
11 50 -1z m-1833 -407 c-1 -76 -3 -14 -3 137 0 151 2 213 3 138 2 -76 2 -200
0 -275z m103 386 c12 -7 11 -8 -5 -9 -31 0 -65 11 -65 21 0 10 45 2 70 -12z
m540 -1 c0 -13 -23 -5 -28 10 -2 7 2 10 12 6 9 -3 16 -11 16 -16z m298 -3 c7
-7 -48 -6 -75 1 -13 4 -23 10 -23 14 0 8 89 -6 98 -15z m730 13 c-5 -14 -48
-22 -48 -9 0 8 17 16 43 20 5 0 7 -4 5 -11z m-1701 -380 c-1 -73 -3 -16 -3
127 0 143 2 203 3 133 2 -70 2 -187 0 -260z m547 361 c-3 -5 -10 -7 -15 -3 -5
3 -7 10 -3 15 3 5 10 7 15 3 5 -3 7 -10 3 -15z m36 5 c0 -8 -5 -12 -10 -9 -6
4 -8 11 -5 16 9 14 15 11 15 -7z m1035 7 c3 -5 1 -12 -5 -16 -5 -3 -10 1 -10
9 0 18 6 21 15 7z m-1668 -374 c-1 -67 -3 -9 -3 128 0 138 2 192 3 122 2 -71
2 -183 0 -250z m30 0 c-1 -67 -3 -9 -3 128 0 138 2 192 3 122 2 -71 2 -183 0
-250z m513 353 c0 -5 -4 -10 -10 -10 -5 0 -10 5 -10 10 0 6 5 10 10 10 6 0 10
-4 10 -10z m159 -6 c2 -2 2 -6 0 -9 -8 -7 -49 7 -49 17 0 8 38 2 49 -8z m659
-1 c-5 -25 -28 -28 -28 -4 0 12 6 21 16 21 9 0 14 -7 12 -17z m57 -13 c-5 -8
-11 -8 -17 -2 -6 6 -7 16 -3 22 5 8 11 8 17 2 6 -6 7 -16 3 -22z m-929 5 c-23
-17 -36 -19 -36 -6 0 5 8 12 18 14 32 9 37 6 18 -8z m784 1 c0 -8 -4 -17 -9
-21 -12 -7 -24 12 -16 25 9 15 25 12 25 -4z m40 -1 c0 -8 -7 -15 -15 -15 -8 0
-15 7 -15 15 0 8 7 15 15 15 8 0 15 -7 15 -15z m183 6 c9 -1 17 -8 17 -17 0
-12 -6 -15 -22 -10 -13 3 -31 6 -40 6 -10 0 -18 7 -18 15 0 10 7 14 23 11 12
-3 30 -5 40 -5z m317 1 c0 -13 -12 -22 -22 -16 -10 6 -1 24 13 24 5 0 9 -4 9
-8z m30 -2 c0 -5 -4 -10 -10 -10 -5 0 -10 5 -10 10 0 6 5 10 10 10 6 0 10 -4
10 -10z m40 0 c0 -5 -4 -10 -10 -10 -5 0 -10 5 -10 10 0 6 5 10 10 10 6 0 10
-4 10 -10z m-1685 -10 c3 -5 -1 -10 -10 -10 -9 0 -13 5 -10 10 3 6 8 10 10 10
2 0 7 -4 10 -10z m785 0 c0 -5 -9 -10 -19 -10 -11 0 -23 5 -26 10 -4 6 5 10
19 10 14 0 26 -4 26 -10z m170 -10 c0 -11 -7 -20 -15 -20 -15 0 -21 21 -8 33
12 13 23 7 23 -13z m40 5 c0 -8 -7 -15 -15 -15 -16 0 -20 12 -8 23 11 12 23 8
23 -8z m40 0 c0 -8 -7 -15 -15 -15 -8 0 -15 7 -15 15 0 8 7 15 15 15 8 0 15
-7 15 -15z m346 2 c8 3 14 -1 14 -10 0 -9 -10 -14 -25 -14 -19 0 -25 5 -25 20
0 16 3 18 11 10 6 -6 18 -9 25 -6z m140 -14 c-10 -10 -19 5 -10 18 6 11 8 11
12 0 2 -7 1 -15 -2 -18z m-1120 10 c-4 -5 -9 -7 -12 -6 -2 1 -22 -4 -44 -12
-22 -8 -40 -10 -40 -5 0 4 12 12 26 17 35 12 79 15 70 6z m58 1 c25 -10 19
-26 -6 -19 -31 10 -47 25 -26 25 9 0 23 -3 32 -6z m376 -4 c0 -5 -4 -10 -9
-10 -6 0 -13 5 -16 10 -3 6 1 10 9 10 9 0 16 -4 16 -10z m660 0 c0 -5 -4 -10
-10 -10 -5 0 -10 5 -10 10 0 6 5 10 10 10 6 0 10 -4 10 -10z m-1560 -20 c0 -5
-4 -10 -9 -10 -6 0 -13 5 -16 10 -3 6 1 10 9 10 9 0 16 -4 16 -10z m590 -12
c0 -6 -7 -7 -16 -4 -9 3 -18 6 -20 6 -3 0 -3 4 1 10 7 11 35 2 35 -12z m-520
2 c0 -12 -17 -12 -45 0 -17 7 -15 9 13 9 17 1 32 -3 32 -9z m270 1 c0 -5 -9
-11 -20 -14 -22 -6 -28 8 -7 16 19 8 27 8 27 -2z m500 -1 c0 -5 -11 -10 -25
-10 -14 0 -25 5 -25 10 0 6 11 10 25 10 14 0 25 -4 25 -10z m810 -5 c0 -8 -4
-15 -10 -15 -5 0 -10 7 -10 15 0 8 5 15 10 15 6 0 10 -7 10 -15z m-1140 -5 c8
-5 12 -11 9 -14 -3 -3 -14 1 -25 9 -21 16 -8 20 16 5z m360 0 c0 -5 -2 -10 -4
-10 -3 0 -8 5 -11 10 -3 6 -1 10 4 10 6 0 11 -4 11 -10z m355 -10 c0 -7 -6
-15 -12 -17 -8 -3 -13 4 -13 17 0 13 5 20 13 18 6 -3 12 -11 12 -18z m365 10
c0 -5 -4 -10 -10 -10 -5 0 -10 5 -10 10 0 6 5 10 10 10 6 0 10 -4 10 -10z m30
0 c0 -5 -4 -10 -10 -10 -5 0 -10 5 -10 10 0 6 5 10 10 10 6 0 10 -4 10 -10z
m-1220 -20 c-20 -13 -63 -13 -55 0 4 6 9 9 13 6 4 -2 16 0 27 4 25 9 35 2 15
-10z m40 16 c0 -3 -4 -8 -10 -11 -5 -3 -10 -1 -10 4 0 6 5 11 10 11 6 0 10 -2
10 -4z m740 -11 c0 -8 -7 -15 -15 -15 -8 0 -15 7 -15 15 0 8 7 15 15 15 8 0
15 -7 15 -15z m137 0 c0 -18 -19 -15 -25 3 -2 7 3 12 11 12 7 0 14 -7 14 -15z
m83 -5 c0 -4 -17 -6 -37 -5 -48 4 -45 4 -39 13 6 10 76 3 76 -8z m160 10 c0
-5 -2 -10 -4 -10 -3 0 -8 5 -11 10 -3 6 -1 10 4 10 6 0 11 -4 11 -10z m-2976
-16 c5 -14 4 -15 -9 -4 -17 14 -19 20 -6 20 5 0 12 -7 15 -16z m1461 6 c16 -7
11 -9 -20 -9 -22 0 -47 4 -55 9 -19 13 46 13 75 0z m525 0 c0 -5 -7 -10 -15
-10 -8 0 -15 5 -15 10 0 6 7 10 15 10 8 0 15 -4 15 -10z m450 -4 c0 -8 -4 -17
-9 -21 -12 -7 -24 12 -16 25 9 15 25 12 25 -4z m40 -1 c0 -8 -7 -15 -15 -15
-8 0 -15 7 -15 15 0 8 7 15 15 15 8 0 15 -7 15 -15z m40 0 c0 -8 -7 -15 -15
-15 -8 0 -15 7 -15 15 0 8 7 15 15 15 8 0 15 -7 15 -15z m-255 -5 c3 -5 -1
-10 -9 -10 -9 0 -16 5 -16 10 0 6 4 10 9 10 6 0 13 -4 16 -10z m1125 -8 c38
-20 70 -72 70 -113 0 -22 -6 -28 -31 -33 -37 -7 -49 -1 -49 25 0 27 -35 25
-54 -3 -9 -13 -16 -43 -16 -71 l0 -48 38 3 c35 3 37 2 37 -27 0 -25 -5 -32
-35 -41 l-35 -12 0 -318 c0 -312 0 -320 -23 -361 -12 -24 -41 -55 -64 -70 -34
-23 -52 -28 -102 -27 -52 0 -79 8 -185 58 -140 64 -203 81 -267 71 l-44 -6 -2
248 c-2 136 -3 294 -3 351 0 63 -4 101 -10 99 -5 -2 -20 -21 -32 -43 -27 -47
-31 -136 -8 -190 8 -20 12 -40 9 -45 -7 -12 -81 -11 -105 1 -19 11 -19 7 -17
-142 l3 -153 38 2 c37 2 37 2 37 -36 0 -92 -123 -156 -194 -100 l-26 20 -33
-35 c-40 -42 -73 -56 -130 -56 -43 0 -103 29 -113 54 -3 9 -26 -7 -67 -49 -52
-51 -72 -64 -123 -78 -76 -21 -89 -21 -141 3 l-42 19 -38 -39 c-67 -66 -164
-77 -217 -24 -31 32 -46 81 -46 155 0 73 -19 93 -55 59 -23 -22 -25 -29 -27
-158 l-3 -136 -80 -17 c-43 -10 -83 -15 -87 -13 -4 3 -8 18 -8 35 l0 29 -38
-38 c-51 -51 -105 -75 -179 -80 -50 -3 -69 0 -97 16 l-35 21 -21 -29 c-24 -33
-112 -80 -151 -80 -43 0 -77 20 -102 59 -21 34 -22 46 -22 256 l0 219 75 17
c41 10 78 15 82 13 5 -3 8 -42 8 -88 0 -46 3 -138 7 -204 5 -110 8 -122 25
-122 10 0 27 9 37 19 17 17 18 30 14 104 -9 139 29 253 107 320 74 63 188 73
229 21 52 -66 29 -149 -40 -149 -33 0 -34 1 -39 45 -6 57 -28 59 -55 5 -27
-56 -34 -224 -11 -279 16 -37 17 -38 56 -33 50 6 80 26 117 73 l28 37 5 276 5
275 78 30 c43 16 79 27 81 25 2 -2 5 -77 7 -166 2 -90 7 -163 10 -163 3 0 32
34 65 75 59 75 66 79 157 99 46 11 33 -23 -39 -95 l-66 -66 34 -7 c42 -8 85
-50 98 -97 6 -18 10 -60 10 -91 0 -55 1 -58 25 -58 36 0 48 31 40 104 -9 86 8
179 47 256 27 53 42 70 85 96 129 77 233 37 233 -91 0 -25 -7 -62 -15 -83 -20
-46 -78 -108 -127 -133 -40 -20 -44 -32 -28 -73 19 -50 112 -29 162 36 22 29
26 46 31 138 6 125 25 183 77 243 48 54 93 77 154 77 l45 0 3 101 3 101 79 29
c90 33 99 29 94 -33 -4 -40 7 -51 17 -19 10 32 120 127 179 155 31 15 76 29
101 33 l45 6 0 -376 0 -377 28 -6 c15 -3 60 -15 101 -26 l74 -20 21 21 20 21
-37 0 c-53 0 -91 23 -113 67 -16 33 -19 67 -22 250 -3 197 -2 212 15 216 51
15 136 28 148 23 12 -4 15 -44 17 -207 2 -140 6 -204 14 -206 7 -2 25 7 40 21
l29 24 5 289 c3 192 9 295 17 308 32 56 112 103 173 105 14 0 41 -8 60 -18z
m-1080 -2 c0 -5 -4 -10 -10 -10 -5 0 -10 5 -10 10 0 6 5 10 10 10 6 0 10 -4
10 -10z m-450 -11 c0 -5 -12 -9 -26 -9 -14 0 -23 4 -20 8 7 11 46 12 46 1z
m95 1 c3 -5 -3 -10 -14 -10 -12 0 -21 5 -21 10 0 6 6 10 14 10 8 0 18 -4 21
-10z m-505 -10 c0 -5 -9 -10 -19 -10 -11 0 -23 5 -26 10 -4 6 5 10 19 10 14 0
26 -4 26 -10z m540 0 c0 -5 -5 -10 -11 -10 -5 0 -7 5 -4 10 3 6 8 10 11 10 2
0 4 -4 4 -10z m-503 -6 c-3 -3 -12 -4 -19 -1 -8 3 -5 6 6 6 11 1 17 -2 13 -5z
m753 -4 c0 -5 -7 -10 -15 -10 -8 0 -15 5 -15 10 0 6 7 10 15 10 8 0 15 -4 15
-10z m-500 -4 c0 -3 -4 -8 -10 -11 -5 -3 -10 -1 -10 4 0 6 5 11 10 11 6 0 10
-2 10 -4z m290 0 c0 -3 -4 -8 -10 -11 -5 -3 -10 -1 -10 4 0 6 5 11 10 11 6 0
10 -2 10 -4z m290 -6 c0 -5 -13 -10 -30 -10 -16 0 -30 5 -30 10 0 6 14 10 30
10 17 0 30 -4 30 -10z m200 -10 c0 -11 -4 -20 -9 -20 -14 0 -23 18 -16 30 10
17 25 11 25 -10z m40 5 c0 -8 -7 -15 -15 -15 -16 0 -20 12 -8 23 11 12 23 8
23 -8z m37 9 c-3 -3 -12 -4 -19 -1 -8 3 -5 6 6 6 11 1 17 -2 13 -5z m-1167
-20 c0 -2 -9 -4 -20 -4 -11 0 -20 4 -20 9 0 5 9 7 20 4 11 -3 20 -7 20 -9z
m520 6 c12 -8 9 -10 -12 -10 -15 0 -30 5 -33 10 -8 13 25 13 45 0z m450 -10
c0 -11 -4 -20 -9 -20 -14 0 -23 18 -16 30 10 17 25 11 25 -10z m40 5 c0 -8 -7
-15 -15 -15 -16 0 -20 12 -8 23 11 12 23 8 23 -8z m40 0 c0 -8 -7 -15 -15 -15
-8 0 -15 7 -15 15 0 8 7 15 15 15 8 0 15 -7 15 -15z m-670 -5 c0 -5 -7 -10
-15 -10 -21 0 -27 -1 -52 -11 -14 -5 -23 -5 -23 1 0 5 12 12 28 16 15 3 32 7
37 9 19 6 25 5 25 -5z m209 -9 c7 -5 9 -11 5 -14 -10 -5 -54 9 -54 18 0 8 34
6 49 -4z m251 -13 c0 -6 -7 -7 -16 -4 -9 3 -22 6 -30 6 -8 0 -14 4 -14 8 0 5
14 7 30 4 17 -2 30 -9 30 -14z m-655 2 c-3 -5 -11 -10 -16 -10 -6 0 -7 5 -4
10 3 6 11 10 16 10 6 0 7 -4 4 -10z m705 0 c0 -5 -7 -10 -15 -10 -8 0 -15 5
-15 10 0 6 7 10 15 10 8 0 15 -4 15 -10z m-870 -16 c0 -2 -7 -4 -15 -4 -8 0
-15 4 -15 10 0 5 7 7 15 4 8 -4 15 -8 15 -10z m435 7 c-15 -14 -95 -25 -95
-13 0 6 12 12 28 14 69 8 76 8 67 -1z m80 -3 c51 -14 62 -33 13 -23 -42 10
-78 23 -78 30 0 8 15 6 65 -7z m-485 -8 c0 -5 -2 -10 -4 -10 -3 0 -8 5 -11 10
-3 6 -1 10 4 10 6 0 11 -4 11 -10z m214 1 c4 -5 -3 -7 -14 -4 -23 6 -26 13 -6
13 8 0 17 -4 20 -9z m-99 -11 c-3 -5 -14 -10 -23 -10 -15 0 -15 2 -2 10 20 13
33 13 25 0z m165 1 c0 -5 -9 -11 -20 -14 -22 -6 -28 8 -7 16 19 8 27 8 27 -2z
m1261 -20 c22 -23 29 -39 29 -69 0 -89 -102 -127 -162 -61 -39 41 -38 90 1
130 22 21 39 29 66 29 27 0 44 -8 66 -29z m-1331 9 c8 -5 11 -10 5 -10 -5 0
-17 5 -25 10 -8 5 -10 10 -5 10 6 0 17 -5 25 -10z m600 0 c0 -5 -13 -10 -29
-10 -17 0 -33 5 -36 10 -4 6 8 10 29 10 20 0 36 -4 36 -10z m-870 -10 c0 -5
-7 -10 -15 -10 -8 0 -15 5 -15 10 0 6 7 10 15 10 8 0 15 -4 15 -10z m70 -6 c0
-2 -14 -4 -31 -4 -16 0 -28 4 -25 9 5 8 56 3 56 -5z m57 10 c-3 -3 -12 -4 -19
-1 -8 3 -5 6 6 6 11 1 17 -2 13 -5z m123 -10 l25 -15 -25 7 c-14 3 -29 10 -34
15 -16 14 6 10 34 -7z m210 6 c0 -5 -5 -10 -11 -10 -5 0 -7 5 -4 10 3 6 8 10
11 10 2 0 4 -4 4 -10z m-295 -10 c-11 -5 -27 -9 -35 -9 -9 0 -8 4 5 9 11 5 27
9 35 9 9 0 8 -4 -5 -9z m245 2 c0 -5 -25 -13 -55 -19 -30 -5 -55 -6 -55 -1 0
7 19 13 70 21 14 3 28 5 33 6 4 0 7 -3 7 -7z m130 -2 c0 -5 -6 -10 -14 -10 -8
0 -18 5 -21 10 -3 6 3 10 14 10 12 0 21 -4 21 -10z m-340 -9 c0 -5 -9 -11 -20
-14 -11 -3 -20 -1 -20 3 0 5 8 11 18 13 9 3 18 5 20 6 1 0 2 -3 2 -8z m397 -8
c3 -7 -3 -9 -17 -6 -29 8 -37 25 -9 21 12 -1 24 -8 26 -15z m-341 -8 c17 -13
16 -14 -13 -4 -34 11 -42 19 -20 19 7 0 22 -7 33 -15z m564 5 c0 -5 -7 -10
-15 -10 -8 0 -15 5 -15 10 0 6 7 10 15 10 8 0 15 -4 15 -10z m-790 -10 c0 -5
-13 -10 -30 -10 -16 0 -30 5 -30 10 0 6 14 10 30 10 17 0 30 -4 30 -10z m35 0
c3 -5 -1 -10 -10 -10 -9 0 -13 5 -10 10 3 6 8 10 10 10 2 0 7 -4 10 -10z m398
-6 c1 -4 -8 -9 -20 -10 -27 -4 -31 13 -5 18 19 5 23 3 25 -8z m73 -5 c6 -10
-17 -12 -40 -3 -9 3 -14 10 -11 14 6 10 43 1 51 -11z m1766 -19 c78 -83 16
-251 -114 -313 -21 -10 -38 -22 -38 -27 0 -19 23 -59 37 -64 20 -8 74 17 102
48 34 37 51 34 51 -9 0 -110 -121 -202 -235 -181 -94 18 -140 112 -133 271 3
81 8 101 38 161 40 79 87 121 157 140 63 17 102 9 135 -26z m-2112 21 c-8 -5
-33 -12 -55 -15 l-40 -6 45 14 c53 17 71 19 50 7z m60 -7 l25 -15 -25 7 c-14
3 -29 10 -34 15 -16 14 6 10 34 -7z m136 -1 c-10 -11 -36 -12 -36 -2 0 5 10 9
22 9 12 0 18 -3 14 -7z m-66 -7 c0 -3 -4 -8 -10 -11 -5 -3 -10 -1 -10 4 0 6 5
11 10 11 6 0 10 -2 10 -4z m290 0 c0 -3 -4 -8 -10 -11 -5 -3 -10 -1 -10 4 0 6
5 11 10 11 6 0 10 -2 10 -4z m-570 -16 c0 -5 -11 -10 -24 -10 -14 0 -28 5 -31
10 -4 6 7 10 24 10 17 0 31 -4 31 -10z m115 -5 c-27 -8 -51 -12 -54 -10 -2 3
2 7 10 9 8 2 21 7 29 9 8 3 26 5 40 5 15 0 5 -5 -25 -13z m100 5 c13 -5 14 -9
5 -9 -8 0 -24 4 -35 9 -13 5 -14 9 -5 9 8 0 24 -4 35 -9z m211 -7 c-11 -11
-46 -14 -46 -3 0 6 12 10 27 10 14 0 23 -3 19 -7z m34 -3 c0 -5 -2 -10 -4 -10
-3 0 -8 5 -11 10 -3 6 -1 10 4 10 6 0 11 -4 11 -10z m-325 -10 c-3 -5 -14 -10
-23 -9 -14 0 -13 2 3 9 27 11 27 11 20 0z m95 -12 c10 -6 7 -7 -10 -2 -14 3
-32 11 -40 16 -10 6 -7 7 10 2 14 -3 32 -11 40 -16z m90 12 c0 -5 -10 -10 -22
-9 -22 0 -22 1 -3 9 11 5 21 9 23 9 1 1 2 -3 2 -9z m225 0 c8 -13 -35 -13 -55
0 -11 7 -7 10 17 10 17 0 35 -4 38 -10z m-592 -17 c-7 -2 -19 -2 -25 0 -7 3
-2 5 12 5 14 0 19 -2 13 -5z m67 -3 c0 -5 -9 -10 -19 -10 -11 0 -23 5 -26 10
-4 6 5 10 19 10 14 0 26 -4 26 -10z m140 0 c0 -5 -12 -10 -27 -9 l-28 1 25 8
c14 4 26 8 28 9 1 1 2 -3 2 -9z m65 -10 c25 -11 -1 -11 -35 0 -20 6 -21 8 -5
8 11 0 29 -3 40 -8z m195 0 c0 -5 -5 -10 -11 -10 -5 0 -7 5 -4 10 3 6 8 10 11
10 2 0 4 -4 4 -10z m60 0 c0 -5 -9 -10 -20 -10 -11 0 -20 5 -20 10 0 6 9 10
20 10 11 0 20 -4 20 -10z m-387 -7 c-7 -2 -19 -2 -25 0 -7 3 -2 5 12 5 14 0
19 -2 13 -5z m277 -1 c0 -5 -21 -9 -47 -10 -30 -1 -41 2 -30 6 27 11 77 14 77
4z m-410 -18 c0 -2 -7 -4 -15 -4 -8 0 -15 4 -15 10 0 5 7 7 15 4 8 -4 15 -8
15 -10z m185 7 c-35 -14 -90 -22 -80 -12 6 5 24 11 40 14 49 7 61 6 40 -2z
m84 -7 c10 -9 -35 -3 -49 6 -11 8 -7 9 15 4 17 -4 32 -8 34 -10z m331 6 c0 -5
-4 -10 -9 -10 -6 0 -13 5 -16 10 -3 6 1 10 9 10 9 0 16 -4 16 -10z m-533 -6
c-3 -3 -12 -4 -19 -1 -8 3 -5 6 6 6 11 1 17 -2 13 -5z m212 -30 c9 -9 -53 7
-63 17 -5 5 5 4 24 -1 18 -5 35 -12 39 -16z m180 12 c-10 -10 -69 -16 -69 -7
0 5 15 11 33 13 33 3 44 1 36 -6z m41 4 c0 -5 -5 -10 -11 -10 -5 0 -7 5 -4 10
3 6 8 10 11 10 2 0 4 -4 4 -10z m-350 -10 c-34 -11 -60 -11 -35 0 11 5 29 8
40 8 16 0 15 -2 -5 -8z m214 1 c3 -5 -5 -11 -19 -13 -28 -6 -35 8 -7 15 9 3
18 5 19 6 1 0 4 -3 7 -8z m186 -1 c0 -5 -7 -10 -15 -10 -8 0 -15 5 -15 10 0 6
7 10 15 10 8 0 15 -4 15 -10z m-480 -10 c0 -5 -16 -10 -35 -10 -19 0 -35 5
-35 10 0 6 16 10 35 10 19 0 35 -4 35 -10z m530 0 c0 -5 -4 -10 -9 -10 -6 0
-13 5 -16 10 -3 6 1 10 9 10 9 0 16 -4 16 -10z m-1187 -49 c79 -84 171 -242
149 -255 -4 -2 -35 -7 -69 -11 l-63 -7 -2 44 -1 43 -4 -42 c-2 -24 -8 -43 -13
-43 -5 0 -21 -12 -36 -27 l-27 -27 -14 39 c-7 21 -24 53 -38 71 -20 27 -24 41
-21 79 3 25 10 62 16 81 12 35 30 46 30 18 0 -8 5 -12 10 -9 6 3 10 0 10 -7 0
-7 9 -19 20 -26 17 -10 20 -10 20 6 0 10 -6 24 -12 31 -10 11 -10 13 0 7 14
-8 17 10 2 19 -5 3 -7 12 -4 19 3 8 1 17 -5 21 -13 7 -15 25 -2 25 4 0 29 -22
54 -49z m784 43 c-3 -3 -12 -4 -19 -1 -8 3 -5 6 6 6 11 1 17 -2 13 -5z m40 0
c-3 -3 -12 -4 -19 -1 -8 3 -5 6 6 6 11 1 17 -2 13 -5z m-94 -11 c-7 -2 -19 -2
-25 0 -7 3 -2 5 12 5 14 0 19 -2 13 -5z m134 1 c-3 -3 -12 -4 -19 -1 -8 3 -5
6 6 6 11 1 17 -2 13 -5z m-791 -60 c-3 -8 -2 -13 2 -11 4 2 25 12 47 22 22 9
48 24 58 33 9 8 17 13 17 11 0 -5 -27 -135 -36 -171 -3 -16 -9 -28 -13 -28 -3
0 -19 21 -36 48 -16 26 -49 71 -73 100 l-43 53 41 -21 c29 -15 40 -26 36 -36z
m709 46 c-3 -5 -11 -10 -16 -10 -6 0 -7 5 -4 10 3 6 11 10 16 10 6 0 7 -4 4
-10z m56 -8 c-13 -2 -27 0 -32 5 -6 6 3 7 23 4 28 -4 29 -6 9 -9z m139 7 c0
-5 -6 -9 -12 -10 -7 0 -23 -2 -35 -5 -27 -5 -32 13 -5 18 35 7 52 7 52 -3z
m76 4 c-11 -11 -46 -14 -46 -3 0 6 12 10 27 10 14 0 23 -3 19 -7z m74 -3 c0
-5 -9 -10 -20 -10 -11 0 -20 5 -20 10 0 6 9 10 20 10 11 0 20 -4 20 -10z m30
-6 c0 -8 -5 -12 -10 -9 -6 4 -8 11 -5 16 9 14 15 11 15 -7z m-875 -44 c-3 -4
-13 -10 -22 -12 -14 -4 -18 2 -19 27 l0 32 22 -20 c13 -11 21 -23 19 -27z
m305 40 c0 -5 -7 -10 -15 -10 -8 0 -15 5 -15 10 0 6 7 10 15 10 8 0 15 -4 15
-10z m70 0 c0 -5 -4 -10 -9 -10 -6 0 -13 5 -16 10 -3 6 1 10 9 10 9 0 16 -4
16 -10z m89 6 c-12 -10 -60 -16 -54 -6 3 5 18 10 32 10 15 0 24 -2 22 -4z m40
-20 c-2 -2 -22 -6 -44 -10 -29 -5 -36 -4 -25 3 13 10 79 16 69 7z m78 -12 c-3
-3 -12 -4 -19 -1 -8 3 -5 6 6 6 11 1 17 -2 13 -5z m183 -4 c0 -5 -16 -10 -36
-10 -19 0 -33 4 -30 8 7 12 66 14 66 2z m60 0 c0 -5 -6 -10 -14 -10 -8 0 -18
5 -21 10 -3 6 3 10 14 10 12 0 21 -4 21 -10z m70 -12 c0 -6 -7 -7 -16 -4 -9 3
-20 6 -25 6 -5 0 -9 4 -9 9 0 4 11 6 25 3 14 -2 25 -9 25 -14z m-590 2 c0 -5
-4 -10 -10 -10 -5 0 -10 5 -10 10 0 6 5 10 10 10 6 0 10 -4 10 -10z m195 0
c-3 -5 -23 -9 -43 -9 l-37 2 35 7 c52 11 52 11 45 0z m45 0 c12 -8 11 -10 -7
-10 -13 0 -23 5 -23 10 0 13 11 13 30 0z m126 2 c-7 -12 -66 -14 -66 -2 0 5
16 10 36 10 19 0 33 -4 30 -8z m-746 -31 c0 -6 -4 -13 -10 -16 -5 -3 -10 1
-10 9 0 9 5 16 10 16 6 0 10 -4 10 -9z m410 -1 c0 -5 -4 -10 -10 -10 -5 0 -10
5 -10 10 0 6 5 10 10 10 6 0 10 -4 10 -10z m117 4 c-3 -3 -12 -4 -19 -1 -8 3
-5 6 6 6 11 1 17 -2 13 -5z m50 0 c-3 -3 -12 -4 -19 -1 -8 3 -5 6 6 6 11 1 17
-2 13 -5z m56 -1 c-7 -2 -19 -2 -25 0 -7 3 -2 5 12 5 14 0 19 -2 13 -5z m319
-3 c18 0 27 -4 23 -10 -8 -13 -95 -3 -110 12 -7 7 1 9 24 4 18 -3 47 -6 63 -6z
m-182 -4 c0 -9 -40 -13 -46 -5 -3 5 6 9 20 9 14 0 26 -2 26 -4z m-330 -16 c0
-5 -4 -10 -10 -10 -5 0 -10 5 -10 10 0 6 5 10 10 10 6 0 10 -4 10 -10z m110 0
c0 -5 -17 -9 -37 -9 l-38 2 35 7 c19 4 36 8 38 9 1 0 2 -3 2 -9z m97 -6 c-3
-3 -12 -4 -19 -1 -8 3 -5 6 6 6 11 1 17 -2 13 -5z m-237 -14 c0 -5 -4 -10 -9
-10 -6 0 -13 5 -16 10 -3 6 1 10 9 10 9 0 16 -4 16 -10z m167 -6 c-3 -3 -12
-4 -19 -1 -8 3 -5 6 6 6 11 1 17 -2 13 -5z m61 -1 c-10 -2 -26 -2 -35 0 -10 3
-2 5 17 5 19 0 27 -2 18 -5z m-79 -16 c-10 -9 -59 -17 -59 -9 0 4 14 9 32 10
18 2 30 1 27 -1z m58 -3 c-3 -3 -12 -4 -19 -1 -8 3 -5 6 6 6 11 1 17 -2 13 -5z
m-1220 -156 c-4 -18 -29 -197 -57 -398 -28 -201 -55 -374 -60 -386 -6 -16 -26
-24 -85 -37 -43 -10 -80 -16 -82 -14 -2 3 -27 101 -57 218 -44 179 -53 208
-59 179 -3 -19 -18 -123 -33 -230 -15 -107 -30 -199 -35 -204 -11 -12 -158
-45 -164 -36 -2 4 -36 137 -75 296 -39 159 -75 306 -81 328 l-10 38 -24 -22
c-13 -12 -31 -37 -39 -55 -21 -43 -20 -138 1 -182 20 -43 7 -56 -50 -49 -48 5
-74 28 -88 77 -34 110 59 257 211 334 46 24 133 46 142 37 8 -8 118 -468 118
-494 0 -9 4 -19 8 -22 5 -3 21 106 36 242 15 136 30 264 33 284 5 36 6 36 76
52 39 9 74 13 78 9 4 -5 20 -60 35 -123 14 -63 41 -178 59 -255 18 -77 35
-133 38 -125 3 8 17 128 32 265 14 138 30 260 35 272 9 21 28 29 79 32 21 1
23 -2 18 -31z m174 -7 c21 -22 29 -39 29 -66 0 -27 -8 -44 -29 -66 -22 -21
-39 -29 -66 -29 -83 0 -127 105 -69 164 38 38 95 36 135 -3z"/>
<path d="M4539 2436 c13 -7 30 -24 37 -37 7 -13 13 -18 14 -11 0 17 -45 62
-62 62 -7 -1 -2 -7 11 -14z"/>
<path d="M4361 2395 c-17 -20 -31 -43 -30 -53 0 -11 4 -9 10 8 6 14 22 37 36
53 15 15 24 27 21 27 -3 0 -20 -16 -37 -35z"/>
<path d="M4470 2365 c-13 -14 -22 -27 -19 -29 2 -2 14 10 27 25 29 36 24 38
-8 4z"/>
<path d="M4561 2344 c0 -11 3 -14 6 -6 3 7 2 16 -1 19 -3 4 -6 -2 -5 -13z"/>
<path d="M3928 2268 c5 -113 9 -125 10 -30 1 50 -1 92 -5 92 -5 0 -7 -28 -5
-62z"/>
<path d="M4322 2295 c0 -16 2 -22 5 -12 2 9 2 23 0 30 -3 6 -5 -1 -5 -18z"/>
<path d="M4443 2260 c0 -36 2 -50 4 -32 2 17 2 47 0 65 -2 17 -4 3 -4 -33z"/>
<path d="M3804 2284 c-18 -14 -18 -14 6 -3 31 14 36 19 24 19 -6 0 -19 -7 -30
-16z"/>
<path d="M3700 2205 c-24 -25 -42 -45 -39 -45 3 0 25 20 49 45 24 25 42 45 39
45 -3 0 -25 -20 -49 -45z"/>
<path d="M3749 2203 l-24 -28 28 24 c15 14 27 26 27 28 0 8 -8 1 -31 -24z"/>
<path d="M3375 1866 c-25 -38 -35 -86 -35 -173 0 -127 26 -169 76 -123 23 23
24 27 24 172 l0 148 -25 0 c-15 0 -31 -9 -40 -24z"/>
<path d="M2981 1778 c-23 -52 -37 -148 -23 -148 18 0 61 60 67 94 9 45 3 89
-13 94 -7 2 -20 -14 -31 -40z"/>
<path d="M4269 1560 l-24 -19 28 -1 c20 0 27 5 27 20 0 25 -2 25 -31 0z"/>
<path d="M4123 2330 c16 -5 34 -12 41 -17 6 -4 3 0 -7 10 -11 9 -29 17 -41 16
-17 -1 -16 -2 7 -9z"/>
<path d="M4056 2308 c-9 -12 -16 -34 -15 -48 1 -21 2 -19 9 10 5 18 16 40 26
47 10 7 13 13 6 13 -6 0 -18 -10 -26 -22z"/>
<path d="M4179 2258 c-3 -22 -1 -34 4 -29 5 5 7 21 5 37 -3 27 -4 26 -9 -8z"/>
<path d="M4067 2209 c12 -12 24 -21 27 -18 2 2 -8 13 -22 23 l-27 19 22 -24z"/>
<path d="M4140 2200 c-8 -5 -10 -10 -5 -10 6 0 17 5 25 10 8 5 11 10 5 10 -5
0 -17 -5 -25 -10z"/>
<path d="M4758 2263 c7 -3 16 -2 19 1 4 3 -2 6 -13 5 -11 0 -14 -3 -6 -6z"/>
<path d="M4831 2267 c2 -1 15 -11 29 -22 l25 -20 -19 23 c-11 12 -24 22 -29
22 -6 0 -8 -1 -6 -3z"/>
<path d="M4667 2218 c-31 -31 -31 -32 -2 -8 16 14 34 28 40 32 5 5 6 8 2 8 -4
0 -22 -15 -40 -32z"/>
<path d="M4749 2213 c-13 -16 -12 -17 4 -4 16 13 21 21 13 21 -2 0 -10 -8 -17
-17z"/>
<path d="M4766 2188 c-17 -29 -25 -53 -35 -118 -10 -60 5 -67 39 -20 28 40 43
94 35 131 -8 35 -20 37 -39 7z"/>
<path d="M4829 2023 c-13 -16 -12 -17 4 -4 16 13 21 21 13 21 -2 0 -10 -8 -17
-17z"/>
<path d="M1560 1790 c0 -16 2 -30 4 -30 2 0 6 14 8 30 3 17 1 30 -4 30 -4 0
-8 -13 -8 -30z"/>
<path d="M1528 1803 c7 -3 16 -2 19 1 4 3 -2 6 -13 5 -11 0 -14 -3 -6 -6z"/>
<path d="M1512 1735 c0 -16 2 -22 5 -12 2 9 2 23 0 30 -3 6 -5 -1 -5 -18z"/>
<path d="M1248 1743 c7 -3 16 -2 19 1 4 3 -2 6 -13 5 -11 0 -14 -3 -6 -6z"/>
<path d="M1171 1714 c0 -11 3 -14 6 -6 3 7 2 16 -1 19 -3 4 -6 -2 -5 -13z"/>
<path d="M1552 1710 c0 -14 2 -19 5 -12 2 6 2 18 0 25 -3 6 -5 1 -5 -13z"/>
<path d="M908 1673 c6 -2 18 -2 25 0 6 3 1 5 -13 5 -14 0 -19 -2 -12 -5z"/>
<path d="M1502 1660 c0 -14 2 -19 5 -12 2 6 2 18 0 25 -3 6 -5 1 -5 -13z"/>
<path d="M1162 1650 c0 -14 2 -19 5 -12 2 6 2 18 0 25 -3 6 -5 1 -5 -13z"/>
<path d="M1541 1634 c0 -11 3 -14 6 -6 3 7 2 16 -1 19 -3 4 -6 -2 -5 -13z"/>
<path d="M759 1609 l-24 -20 28 17 c15 9 27 18 27 20 0 8 -8 4 -31 -17z"/>
<path d="M699 1563 c-13 -16 -12 -17 4 -4 9 7 17 15 17 17 0 8 -8 3 -21 -13z"/>
<path d="M739 1543 c-13 -16 -12 -17 4 -4 9 7 17 15 17 17 0 8 -8 3 -21 -13z"/>
<path d="M1663 4200 c16 -5 34 -12 41 -17 6 -4 3 0 -7 10 -11 9 -29 17 -41 16
-17 -1 -16 -2 7 -9z"/>
<path d="M1557 4193 c-10 -9 -9 -41 2 -47 4 -3 6 5 4 19 -5 21 -1 24 33 28
l39 4 -36 1 c-20 1 -39 -1 -42 -5z"/>
<path d="M1540 4061 c0 -5 9 -7 20 -4 11 3 20 7 20 9 0 2 -9 4 -20 4 -11 0
-20 -4 -20 -9z"/>
<path d="M1487 4003 l-48 -36 42 -18 c22 -11 44 -19 48 -19 4 0 7 25 8 55 1
30 1 55 0 55 -1 0 -24 -17 -50 -37z"/>
<path d="M1296 3972 c-2 -4 13 -6 35 -4 21 2 39 6 39 8 0 7 -69 4 -74 -4z"/>
<path d="M1398 3963 c6 -2 18 -2 25 0 6 3 1 5 -13 5 -14 0 -19 -2 -12 -5z"/>
<path d="M1328 3913 c7 -3 16 -2 19 1 4 3 -2 6 -13 5 -11 0 -14 -3 -6 -6z"/>
<path d="M1240 3783 c-116 -118 -171 -185 -247 -298 -62 -92 -126 -210 -106
-194 10 8 20 17 23 21 3 4 34 9 70 11 62 3 90 20 56 33 -27 10 -21 96 9 132
14 17 25 35 25 41 0 14 70 61 91 61 9 0 24 9 34 20 10 11 28 20 41 20 15 0 50
28 105 81 69 68 79 83 65 91 -9 5 -16 15 -16 22 0 8 -6 19 -14 26 -8 6 -16 21
-18 32 -2 16 -26 -4 -118 -99z"/>
<path d="M3064 3552 c15 -18 15 -19 -9 -30 -39 -18 -73 -15 -85 8 -12 22 -35
28 -27 6 3 -7 0 -19 -6 -25 -24 -24 15 -36 171 -48 48 -4 72 -2 72 5 0 6 -8
13 -18 16 -11 4 -36 24 -58 46 -38 39 -73 57 -40 22z"/>
<path d="M3130 3520 c20 -13 60 -13 60 0 0 6 -17 10 -37 10 -28 0 -34 -3 -23
-10z"/>
<path d="M2799 2956 c6 -7 7 -17 3 -21 -4 -5 -1 -4 7 0 11 6 13 4 8 -8 -4 -11
-2 -14 8 -11 10 4 12 0 8 -15 -6 -23 6 -28 25 -9 9 9 12 9 12 -2 0 -11 3 -11
12 -2 7 7 17 8 30 1 12 -6 18 -6 18 1 0 5 -4 10 -8 10 -5 0 -17 8 -28 18 -24
22 -110 57 -95 38z"/>
</g>
</symbol>
</svg>
