<?xml version="1.0" encoding="iso-8859-1"?>
<!-- Generator: Adobe Illustrator 19.0.0, SVG Export Plug-In . SVG Version: 6.00 Build 0)  -->
<svg version="1.1" id="Layer_1" xmlns="http://www.w3.org/2000/svg" xmlns:xlink="http://www.w3.org/1999/xlink" x="0px" y="0px"
	 viewBox="0 0 512.001 512.001" fill="#ff7403"  class="w-10 h-10 text-orange" xml:space="preserve">
<g>
	<g>
		<path d="M486.4,273.067h-93.49l-13.585-47.558c-4.602-16.135-12.847-30.997-24.1-43.442l-0.033-0.034l-0.033-0.041l-0.026-0.019
			c-20.973-23.507-50.988-36.935-82.491-36.906h-25.175v-8.533c-0.015-14.132-11.468-25.585-25.6-25.6H204.8V8.533
			C204.8,3.82,200.98,0,196.267,0s-8.533,3.82-8.533,8.533v3.841l-21.108-9.549c-8.278-3.75-17.771-3.75-26.05,0l-33.158,15
			c-3.055,1.381-5.017,4.423-5.017,7.775v42.667c0.004,4.715,3.83,8.535,8.545,8.531c1.209-0.001,2.403-0.259,3.505-0.756l33.158-15
			c3.803-1.75,8.181-1.75,11.983,0l28.142,12.731v37.161h-17.067c-14.132,0.015-25.585,11.468-25.6,25.6v8.533H128
			c-14.132,0.015-25.585,11.468-25.6,25.6v153.6H25.6c-14.132,0.015-25.585,11.468-25.6,25.6c0.098,24.99,5.886,49.63,16.925,72.05
			c27.298,55.231,83.6,90.159,145.208,90.083h187.733c61.628,0.232,117.988-34.717,145.175-90.025
			c5.742-11.417,10.042-23.505,12.8-35.983l0.021-0.102l0.012-0.048v-0.01c2.773-11.786,4.158-23.857,4.125-35.965v-51.2
			C511.985,284.535,500.532,273.082,486.4,273.067z M347.42,199.539c0.809,1.061,1.638,2.106,2.401,3.203
			c1.216,1.747,2.321,3.568,3.415,5.397c0.646,1.083,1.338,2.138,1.94,3.246c1.116,2.051,2.088,4.176,3.046,6.307
			c0.433,0.964,0.935,1.896,1.335,2.875c1.295,3.141,2.414,6.352,3.352,9.617l12.242,42.883H256v-76.8h88.779
			C345.68,197.341,346.569,198.423,347.42,199.539z M166.625,45.492c-8.278-3.75-17.771-3.75-26.05,0l-21.108,9.55V31.108
			l28.142-12.733c3.803-1.75,8.181-1.75,11.983,0l28.142,12.731v23.935L166.625,45.492z M162.134,136.533
			c0.003-4.711,3.822-8.53,8.533-8.533h51.2c4.711,0.003,8.53,3.822,8.533,8.533v8.533h-68.267V136.533z M119.467,170.667
			c0.003-4.712,3.822-8.53,8.533-8.533h144.642c19.258,0.014,38.042,5.975,53.786,17.067H256
			c-9.421,0.012-17.054,7.646-17.067,17.067v76.8c0.012,9.421,7.646,17.054,17.067,17.067h60.877L296.583,320.5
			c-1.565,2.363-4.215,3.779-7.05,3.767H119.467V170.667z M29.338,408.147c-0.653-1.478-1.263-2.979-1.865-4.484
			c-0.494-1.239-0.995-2.474-1.454-3.731c-0.563-1.535-1.071-3.094-1.579-4.652c-0.297-0.913-0.598-1.825-0.877-2.747H316.35
			c-0.822,5.659-0.822,11.408,0,17.067H30.013C29.792,409.114,29.554,408.636,29.338,408.147z M349.867,494.933H162.134
			c-50.069,0.162-96.63-25.687-122.971-68.267h282.546c13.959,29.693,49.346,42.447,79.039,28.488
			c12.524-5.888,22.6-15.964,28.488-28.488h43.592C446.497,469.253,399.935,495.104,349.867,494.933z M335.309,386.8
			c7.837-22.178,32.17-33.804,54.348-25.967c12.178,4.303,21.745,13.9,26.011,26.092c3.303,9.184,3.288,19.234-0.042,28.408
			c-7.837,22.178-32.17,33.804-54.348,25.967c-12.178-4.303-21.745-13.9-26.011-26.092
			C331.964,406.024,331.979,395.974,335.309,386.8z M487.611,395.13c-0.525,1.621-1.056,3.24-1.641,4.838
			c-0.457,1.246-0.954,2.474-1.447,3.704c-0.6,1.499-1.206,2.995-1.857,4.468c-0.218,0.492-0.455,0.973-0.678,1.461h-47.404
			c0.822-5.659,0.822-11.407,0-17.067h53.859C488.18,393.404,487.892,394.266,487.611,395.13z M494.934,349.867
			c-0.059,8.594-0.911,17.163-2.546,25.6h-63.163c-13.959-29.693-49.346-42.447-79.039-28.488
			c-12.524,5.888-22.6,15.964-28.488,28.488H19.609c-1.635-8.437-2.486-17.006-2.542-25.6c0.003-4.711,3.822-8.53,8.533-8.533
			h263.933c8.55,0.024,16.539-4.254,21.258-11.383l24.092-36.05c1.566-2.363,4.216-3.779,7.05-3.767H486.4
			c4.711,0.003,8.53,3.822,8.533,8.533V349.867z"/>
	</g>
</g>
<g>
	<g>
		<path d="M375.467,375.467c-10.93-0.043-20.66,6.917-24.15,17.275c-0.978,2.666-1.469,5.486-1.45,8.325
			c0.001,2.998,0.546,5.971,1.608,8.775c1.228,3.368,4.431,5.609,8.017,5.608c4.713,0,8.533-3.82,8.534-8.533
			c0-0.998-0.175-1.988-0.517-2.925c-0.377-0.929-0.572-1.922-0.575-2.925c-0.012-0.879,0.141-1.752,0.45-2.575
			c1.099-3.542,4.375-5.957,8.083-5.958c4.713,0,8.533-3.82,8.533-8.533S380.18,375.467,375.467,375.467z"/>
	</g>
</g>
<g>
	<g>
		<path d="M204.8,179.2h-51.2c-9.421,0.012-17.054,7.646-17.067,17.067v76.8c0.012,9.421,7.646,17.054,17.067,17.067h51.2
			c9.421-0.012,17.054-7.646,17.067-17.067v-76.8C221.855,186.846,214.221,179.212,204.8,179.2z M153.6,273.067v-76.8h51.2
			l0.017,76.8H153.6z"/>
	</g>
</g>
<g>
	<g>
		<path d="M296.169,215.836c-0.001-0.001-0.002-0.002-0.003-0.003c-3.33-3.332-8.732-3.333-12.064-0.003
			c-0.001,0.001-0.002,0.002-0.003,0.003l-8.533,8.533c-3.353,3.311-3.387,8.713-0.076,12.066c3.311,3.353,8.713,3.387,12.066,0.076
			c0.025-0.025,0.051-0.05,0.076-0.076l8.533-8.533C299.499,224.569,299.5,219.168,296.169,215.836z"/>
	</g>
</g>
<g>
	<g>
		<path d="M338.725,215.834c-3.319-3.26-8.639-3.26-11.958,0l-25.6,25.6c-3.362,3.302-3.41,8.704-0.108,12.066
			c3.302,3.362,8.704,3.41,12.066,0.108c0.036-0.036,0.072-0.072,0.108-0.108l25.6-25.6
			C342.136,224.538,342.087,219.136,338.725,215.834z"/>
	</g>
</g>
<g>
</g>
<g>
</g>
<g>
</g>
<g>
</g>
<g>
</g>
<g>
</g>
<g>
</g>
<g>
</g>
<g>
</g>
<g>
</g>
<g>
</g>
<g>
</g>
<g>
</g>
<g>
</g>
<g>
</g>
</svg>
